  0
SECTION
  2
HEADER
  9
$ACADVER
  1
AC1027
  9
$ACADMAINTVER
 70
   125
  9
$DWGCODEPAGE
  3
ANSI_1252
  9
$LASTSAVEDBY
  1
aimrl
  9
$REQUIREDVERSIONS
160
                 0
  9
$INSBASE
 10
0.0
 20
0.0
 30
0.0
  9
$EXTMIN
 10
-153.9967391784174
 20
-0.1653350905333348
 30
0.0
  9
$EXTMAX
 10
104.104180131
 20
110.4404126638
 30
0.0
  9
$LIMMIN
 10
0.0
 20
0.0
  9
$LIMMAX
 10
279.4
 20
215.9
  9
$ORTHOMODE
 70
     0
  9
$REGENMODE
 70
     1
  9
$FILLMODE
 70
     1
  9
$QTEXTMODE
 70
     0
  9
$MIRRTEXT
 70
     1
  9
$LTSCALE
 40
1.0
  9
$ATTMODE
 70
     1
  9
$TEXTSIZE
 40
3.5
  9
$TRACEWID
 40
1.0
  9
$TEXTSTYLE
  7
Standard
  9
$CLAYER
  8
leg_release
  9
$CELTYPE
  6
ByLayer
  9
$CECOLOR
 62
   256
  9
$CELTSCALE
 40
1.0
  9
$DISPSILH
 70
     0
  9
$DIMSCALE
 40
1.0
  9
$DIMASZ
 40
3.302
  9
$DIMEXO
 40
1.0
  9
$DIMDLI
 40
3.75
  9
$DIMRND
 40
0.0
  9
$DIMDLE
 40
0.0
  9
$DIMEXE
 40
1.0
  9
$DIMTP
 40
0.0
  9
$DIMTM
 40
0.0
  9
$DIMTXT
 40
3.5
  9
$DIMCEN
 40
2.5
  9
$DIMTSZ
 40
0.0
  9
$DIMTOL
 70
     0
  9
$DIMLIM
 70
     0
  9
$DIMTIH
 70
     1
  9
$DIMTOH
 70
     1
  9
$DIMSE1
 70
     0
  9
$DIMSE2
 70
     0
  9
$DIMTAD
 70
     1
  9
$DIMZIN
 70
     1
  9
$DIMBLK
  1

  9
$DIMASO
 70
     1
  9
$DIMSHO
 70
     1
  9
$DIMPOST
  1

  9
$DIMAPOST
  1

  9
$DIMALT
 70
     0
  9
$DIMALTD
 70
     3
  9
$DIMALTF
 40
0.0393700787
  9
$DIMLFAC
 40
1.0
  9
$DIMTOFL
 70
     1
  9
$DIMTVP
 40
0.0
  9
$DIMTIX
 70
     0
  9
$DIMSOXD
 70
     0
  9
$DIMSAH
 70
     0
  9
$DIMBLK1
  1

  9
$DIMBLK2
  1

  9
$DIMSTYLE
  2
ISO-25
  9
$DIMCLRD
 70
     0
  9
$DIMCLRE
 70
     0
  9
$DIMCLRT
 70
     0
  9
$DIMTFAC
 40
1.0
  9
$DIMGAP
 40
1.524
  9
$DIMJUST
 70
     0
  9
$DIMSD1
 70
     0
  9
$DIMSD2
 70
     0
  9
$DIMTOLJ
 70
     0
  9
$DIMTZIN
 70
     1
  9
$DIMALTZ
 70
     0
  9
$DIMALTTZ
 70
     0
  9
$DIMUPT
 70
     0
  9
$DIMDEC
 70
     2
  9
$DIMTDEC
 70
     2
  9
$DIMALTU
 70
     2
  9
$DIMALTTD
 70
     3
  9
$DIMTXSTY
  7
Standard
  9
$DIMAUNIT
 70
     0
  9
$DIMADEC
 70
     2
  9
$DIMALTRND
 40
0.0
  9
$DIMAZIN
 70
     0
  9
$DIMDSEP
 70
    44
  9
$DIMATFIT
 70
     3
  9
$DIMFRAC
 70
     0
  9
$DIMLDRBLK
  1

  9
$DIMLUNIT
 70
     2
  9
$DIMLWD
 70
    -2
  9
$DIMLWE
 70
    -2
  9
$DIMTMOVE
 70
     0
  9
$DIMFXL
 40
1.0
  9
$DIMFXLON
 70
     0
  9
$DIMJOGANG
 40
0.7853981634000001
  9
$DIMTFILL
 70
     0
  9
$DIMTFILLCLR
 70
     0
  9
$DIMARCSYM
 70
     0
  9
$DIMLTYPE
  6

  9
$DIMLTEX1
  6

  9
$DIMLTEX2
  6

  9
$DIMTXTDIRECTION
 70
     0
  9
$LUNITS
 70
     2
  9
$LUPREC
 70
     2
  9
$SKETCHINC
 40
1.0
  9
$FILLETRAD
 40
0.0
  9
$AUNITS
 70
     0
  9
$AUPREC
 70
     2
  9
$MENU
  1
.
  9
$ELEVATION
 40
0.0
  9
$PELEVATION
 40
0.0
  9
$THICKNESS
 40
0.0
  9
$LIMCHECK
 70
     0
  9
$CHAMFERA
 40
0.0
  9
$CHAMFERB
 40
0.0
  9
$CHAMFERC
 40
0.0
  9
$CHAMFERD
 40
0.0
  9
$SKPOLY
 70
     0
  9
$TDCREATE
 40
2459984.911423611
  9
$TDUCREATE
 40
2459985.203090706
  9
$TDUPDATE
 40
2459984.920682870
  9
$TDUUPDATE
 40
2459985.212349537
  9
$TDINDWG
 40
0.0090625116
  9
$TDUSRTIMER
 40
0.0090625116
  9
$USRTIMER
 70
     1
  9
$ANGBASE
 50
0.0
  9
$ANGDIR
 70
     0
  9
$PDMODE
 70
     0
  9
$PDSIZE
 40
-1.0
  9
$PLINEWID
 40
0.0
  9
$SPLFRAME
 70
     0
  9
$SPLINETYPE
 70
     6
  9
$SPLINESEGS
 70
     8
  9
$HANDSEED
  5
62D
  9
$SURFTAB1
 70
     6
  9
$SURFTAB2
 70
     6
  9
$SURFTYPE
 70
     6
  9
$SURFU
 70
     6
  9
$SURFV
 70
     6
  9
$UCSBASE
  2

  9
$UCSNAME
  2

  9
$UCSORG
 10
0.0
 20
0.0
 30
0.0
  9
$UCSXDIR
 10
1.0
 20
0.0
 30
0.0
  9
$UCSYDIR
 10
0.0
 20
1.0
 30
0.0
  9
$UCSORTHOREF
  2

  9
$UCSORTHOVIEW
 70
     0
  9
$UCSORGTOP
 10
0.0
 20
0.0
 30
0.0
  9
$UCSORGBOTTOM
 10
0.0
 20
0.0
 30
0.0
  9
$UCSORGLEFT
 10
0.0
 20
0.0
 30
0.0
  9
$UCSORGRIGHT
 10
0.0
 20
0.0
 30
0.0
  9
$UCSORGFRONT
 10
0.0
 20
0.0
 30
0.0
  9
$UCSORGBACK
 10
0.0
 20
0.0
 30
0.0
  9
$PUCSBASE
  2

  9
$PUCSNAME
  2

  9
$PUCSORG
 10
0.0
 20
0.0
 30
0.0
  9
$PUCSXDIR
 10
1.0
 20
0.0
 30
0.0
  9
$PUCSYDIR
 10
0.0
 20
1.0
 30
0.0
  9
$PUCSORTHOREF
  2

  9
$PUCSORTHOVIEW
 70
     0
  9
$PUCSORGTOP
 10
0.0
 20
0.0
 30
0.0
  9
$PUCSORGBOTTOM
 10
0.0
 20
0.0
 30
0.0
  9
$PUCSORGLEFT
 10
0.0
 20
0.0
 30
0.0
  9
$PUCSORGRIGHT
 10
0.0
 20
0.0
 30
0.0
  9
$PUCSORGFRONT
 10
0.0
 20
0.0
 30
0.0
  9
$PUCSORGBACK
 10
0.0
 20
0.0
 30
0.0
  9
$USERI1
 70
     0
  9
$USERI2
 70
     0
  9
$USERI3
 70
     0
  9
$USERI4
 70
     0
  9
$USERI5
 70
     0
  9
$USERR1
 40
0.0
  9
$USERR2
 40
0.0
  9
$USERR3
 40
0.0
  9
$USERR4
 40
0.0
  9
$USERR5
 40
0.0
  9
$WORLDVIEW
 70
     1
  9
$SHADEDGE
 70
     3
  9
$SHADEDIF
 70
    70
  9
$TILEMODE
 70
     1
  9
$MAXACTVP
 70
    64
  9
$PINSBASE
 10
0.0
 20
0.0
 30
0.0
  9
$PLIMCHECK
 70
     0
  9
$PEXTMIN
 10
1.000000000000000E+20
 20
1.000000000000000E+20
 30
1.000000000000000E+20
  9
$PEXTMAX
 10
-1.000000000000000E+20
 20
-1.000000000000000E+20
 30
-1.000000000000000E+20
  9
$PLIMMIN
 10
0.0
 20
0.0
  9
$PLIMMAX
 10
420.0
 20
297.0
  9
$UNITMODE
 70
     0
  9
$VISRETAIN
 70
     1
  9
$PLINEGEN
 70
     0
  9
$PSLTSCALE
 70
     1
  9
$TREEDEPTH
 70
  3020
  9
$CMLSTYLE
  2
Standard
  9
$CMLJUST
 70
     0
  9
$CMLSCALE
 40
20.0
  9
$PROXYGRAPHICS
 70
     1
  9
$MEASUREMENT
 70
     1
  9
$CELWEIGHT
370
    -1
  9
$ENDCAPS
280
     0
  9
$JOINSTYLE
280
     0
  9
$LWDISPLAY
290
     1
  9
$INSUNITS
 70
     4
  9
$HYPERLINKBASE
  1

  9
$STYLESHEET
  1

  9
$XEDIT
290
     1
  9
$CEPSNTYPE
380
     0
  9
$PSTYLEMODE
290
     1
  9
$FINGERPRINTGUID
  2
{0EE4ECEC-6454-460C-9662-330DEE3D1DD7}
  9
$VERSIONGUID
  2
{AF43FA10-9211-9D44-9BAB-53C89B977C9E}
  9
$EXTNAMES
290
     1
  9
$PSVPSCALE
 40
0.0
  9
$OLESTARTUP
290
     0
  9
$SORTENTS
280
   127
  9
$INDEXCTL
280
     0
  9
$HIDETEXT
280
     1
  9
$XCLIPFRAME
280
     2
  9
$HALOGAP
280
     0
  9
$OBSCOLOR
 70
   257
  9
$OBSLTYPE
280
     0
  9
$INTERSECTIONDISPLAY
280
     0
  9
$INTERSECTIONCOLOR
 70
   257
  9
$DIMASSOC
280
     2
  9
$PROJECTNAME
  1

  9
$CAMERADISPLAY
290
     0
  9
$LENSLENGTH
 40
50.0
  9
$CAMERAHEIGHT
 40
0.0
  9
$STEPSPERSEC
 40
2.0
  9
$STEPSIZE
 40
6.0
  9
$3DDWFPREC
 40
2.0
  9
$PSOLWIDTH
 40
5.0
  9
$PSOLHEIGHT
 40
80.0
  9
$LOFTANG1
 40
1.5707963268
  9
$LOFTANG2
 40
1.5707963268
  9
$LOFTMAG1
 40
0.0
  9
$LOFTMAG2
 40
0.0
  9
$LOFTPARAM
 70
     7
  9
$LOFTNORMALS
280
     1
  9
$LATITUDE
 40
37.795
  9
$LONGITUDE
 40
-122.394
  9
$NORTHDIRECTION
 40
0.0
  9
$TIMEZONE
 70
 -8000
  9
$LIGHTGLYPHDISPLAY
280
     1
  9
$TILEMODELIGHTSYNCH
280
     1
  9
$CMATERIAL
347
44
  9
$SOLIDHIST
280
     0
  9
$SHOWHIST
280
     1
  9
$DWFFRAME
280
     2
  9
$DGNFRAME
280
     2
  9
$REALWORLDSCALE
290
     1
  9
$INTERFERECOLOR
 62
   256
  9
$INTERFEREOBJVS
345
33
  9
$INTERFEREVPVS
346
30
  9
$CSHADOW
280
     0
  9
$SHADOWPLANELOCATION
 40
0.0
  0
ENDSEC
  0
SECTION
  2
CLASSES
  0
CLASS
  1
ACDBDICTIONARYWDFLT
  2
AcDbDictionaryWithDefault
  3
ObjectDBX Classes
 90
        0
 91
        1
280
     0
281
     0
  0
CLASS
  1
VISUALSTYLE
  2
AcDbVisualStyle
  3
ObjectDBX Classes
 90
     4095
 91
       24
280
     0
281
     0
  0
CLASS
  1
MATERIAL
  2
AcDbMaterial
  3
ObjectDBX Classes
 90
     1153
 91
        3
280
     0
281
     0
  0
CLASS
  1
SCALE
  2
AcDbScale
  3
ObjectDBX Classes
 90
     1153
 91
       17
280
     0
281
     0
  0
CLASS
  1
TABLESTYLE
  2
AcDbTableStyle
  3
ObjectDBX Classes
 90
     4095
 91
        1
280
     0
281
     0
  0
CLASS
  1
MLEADERSTYLE
  2
AcDbMLeaderStyle
  3
ACDB_MLEADERSTYLE_CLASS
 90
     4095
 91
        1
280
     0
281
     0
  0
CLASS
  1
SUN
  2
AcDbSun
  3
SCENEOE
 90
     1153
 91
        1
280
     0
281
     0
  0
CLASS
  1
DICTIONARYVAR
  2
AcDbDictionaryVar
  3
ObjectDBX Classes
 90
        0
 91
        7
280
     0
281
     0
  0
CLASS
  1
CELLSTYLEMAP
  2
AcDbCellStyleMap
  3
ObjectDBX Classes
 90
     1152
 91
        3
280
     0
281
     0
  0
CLASS
  1
ACDBSECTIONVIEWSTYLE
  2
AcDbSectionViewStyle
  3
ObjectDBX Classes
 90
     1025
 91
        1
280
     0
281
     0
  0
CLASS
  1
ACDBDETAILVIEWSTYLE
  2
AcDbDetailViewStyle
  3
ObjectDBX Classes
 90
     1025
 91
        1
280
     0
281
     0
  0
ENDSEC
  0
SECTION
  2
TABLES
  0
TABLE
  2
VPORT
  5
8
330
0
100
AcDbSymbolTable
 70
     1
1001
ACAD
1000
DbSaveVer
1071
      279
  0
VPORT
  5
29
330
8
100
AcDbSymbolTableRecord
100
AcDbViewportTableRecord
  2
*Active
 70
     0
 10
0.0
 20
0.0
 11
1.0
 21
1.0
 12
13.9165607271249
 22
19.72895556521007
 13
0.0
 23
0.0
 14
10.0
 24
10.0
 15
10.0
 25
10.0
 16
0.0
 26
0.0
 36
1.0
 17
0.0
 27
0.0
 37
0.0
 40
18.21454447248448
 41
1.813979706877113
 42
50.0
 43
0.0
 44
0.0
 50
0.0
 51
0.0
 71
     0
 72
  2000
 73
     1
 74
     3
 75
     0
 76
     0
 77
     0
 78
     0
281
     0
 65
     1
110
0.0
120
0.0
130
0.0
111
1.0
121
0.0
131
0.0
112
0.0
122
1.0
132
0.0
 79
     0
146
0.0
348
2F
 60
     3
 61
     5
292
     1
282
     1
141
0.0
142
0.0
361
5D
1001
ACAD_NAV_VCDISPLAY
1070
     3
  0
ENDTAB
  0
TABLE
  2
LTYPE
  5
5
330
0
100
AcDbSymbolTable
 70
     6
  0
LTYPE
  5
14
330
5
100
AcDbSymbolTableRecord
100
AcDbLinetypeTableRecord
  2
ByBlock
 70
     0
  3

 72
    65
 73
     0
 40
0.0
  0
LTYPE
  5
15
330
5
100
AcDbSymbolTableRecord
100
AcDbLinetypeTableRecord
  2
ByLayer
 70
     0
  3

 72
    65
 73
     0
 40
0.0
  0
LTYPE
  5
16
330
5
100
AcDbSymbolTableRecord
100
AcDbLinetypeTableRecord
  2
Continuous
 70
     0
  3
Solid line
 72
    65
 73
     0
 40
0.0
  0
LTYPE
  5
5E
330
5
100
AcDbSymbolTableRecord
100
AcDbLinetypeTableRecord
  2
HIDDEN
 70
     0
  3
Hidden __ __ __ __ __ __ __ __ __ __ __ __ __ __
 72
    65
 73
     2
 40
1.905
 49
1.27
 74
     0
 49
-0.635
 74
     0
  0
LTYPE
  5
5F
330
5
100
AcDbSymbolTableRecord
100
AcDbLinetypeTableRecord
  2
PHANTOM
 70
     0
  3
Phantom ______  __  __  ______  __  __  ______
 72
    65
 73
     6
 40
12.7
 49
6.349999999999999
 74
     0
 49
-1.27
 74
     0
 49
1.27
 74
     0
 49
-1.27
 74
     0
 49
1.27
 74
     0
 49
-1.27
 74
     0
  0
LTYPE
  5
60
330
5
100
AcDbSymbolTableRecord
100
AcDbLinetypeTableRecord
  2
CENTER
 70
     0
  3
Center ____ _ ____ _ ____ _ ____ _ ____ _ ____
 72
    65
 73
     4
 40
10.16
 49
6.349999999999999
 74
     0
 49
-1.27
 74
     0
 49
1.27
 74
     0
 49
-1.27
 74
     0
  0
LTYPE
  5
61
330
5
100
AcDbSymbolTableRecord
100
AcDbLinetypeTableRecord
  2
CENTERX2
 70
     0
  3
Center (2x) ________  __  ________  __  _____
 72
    65
 73
     4
 40
20.32
 49
12.7
 74
     0
 49
-2.54
 74
     0
 49
2.54
 74
     0
 49
-2.54
 74
     0
  0
LTYPE
  5
62
330
5
100
AcDbSymbolTableRecord
100
AcDbLinetypeTableRecord
  2
DOT2
 70
     0
  3
Dot (.5x) ........................................
 72
    65
 73
     2
 40
0.635
 49
0.0
 74
     0
 49
-0.635
 74
     0
  0
ENDTAB
  0
TABLE
  2
LAYER
  5
2
102
{ACAD_XDICTIONARY
360
1B4
102
}
330
0
100
AcDbSymbolTable
 70
     3
  0
LAYER
  5
10
330
2
100
AcDbSymbolTableRecord
100
AcDbLayerTableRecord
  2
0
 70
     0
 62
     7
  6
Continuous
370
    -3
390
F
347
46
348
0
  0
LAYER
  5
1C8
330
2
100
AcDbSymbolTableRecord
100
AcDbLayerTableRecord
  2
4_hole_small_squ
 70
     0
 62
    72
  6
Continuous
370
    -3
390
F
347
46
348
0
1001
ACAECLAYERSTANDARD
1000

1000

1001
AcCmTransparency
1071
        0
  0
LAYER
  5
41B
330
2
100
AcDbSymbolTableRecord
100
AcDbLayerTableRecord
  2
leg_release
 70
     0
 62
    20
  6
Continuous
370
    -3
390
F
347
46
348
0
1001
ACAECLAYERSTANDARD
1000

1000

1001
AcCmTransparency
1071
        0
  0
ENDTAB
  0
TABLE
  2
STYLE
  5
3
330
0
100
AcDbSymbolTable
 70
     2
  0
STYLE
  5
11
330
3
100
AcDbSymbolTableRecord
100
AcDbTextStyleTableRecord
  2
Standard
 70
     0
 40
0.0
 41
1.0
 50
0.0
 71
     0
 42
3.5
  3
txt
  4

  0
STYLE
  5
78
330
3
100
AcDbSymbolTableRecord
100
AcDbTextStyleTableRecord
  2
SLDTEXTSTYLE0
 70
     0
 40
0.0
 41
0.7
 50
0.0
 71
     0
 42
3.5
  3
TXT
  4

  0
ENDTAB
  0
TABLE
  2
VIEW
  5
6
330
0
100
AcDbSymbolTable
 70
     2
  0
ENDTAB
  0
TABLE
  2
UCS
  5
7
330
0
100
AcDbSymbolTable
 70
     0
  0
ENDTAB
  0
TABLE
  2
APPID
  5
9
330
0
100
AcDbSymbolTable
 70
     4
  0
APPID
  5
12
330
9
100
AcDbSymbolTableRecord
100
AcDbRegAppTableRecord
  2
ACAD
 70
     0
  0
APPID
  5
136
330
9
100
AcDbSymbolTableRecord
100
AcDbRegAppTableRecord
  2
ACAD_NAV_VCDISPLAY
 70
     0
  0
APPID
  5
1C9
330
9
100
AcDbSymbolTableRecord
100
AcDbRegAppTableRecord
  2
ACAECLAYERSTANDARD
 70
     0
  0
APPID
  5
1CA
330
9
100
AcDbSymbolTableRecord
100
AcDbRegAppTableRecord
  2
AcCmTransparency
 70
     0
  0
ENDTAB
  0
TABLE
  2
DIMSTYLE
  5
A
330
0
100
AcDbSymbolTable
 70
     1
100
AcDbDimStyleTable
 71
     0
  0
DIMSTYLE
105
27
330
A
100
AcDbSymbolTableRecord
100
AcDbDimStyleTableRecord
  2
ISO-25
 70
     0
 41
2.5
 42
0.625
 43
3.75
 44
1.25
 73
     0
 74
     0
 77
     1
 78
     8
140
2.5
141
2.5
143
0.0393700787
147
0.625
171
     3
172
     1
271
     2
272
     2
274
     3
278
    44
283
     0
284
     8
340
11
  0
ENDTAB
  0
TABLE
  2
BLOCK_RECORD
  5
1
330
0
100
AcDbSymbolTable
 70
    16
  0
BLOCK_RECORD
  5
1F
330
1
100
AcDbSymbolTableRecord
100
AcDbBlockTableRecord
  2
*Model_Space
340
22
 70
     0
280
     1
281
     0
  0
BLOCK_RECORD
  5
1B
330
1
100
AcDbSymbolTableRecord
100
AcDbBlockTableRecord
  2
*Paper_Space
340
1E
 70
     0
280
     1
281
     0
  0
BLOCK_RECORD
  5
23
330
1
100
AcDbSymbolTableRecord
100
AcDbBlockTableRecord
  2
*Paper_Space0
340
26
 70
     0
280
     1
281
     0
  0
ENDTAB
  0
ENDSEC
  0
SECTION
  2
BLOCKS
  0
BLOCK
  5
20
330
1F
100
AcDbEntity
  8
0
100
AcDbBlockBegin
  2
*Model_Space
 70
     0
 10
0.0
 20
0.0
 30
0.0
  3
*Model_Space
  1

  0
ENDBLK
  5
21
330
1F
100
AcDbEntity
  8
0
100
AcDbBlockEnd
  0
BLOCK
  5
1C
330
1B
100
AcDbEntity
 67
     1
  8
0
100
AcDbBlockBegin
  2
*Paper_Space
 70
     0
 10
0.0
 20
0.0
 30
0.0
  3
*Paper_Space
  1

  0
ENDBLK
  5
1D
330
1B
100
AcDbEntity
 67
     1
  8
0
100
AcDbBlockEnd
  0
BLOCK
  5
24
330
23
100
AcDbEntity
 67
     1
  8
0
100
AcDbBlockBegin
  2
*Paper_Space0
 70
     0
 10
0.0
 20
0.0
 30
0.0
  3
*Paper_Space0
  1

  0
ENDBLK
  5
25
330
23
100
AcDbEntity
 67
     1
  8
0
100
AcDbBlockEnd
  0
ENDSEC
  0
SECTION
  2
ENTITIES
  0
CIRCLE
  5
1D4
330
1F
100
AcDbEntity
  8
4_hole_small_squ
100
AcDbCircle
 10
6.143730731181094
 20
23.44518633994249
 30
0.0
 40
0.85
  0
CIRCLE
  5
1D5
330
1F
100
AcDbEntity
  8
4_hole_small_squ
100
AcDbCircle
 10
25.1437307311811
 20
23.44518633994249
 30
0.0
 40
0.85
  0
CIRCLE
  5
1D6
330
1F
100
AcDbEntity
  8
4_hole_small_squ
100
AcDbCircle
 10
25.1437307311811
 20
4.445186339942495
 30
0.0
 40
0.85
  0
CIRCLE
  5
1D7
330
1F
100
AcDbEntity
  8
4_hole_small_squ
100
AcDbCircle
 10
6.143730731181094
 20
4.445186339942495
 30
0.0
 40
0.85
  0
LWPOLYLINE
  5
1D8
330
1F
100
AcDbEntity
  8
4_hole_small_squ
100
AcDbPolyline
 90
        4
 70
     1
 43
0.0
 10
3.143730731181102
 20
26.4451863399425
 10
28.14373073118109
 20
26.4451863399425
 10
28.14373073118109
 20
1.445186339942495
 10
3.143730731181102
 20
1.445186339942495
  0
ARC
  5
20C
330
1F
100
AcDbEntity
  8
0
  6
Continuous
 62
     7
370
    25
100
AcDbCircle
 10
19.86441458049833
 20
15.70236905193835
 30
0.0
 40
0.3000000000000114
100
AcDbArc
 50
263.1010638466901
 51
308.1010638466904
  0
ARC
  5
20D
330
1F
100
AcDbEntity
  8
0
  6
Continuous
 62
     7
370
    25
100
AcDbCircle
 10
19.61759438587804
 20
16.01713847791172
 30
0.0
 40
0.2999999999999944
100
AcDbArc
 50
128.1010638466904
 51
173.1010638466903
  0
ARC
  5
20E
330
1F
100
AcDbEntity
  8
0
  6
Continuous
 62
     7
370
    25
100
AcDbCircle
 10
19.58826011915197
 20
16.7565994654516
 30
0.0
 40
0.3000000000000114
100
AcDbArc
 50
308.1010638466904
 51
358.9274058762902
  0
ARC
  5
20F
330
1F
100
AcDbEntity
  8
0
  6
Continuous
 62
     7
370
    25
100
AcDbCircle
 10
19.19587078467658
 20
19.83789581035114
 30
0.0
 40
0.75
100
AcDbArc
 50
358.9274058762902
 51
38.10106384669032
  0
ARC
  5
210
330
1F
100
AcDbEntity
  8
0
  6
Continuous
 62
     7
370
    25
100
AcDbCircle
 10
19.26123628025215
 20
21.45617887302229
 30
0.0
 40
0.3000000000000114
100
AcDbArc
 50
128.1010638466904
 51
218.1010638466903
  0
ARC
  5
211
330
1F
100
AcDbEntity
  8
0
  6
Continuous
 62
     7
370
    25
100
AcDbCircle
 10
19.65469806271886
 20
21.76470411629765
 30
0.0
 40
0.3000000000000114
100
AcDbArc
 50
38.10106384669032
 51
128.1010638466904
  0
ARC
  5
212
330
1F
100
AcDbEntity
  8
0
  6
Continuous
 62
     7
370
    25
100
AcDbCircle
 10
20.20531975906619
 20
20.33322126769494
 30
0.0
 40
0.7500000000000007
100
AcDbArc
 50
358.9274058762902
 51
38.10106384669032
  0
ARC
  5
213
330
1F
100
AcDbEntity
  8
0
  6
Continuous
 62
     7
370
    25
100
AcDbCircle
 10
20.13327215490629
 20
16.48503553258109
 30
0.0
 40
0.75
100
AcDbArc
 50
308.1010638466904
 51
358.9274058762902
  0
LINE
  5
214
330
1F
100
AcDbEntity
  8
0
  6
Continuous
 62
     7
370
    25
100
AcDbLine
 10
19.46958291675365
 20
22.00078118577767
 30
0.0
 11
19.07612113428693
 21
21.69225594250231
 31
0.0
  0
LINE
  5
215
330
1F
100
AcDbEntity
  8
0
  6
Continuous
 62
     7
370
    25
100
AcDbLine
 10
20.01418522950903
 20
21.79243454927618
 30
0.0
 11
19.89077513219888
 21
21.94981926226287
 31
0.0
  0
LINE
  5
216
330
1F
100
AcDbEntity
  8
0
  6
Continuous
 62
     7
370
    25
100
AcDbLine
 10
19.62072344704232
 20
21.48390930600082
 30
0.0
 11
20.01418522950903
 21
21.79243454927618
 31
0.0
  0
LINE
  5
217
330
1F
100
AcDbEntity
  8
0
  6
Continuous
 62
     7
370
    25
100
AcDbLine
 10
19.77498606868001
 20
21.28717841476746
 30
0.0
 11
19.62072344704232
 21
21.48390930600082
 31
0.0
  0
LINE
  5
218
330
1F
100
AcDbEntity
  8
0
  6
Continuous
 62
     7
370
    25
100
AcDbLine
 10
20.16844785114671
 20
21.59570365804283
 30
0.0
 11
19.77498606868001
 21
21.28717841476746
 31
0.0
  0
LINE
  5
219
330
1F
100
AcDbEntity
  8
0
  6
Continuous
 62
     7
370
    25
100
AcDbLine
 10
20.79551243276624
 20
20.79600913260799
 30
0.0
 11
20.16844785114671
 21
21.59570365804283
 31
0.0
  0
LINE
  5
21A
330
1F
100
AcDbEntity
  8
0
  6
Continuous
 62
     7
370
    25
100
AcDbLine
 10
20.88314074021255
 20
16.47099612840008
 30
0.0
 11
20.95518834429378
 21
20.31918186345222
 31
0.0
  0
LINE
  5
21B
330
1F
100
AcDbEntity
  8
0
  6
Continuous
 62
     7
370
    25
100
AcDbLine
 10
20.04952972646355
 20
15.46629198245832
 30
0.0
 11
20.59606001981933
 21
15.89484285888103
 31
0.0
  0
LINE
  5
21C
330
1F
100
AcDbEntity
  8
0
  6
Continuous
 62
     7
370
    25
100
AcDbLine
 10
19.24975637678693
 20
15.47455131759755
 30
0.0
 11
19.82837905879121
 21
15.4045411801522
 31
0.0
  0
LINE
  5
21D
330
1F
100
AcDbEntity
  8
0
  6
Continuous
 62
     7
370
    25
100
AcDbLine
 10
19.31976651409189
 20
16.05317399961882
 30
0.0
 11
19.24975637678693
 21
15.47455131759755
 31
0.0
  0
LINE
  5
21E
330
1F
100
AcDbEntity
  8
0
  6
Continuous
 62
     7
370
    25
100
AcDbLine
 10
19.77337526511719
 20
16.52052239597158
 30
0.0
 11
19.43247923991283
 21
16.25321554739174
 31
0.0
  0
LINE
  5
21F
330
1F
100
AcDbEntity
  8
0
  6
Continuous
 62
     7
370
    25
100
AcDbLine
 10
19.94573936984245
 20
19.82385640618712
 30
0.0
 11
19.88820755331489
 21
16.75098370376008
 31
0.0
  0
LINE
  5
220
330
1F
100
AcDbEntity
  8
0
  6
Continuous
 62
     7
370
    25
100
AcDbLine
 10
19.02515921077213
 20
21.27106372705707
 30
0.0
 11
19.78606345837664
 21
20.30068367526419
 31
0.0
  0
ARC
  5
23A
330
1F
100
AcDbEntity
  8
0
  6
Continuous
 62
     7
370
    25
100
AcDbCircle
 10
21.59286147389007
 20
15.79542452832729
 30
0.0
 40
0.3000000000000114
100
AcDbArc
 50
263.1010638466901
 51
308.1010638466904
  0
ARC
  5
23B
330
1F
100
AcDbEntity
  8
0
  6
Continuous
 62
     7
370
    25
100
AcDbCircle
 10
21.34604127926978
 20
16.11019395430066
 30
0.0
 40
0.2999999999999944
100
AcDbArc
 50
128.1010638466904
 51
173.1010638466903
  0
ARC
  5
23C
330
1F
100
AcDbEntity
  8
0
  6
Continuous
 62
     7
370
    25
100
AcDbCircle
 10
21.31670701254372
 20
16.84965494184054
 30
0.0
 40
0.3000000000000114
100
AcDbArc
 50
308.1010638466904
 51
358.92740587629
  0
ARC
  5
23D
330
1F
100
AcDbEntity
  8
0
  6
Continuous
 62
     7
370
    25
100
AcDbCircle
 10
20.92431767806832
 20
19.93095128674008
 30
0.0
 40
0.75
100
AcDbArc
 50
358.92740587629
 51
38.10106384669017
  0
ARC
  5
23E
330
1F
100
AcDbEntity
  8
0
  6
Continuous
 62
     7
370
    25
100
AcDbCircle
 10
20.9896831736439
 20
21.54923434941123
 30
0.0
 40
0.3000000000000114
100
AcDbArc
 50
128.1010638466904
 51
218.1010638466902
  0
ARC
  5
23F
330
1F
100
AcDbEntity
  8
0
  6
Continuous
 62
     7
370
    25
100
AcDbCircle
 10
21.3831449561106
 20
21.85775959268659
 30
0.0
 40
0.3000000000000114
100
AcDbArc
 50
38.10106384669017
 51
128.1010638466904
  0
ARC
  5
240
330
1F
100
AcDbEntity
  8
0
  6
Continuous
 62
     7
370
    25
100
AcDbCircle
 10
21.93376665245793
 20
20.42627674408388
 30
0.0
 40
0.7500000000000007
100
AcDbArc
 50
358.92740587629
 51
38.10106384669017
  0
ARC
  5
241
330
1F
100
AcDbEntity
  8
0
  6
Continuous
 62
     7
370
    25
100
AcDbCircle
 10
21.86171904829803
 20
16.57809100897003
 30
0.0
 40
0.75
100
AcDbArc
 50
308.1010638466904
 51
358.92740587629
  0
LINE
  5
242
330
1F
100
AcDbEntity
  8
0
  6
Continuous
 62
     7
370
    25
100
AcDbLine
 10
21.19802981014539
 20
22.09383666216661
 30
0.0
 11
20.80456802767868
 21
21.78531141889125
 31
0.0
  0
LINE
  5
243
330
1F
100
AcDbEntity
  8
0
  6
Continuous
 62
     7
370
    25
100
AcDbLine
 10
21.74263212290077
 20
21.88549002566512
 30
0.0
 11
21.61922202559062
 21
22.04287473865181
 31
0.0
  0
LINE
  5
244
330
1F
100
AcDbEntity
  8
0
  6
Continuous
 62
     7
370
    25
100
AcDbLine
 10
21.34917034043406
 20
21.57696478238976
 30
0.0
 11
21.74263212290077
 21
21.88549002566512
 31
0.0
  0
LINE
  5
245
330
1F
100
AcDbEntity
  8
0
  6
Continuous
 62
     7
370
    25
100
AcDbLine
 10
21.50343296207175
 20
21.38023389115641
 30
0.0
 11
21.34917034043406
 21
21.57696478238976
 31
0.0
  0
LINE
  5
246
330
1F
100
AcDbEntity
  8
0
  6
Continuous
 62
     7
370
    25
100
AcDbLine
 10
21.89689474453845
 20
21.68875913443177
 30
0.0
 11
21.50343296207175
 21
21.38023389115641
 31
0.0
  0
LINE
  5
247
330
1F
100
AcDbEntity
  8
0
  6
Continuous
 62
     7
370
    25
100
AcDbLine
 10
22.52395932615799
 20
20.88906460899693
 30
0.0
 11
21.89689474453845
 21
21.68875913443177
 31
0.0
  0
LINE
  5
248
330
1F
100
AcDbEntity
  8
0
  6
Continuous
 62
     7
370
    25
100
AcDbLine
 10
22.61158763360429
 20
16.56405160478901
 30
0.0
 11
22.68363523768552
 21
20.41223733984117
 31
0.0
  0
LINE
  5
249
330
1F
100
AcDbEntity
  8
0
  6
Continuous
 62
     7
370
    25
100
AcDbLine
 10
21.77797661985529
 20
15.55934745884727
 30
0.0
 11
22.32450691321107
 21
15.98789833526997
 31
0.0
  0
LINE
  5
24A
330
1F
100
AcDbEntity
  8
0
  6
Continuous
 62
     7
370
    25
100
AcDbLine
 10
20.97820327017867
 20
15.56760679398649
 30
0.0
 11
21.55682595218296
 21
15.49759665654114
 31
0.0
  0
LINE
  5
24B
330
1F
100
AcDbEntity
  8
0
  6
Continuous
 62
     7
370
    25
100
AcDbLine
 10
21.04821340748363
 20
16.14622947600776
 30
0.0
 11
20.97820327017867
 21
15.56760679398649
 31
0.0
  0
LINE
  5
24C
330
1F
100
AcDbEntity
  8
0
  6
Continuous
 62
     7
370
    25
100
AcDbLine
 10
21.50182215850894
 20
16.61357787236052
 30
0.0
 11
21.16092613330457
 21
16.34627102378068
 31
0.0
  0
LINE
  5
24D
330
1F
100
AcDbEntity
  8
0
  6
Continuous
 62
     7
370
    25
100
AcDbLine
 10
21.67418626323419
 20
19.91691188257606
 30
0.0
 11
21.61665444670664
 21
16.84403918014902
 31
0.0
  0
LINE
  5
24E
330
1F
100
AcDbEntity
  8
0
  6
Continuous
 62
     7
370
    25
100
AcDbLine
 10
20.75360610416387
 20
21.36411920344601
 30
0.0
 11
21.51451035176838
 21
20.39373915165313
 31
0.0
  0
ARC
  5
268
330
1F
100
AcDbEntity
  8
0
  6
Continuous
 62
     7
370
    25
100
AcDbCircle
 10
23.39244972104159
 20
15.66619313236729
 30
0.0
 40
0.3000000000000114
100
AcDbArc
 50
263.1010638466901
 51
308.1010638466906
  0
ARC
  5
269
330
1F
100
AcDbEntity
  8
0
  6
Continuous
 62
     7
370
    25
100
AcDbCircle
 10
23.14562952642129
 20
15.98096255834066
 30
0.0
 40
0.2999999999999944
100
AcDbArc
 50
128.1010638466905
 51
173.1010638466903
  0
ARC
  5
26A
330
1F
100
AcDbEntity
  8
0
  6
Continuous
 62
     7
370
    25
100
AcDbCircle
 10
23.11629525969523
 20
16.72042354588054
 30
0.0
 40
0.3000000000000114
100
AcDbArc
 50
308.1010638466906
 51
358.9274058762902
  0
ARC
  5
26B
330
1F
100
AcDbEntity
  8
0
  6
Continuous
 62
     7
370
    25
100
AcDbCircle
 10
22.72390592521983
 20
19.80171989078008
 30
0.0
 40
0.75
100
AcDbArc
 50
358.9274058762902
 51
38.10106384669026
  0
ARC
  5
26C
330
1F
100
AcDbEntity
  8
0
  6
Continuous
 62
     7
370
    25
100
AcDbCircle
 10
22.7892714207954
 20
21.42000295345123
 30
0.0
 40
0.3000000000000114
100
AcDbArc
 50
128.1010638466905
 51
218.1010638466902
  0
ARC
  5
26D
330
1F
100
AcDbEntity
  8
0
  6
Continuous
 62
     7
370
    25
100
AcDbCircle
 10
23.18273320326211
 20
21.72852819672659
 30
0.0
 40
0.3000000000000114
100
AcDbArc
 50
38.10106384669026
 51
128.1010638466905
  0
ARC
  5
26E
330
1F
100
AcDbEntity
  8
0
  6
Continuous
 62
     7
370
    25
100
AcDbCircle
 10
23.73335489960943
 20
20.29704534812388
 30
0.0
 40
0.7500000000000007
100
AcDbArc
 50
358.9274058762902
 51
38.10106384669026
  0
ARC
  5
26F
330
1F
100
AcDbEntity
  8
0
  6
Continuous
 62
     7
370
    25
100
AcDbCircle
 10
23.66130729544953
 20
16.44885961301003
 30
0.0
 40
0.75
100
AcDbArc
 50
308.1010638466906
 51
358.9274058762902
  0
LINE
  5
270
330
1F
100
AcDbEntity
  8
0
  6
Continuous
 62
     7
370
    25
100
AcDbLine
 10
22.9976180572969
 20
21.96460526620661
 30
0.0
 11
22.60415627483019
 21
21.65608002293125
 31
0.0
  0
LINE
  5
271
330
1F
100
AcDbEntity
  8
0
  6
Continuous
 62
     7
370
    25
100
AcDbLine
 10
23.54222037005228
 20
21.75625862970512
 30
0.0
 11
23.41881027274213
 21
21.91364334269181
 31
0.0
  0
LINE
  5
272
330
1F
100
AcDbEntity
  8
0
  6
Continuous
 62
     7
370
    25
100
AcDbLine
 10
23.14875858758558
 20
21.44773338642976
 30
0.0
 11
23.54222037005228
 21
21.75625862970512
 31
0.0
  0
LINE
  5
273
330
1F
100
AcDbEntity
  8
0
  6
Continuous
 62
     7
370
    25
100
AcDbLine
 10
23.30302120922326
 20
21.2510024951964
 30
0.0
 11
23.14875858758558
 21
21.44773338642976
 31
0.0
  0
LINE
  5
274
330
1F
100
AcDbEntity
  8
0
  6
Continuous
 62
     7
370
    25
100
AcDbLine
 10
23.69648299168995
 20
21.55952773847177
 30
0.0
 11
23.30302120922326
 21
21.2510024951964
 31
0.0
  0
LINE
  5
275
330
1F
100
AcDbEntity
  8
0
  6
Continuous
 62
     7
370
    25
100
AcDbLine
 10
24.32354757330949
 20
20.75983321303692
 30
0.0
 11
23.69648299168995
 21
21.55952773847177
 31
0.0
  0
LINE
  5
276
330
1F
100
AcDbEntity
  8
0
  6
Continuous
 62
     7
370
    25
100
AcDbLine
 10
24.41117588075579
 20
16.43482020882902
 30
0.0
 11
24.48322348483703
 21
20.28300594388117
 31
0.0
  0
LINE
  5
277
330
1F
100
AcDbEntity
  8
0
  6
Continuous
 62
     7
370
    25
100
AcDbLine
 10
23.5775648670068
 20
15.43011606288727
 30
0.0
 11
24.12409516036258
 21
15.85866693930997
 31
0.0
  0
LINE
  5
278
330
1F
100
AcDbEntity
  8
0
  6
Continuous
 62
     7
370
    25
100
AcDbLine
 10
22.77779151733018
 20
15.43837539802649
 30
0.0
 11
23.35641419933446
 21
15.36836526058113
 31
0.0
  0
LINE
  5
279
330
1F
100
AcDbEntity
  8
0
  6
Continuous
 62
     7
370
    25
100
AcDbLine
 10
22.84780165463514
 20
16.01699808004775
 30
0.0
 11
22.77779151733018
 21
15.43837539802649
 31
0.0
  0
LINE
  5
27A
330
1F
100
AcDbEntity
  8
0
  6
Continuous
 62
     7
370
    25
100
AcDbLine
 10
23.30141040566044
 20
16.48434647640052
 30
0.0
 11
22.96051438045608
 21
16.21703962782068
 31
0.0
  0
LINE
  5
27B
330
1F
100
AcDbEntity
  8
0
  6
Continuous
 62
     7
370
    25
100
AcDbLine
 10
23.4737745103857
 20
19.78768048661606
 30
0.0
 11
23.41624269385814
 21
16.71480778418901
 31
0.0
  0
LINE
  5
27C
330
1F
100
AcDbEntity
  8
0
  6
Continuous
 62
     7
370
    25
100
AcDbLine
 10
22.55319435131538
 20
21.23488780748601
 30
0.0
 11
23.31409859891989
 21
20.26450775569314
 31
0.0
  0
ARC
  5
296
330
1F
100
AcDbEntity
  8
0
  6
Continuous
 62
     7
370
    25
100
AcDbCircle
 10
18.1061446862449
 20
15.71365280636332
 30
0.0
 40
0.3000000000000114
100
AcDbArc
 50
263.1010638466901
 51
308.1010638466906
  0
ARC
  5
297
330
1F
100
AcDbEntity
  8
0
  6
Continuous
 62
     7
370
    25
100
AcDbCircle
 10
17.8593244916246
 20
16.02842223233669
 30
0.0
 40
0.2999999999999944
100
AcDbArc
 50
128.1010638466904
 51
173.1010638466903
  0
ARC
  5
298
330
1F
100
AcDbEntity
  8
0
  6
Continuous
 62
     7
370
    25
100
AcDbCircle
 10
17.82999022489854
 20
16.76788321987658
 30
0.0
 40
0.3000000000000114
100
AcDbArc
 50
308.1010638466906
 51
358.9274058762902
  0
ARC
  5
299
330
1F
100
AcDbEntity
  8
0
  6
Continuous
 62
     7
370
    25
100
AcDbCircle
 10
17.43760089042315
 20
19.84917956477612
 30
0.0
 40
0.75
100
AcDbArc
 50
358.9274058762902
 51
38.10106384669026
  0
ARC
  5
29A
330
1F
100
AcDbEntity
  8
0
  6
Continuous
 62
     7
370
    25
100
AcDbCircle
 10
17.50296638599872
 20
21.46746262744727
 30
0.0
 40
0.3000000000000114
100
AcDbArc
 50
128.1010638466904
 51
218.1010638466903
  0
ARC
  5
29B
330
1F
100
AcDbEntity
  8
0
  6
Continuous
 62
     7
370
    25
100
AcDbCircle
 10
17.89642816846543
 20
21.77598787072263
 30
0.0
 40
0.3000000000000114
100
AcDbArc
 50
38.10106384669026
 51
128.1010638466904
  0
ARC
  5
29C
330
1F
100
AcDbEntity
  8
0
  6
Continuous
 62
     7
370
    25
100
AcDbCircle
 10
18.44704986481275
 20
20.34450502211992
 30
0.0
 40
0.7500000000000007
100
AcDbArc
 50
358.9274058762902
 51
38.10106384669026
  0
ARC
  5
29D
330
1F
100
AcDbEntity
  8
0
  6
Continuous
 62
     7
370
    25
100
AcDbCircle
 10
18.37500226065285
 20
16.49631928700607
 30
0.0
 40
0.75
100
AcDbArc
 50
308.1010638466906
 51
358.9274058762902
  0
LINE
  5
29E
330
1F
100
AcDbEntity
  8
0
  6
Continuous
 62
     7
370
    25
100
AcDbLine
 10
17.71131302250021
 20
22.01206494020265
 30
0.0
 11
17.3178512400335
 21
21.70353969692728
 31
0.0
  0
LINE
  5
29F
330
1F
100
AcDbEntity
  8
0
  6
Continuous
 62
     7
370
    25
100
AcDbLine
 10
18.2559153352556
 20
21.80371830370116
 30
0.0
 11
18.13250523794544
 21
21.96110301668785
 31
0.0
  0
LINE
  5
2A0
330
1F
100
AcDbEntity
  8
0
  6
Continuous
 62
     7
370
    25
100
AcDbLine
 10
17.86245355278889
 20
21.49519306042579
 30
0.0
 11
18.2559153352556
 21
21.80371830370116
 31
0.0
  0
LINE
  5
2A1
330
1F
100
AcDbEntity
  8
0
  6
Continuous
 62
     7
370
    25
100
AcDbLine
 10
18.01671617442657
 20
21.29846216919244
 30
0.0
 11
17.86245355278889
 21
21.49519306042579
 31
0.0
  0
LINE
  5
2A2
330
1F
100
AcDbEntity
  8
0
  6
Continuous
 62
     7
370
    25
100
AcDbLine
 10
18.41017795689328
 20
21.60698741246781
 30
0.0
 11
18.01671617442657
 21
21.29846216919244
 31
0.0
  0
LINE
  5
2A3
330
1F
100
AcDbEntity
  8
0
  6
Continuous
 62
     7
370
    25
100
AcDbLine
 10
19.03724253851281
 20
20.80729288703297
 30
0.0
 11
18.41017795689328
 21
21.60698741246781
 31
0.0
  0
LINE
  5
2A4
330
1F
100
AcDbEntity
  8
0
  6
Continuous
 62
     7
370
    25
100
AcDbLine
 10
19.12487084595911
 20
16.48227988282505
 30
0.0
 11
19.19691845004035
 21
20.3304656178772
 31
0.0
  0
LINE
  5
2A5
330
1F
100
AcDbEntity
  8
0
  6
Continuous
 62
     7
370
    25
100
AcDbLine
 10
18.29125983221011
 20
15.4775757368833
 30
0.0
 11
18.83779012556589
 21
15.90612661330601
 31
0.0
  0
LINE
  5
2A6
330
1F
100
AcDbEntity
  8
0
  6
Continuous
 62
     7
370
    25
100
AcDbLine
 10
17.49148648253349
 20
15.48583507202253
 30
0.0
 11
18.07010916453777
 21
15.41582493457717
 31
0.0
  0
LINE
  5
2A7
330
1F
100
AcDbEntity
  8
0
  6
Continuous
 62
     7
370
    25
100
AcDbLine
 10
17.56149661983846
 20
16.0644577540438
 30
0.0
 11
17.49148648253349
 21
15.48583507202253
 31
0.0
  0
LINE
  5
2A8
330
1F
100
AcDbEntity
  8
0
  6
Continuous
 62
     7
370
    25
100
AcDbLine
 10
18.01510537086375
 20
16.53180615039656
 30
0.0
 11
17.67420934565939
 21
16.26449930181671
 31
0.0
  0
LINE
  5
2A9
330
1F
100
AcDbEntity
  8
0
  6
Continuous
 62
     7
370
    25
100
AcDbLine
 10
18.18746947558902
 20
19.8351401606121
 30
0.0
 11
18.12993765906146
 21
16.76226745818506
 31
0.0
  0
LINE
  5
2AA
330
1F
100
AcDbEntity
  8
0
  6
Continuous
 62
     7
370
    25
100
AcDbLine
 10
17.2668893165187
 20
21.28234748148205
 30
0.0
 11
18.02779356412321
 21
20.31196742968917
 31
0.0
  0
ARC
  5
2C4
330
1F
100
AcDbEntity
  8
0
  6
Continuous
 62
     7
370
    25
100
AcDbCircle
 10
16.41709827802323
 20
15.67164656620724
 30
0.0
 40
0.3000000000000114
100
AcDbArc
 50
263.1010638466901
 51
308.1010638466904
  0
ARC
  5
2C5
330
1F
100
AcDbEntity
  8
0
  6
Continuous
 62
     7
370
    25
100
AcDbCircle
 10
16.17027808340294
 20
15.98641599218061
 30
0.0
 40
0.2999999999999944
100
AcDbArc
 50
128.1010638466904
 51
173.1010638466903
  0
ARC
  5
2C6
330
1F
100
AcDbEntity
  8
0
  6
Continuous
 62
     7
370
    25
100
AcDbCircle
 10
16.14094381667687
 20
16.72587697972049
 30
0.0
 40
0.3000000000000114
100
AcDbArc
 50
308.1010638466904
 51
358.9274058762902
  0
ARC
  5
2C7
330
1F
100
AcDbEntity
  8
0
  6
Continuous
 62
     7
370
    25
100
AcDbCircle
 10
15.74855448220148
 20
19.80717332462004
 30
0.0
 40
0.75
100
AcDbArc
 50
358.9274058762902
 51
38.10106384669026
  0
ARC
  5
2C8
330
1F
100
AcDbEntity
  8
0
  6
Continuous
 62
     7
370
    25
100
AcDbCircle
 10
15.81391997777705
 20
21.42545638729118
 30
0.0
 40
0.3000000000000114
100
AcDbArc
 50
128.1010638466904
 51
218.1010638466903
  0
ARC
  5
2C9
330
1F
100
AcDbEntity
  8
0
  6
Continuous
 62
     7
370
    25
100
AcDbCircle
 10
16.20738176024376
 20
21.73398163056655
 30
0.0
 40
0.3000000000000114
100
AcDbArc
 50
38.10106384669026
 51
128.1010638466904
  0
ARC
  5
2CA
330
1F
100
AcDbEntity
  8
0
  6
Continuous
 62
     7
370
    25
100
AcDbCircle
 10
16.75800345659108
 20
20.30249878196383
 30
0.0
 40
0.7500000000000007
100
AcDbArc
 50
358.9274058762902
 51
38.10106384669026
  0
ARC
  5
2CB
330
1F
100
AcDbEntity
  8
0
  6
Continuous
 62
     7
370
    25
100
AcDbCircle
 10
16.68595585243118
 20
16.45431304684999
 30
0.0
 40
0.75
100
AcDbArc
 50
308.1010638466904
 51
358.9274058762902
  0
LINE
  5
2CC
330
1F
100
AcDbEntity
  8
0
  6
Continuous
 62
     7
370
    25
100
AcDbLine
 10
16.02226661427855
 20
21.97005870004657
 30
0.0
 11
15.62880483181184
 21
21.6615334567712
 31
0.0
  0
LINE
  5
2CD
330
1F
100
AcDbEntity
  8
0
  6
Continuous
 62
     7
370
    25
100
AcDbLine
 10
16.56686892703393
 20
21.76171206354508
 30
0.0
 11
16.44345882972378
 21
21.91909677653176
 31
0.0
  0
LINE
  5
2CE
330
1F
100
AcDbEntity
  8
0
  6
Continuous
 62
     7
370
    25
100
AcDbLine
 10
16.17340714456722
 20
21.45318682026971
 30
0.0
 11
16.56686892703393
 21
21.76171206354508
 31
0.0
  0
LINE
  5
2CF
330
1F
100
AcDbEntity
  8
0
  6
Continuous
 62
     7
370
    25
100
AcDbLine
 10
16.3276697662049
 20
21.25645592903635
 30
0.0
 11
16.17340714456722
 21
21.45318682026971
 31
0.0
  0
LINE
  5
2D0
330
1F
100
AcDbEntity
  8
0
  6
Continuous
 62
     7
370
    25
100
AcDbLine
 10
16.72113154867161
 20
21.56498117231172
 30
0.0
 11
16.3276697662049
 21
21.25645592903635
 31
0.0
  0
LINE
  5
2D1
330
1F
100
AcDbEntity
  8
0
  6
Continuous
 62
     7
370
    25
100
AcDbLine
 10
17.34819613029114
 20
20.76528664687689
 30
0.0
 11
16.72113154867161
 21
21.56498117231172
 31
0.0
  0
LINE
  5
2D2
330
1F
100
AcDbEntity
  8
0
  6
Continuous
 62
     7
370
    25
100
AcDbLine
 10
17.43582443773744
 20
16.44027364266896
 30
0.0
 11
17.50787204181868
 21
20.28845937772112
 31
0.0
  0
LINE
  5
2D3
330
1F
100
AcDbEntity
  8
0
  6
Continuous
 62
     7
370
    25
100
AcDbLine
 10
16.60221342398845
 20
15.43556949672722
 30
0.0
 11
17.14874371734422
 21
15.86412037314992
 31
0.0
  0
LINE
  5
2D4
330
1F
100
AcDbEntity
  8
0
  6
Continuous
 62
     7
370
    25
100
AcDbLine
 10
15.80244007431183
 20
15.44382883186645
 30
0.0
 11
16.38106275631611
 21
15.37381869442109
 31
0.0
  0
LINE
  5
2D5
330
1F
100
AcDbEntity
  8
0
  6
Continuous
 62
     7
370
    25
100
AcDbLine
 10
15.87245021161678
 20
16.02245151388771
 30
0.0
 11
15.80244007431183
 21
15.44382883186645
 31
0.0
  0
LINE
  5
2D6
330
1F
100
AcDbEntity
  8
0
  6
Continuous
 62
     7
370
    25
100
AcDbLine
 10
16.32605896264209
 20
16.48979991024048
 30
0.0
 11
15.98516293743772
 21
16.22249306166063
 31
0.0
  0
LINE
  5
2D7
330
1F
100
AcDbEntity
  8
0
  6
Continuous
 62
     7
370
    25
100
AcDbLine
 10
16.49842306736735
 20
19.79313392045601
 30
0.0
 11
16.44089125083979
 21
16.72026121802897
 31
0.0
  0
LINE
  5
2D8
330
1F
100
AcDbEntity
  8
0
  6
Continuous
 62
     7
370
    25
100
AcDbLine
 10
15.57784290829703
 20
21.24034124132597
 30
0.0
 11
16.33874715590154
 21
20.26996118953309
 31
0.0
  0
ARC
  5
2F2
330
1F
100
AcDbEntity
  8
0
  6
Continuous
 62
     7
370
    25
100
AcDbCircle
 10
14.7633087892273
 20
15.66643668738937
 30
0.0
 40
0.3000000000000114
100
AcDbArc
 50
263.1010638466901
 51
308.1010638466904
  0
ARC
  5
2F3
330
1F
100
AcDbEntity
  8
0
  6
Continuous
 62
     7
370
    25
100
AcDbCircle
 10
14.51648859460701
 20
15.98120611336274
 30
0.0
 40
0.2999999999999944
100
AcDbArc
 50
128.1010638466904
 51
173.1010638466903
  0
ARC
  5
2F4
330
1F
100
AcDbEntity
  8
0
  6
Continuous
 62
     7
370
    25
100
AcDbCircle
 10
14.48715432788095
 20
16.72066710090262
 30
0.0
 40
0.3000000000000114
100
AcDbArc
 50
308.1010638466904
 51
358.9274058762902
  0
ARC
  5
2F5
330
1F
100
AcDbEntity
  8
0
  6
Continuous
 62
     7
370
    25
100
AcDbCircle
 10
14.09476499340555
 20
19.80196344580217
 30
0.0
 40
0.75
100
AcDbArc
 50
358.9274058762902
 51
38.10106384669026
  0
ARC
  5
2F6
330
1F
100
AcDbEntity
  8
0
  6
Continuous
 62
     7
370
    25
100
AcDbCircle
 10
14.16013048898112
 20
21.42024650847331
 30
0.0
 40
0.3000000000000114
100
AcDbArc
 50
128.1010638466904
 51
218.1010638466903
  0
ARC
  5
2F7
330
1F
100
AcDbEntity
  8
0
  6
Continuous
 62
     7
370
    25
100
AcDbCircle
 10
14.55359227144783
 20
21.72877175174868
 30
0.0
 40
0.3000000000000114
100
AcDbArc
 50
38.10106384669026
 51
128.1010638466904
  0
ARC
  5
2F8
330
1F
100
AcDbEntity
  8
0
  6
Continuous
 62
     7
370
    25
100
AcDbCircle
 10
15.10421396779515
 20
20.29728890314596
 30
0.0
 40
0.7500000000000007
100
AcDbArc
 50
358.9274058762902
 51
38.10106384669026
  0
ARC
  5
2F9
330
1F
100
AcDbEntity
  8
0
  6
Continuous
 62
     7
370
    25
100
AcDbCircle
 10
15.03216636363525
 20
16.44910316803211
 30
0.0
 40
0.75
100
AcDbArc
 50
308.1010638466904
 51
358.9274058762902
  0
LINE
  5
2FA
330
1F
100
AcDbEntity
  8
0
  6
Continuous
 62
     7
370
    25
100
AcDbLine
 10
14.36847712548262
 20
21.96484882122869
 30
0.0
 11
13.97501534301591
 21
21.65632357795333
 31
0.0
  0
LINE
  5
2FB
330
1F
100
AcDbEntity
  8
0
  6
Continuous
 62
     7
370
    25
100
AcDbLine
 10
14.913079438238
 20
21.75650218472721
 30
0.0
 11
14.78966934092785
 21
21.91388689771389
 31
0.0
  0
LINE
  5
2FC
330
1F
100
AcDbEntity
  8
0
  6
Continuous
 62
     7
370
    25
100
AcDbLine
 10
14.51961765577129
 20
21.44797694145184
 30
0.0
 11
14.913079438238
 21
21.75650218472721
 31
0.0
  0
LINE
  5
2FD
330
1F
100
AcDbEntity
  8
0
  6
Continuous
 62
     7
370
    25
100
AcDbLine
 10
14.67388027740898
 20
21.25124605021849
 30
0.0
 11
14.51961765577129
 21
21.44797694145184
 31
0.0
  0
LINE
  5
2FE
330
1F
100
AcDbEntity
  8
0
  6
Continuous
 62
     7
370
    25
100
AcDbLine
 10
15.06734205987568
 20
21.55977129349385
 30
0.0
 11
14.67388027740898
 21
21.25124605021849
 31
0.0
  0
LINE
  5
2FF
330
1F
100
AcDbEntity
  8
0
  6
Continuous
 62
     7
370
    25
100
AcDbLine
 10
15.69440664149521
 20
20.76007676805901
 30
0.0
 11
15.06734205987568
 21
21.55977129349385
 31
0.0
  0
LINE
  5
300
330
1F
100
AcDbEntity
  8
0
  6
Continuous
 62
     7
370
    25
100
AcDbLine
 10
15.78203494894151
 20
16.4350637638511
 30
0.0
 11
15.85408255302275
 21
20.28324949890325
 31
0.0
  0
LINE
  5
301
330
1F
100
AcDbEntity
  8
0
  6
Continuous
 62
     7
370
    25
100
AcDbLine
 10
14.94842393519252
 20
15.43035961790935
 30
0.0
 11
15.4949542285483
 21
15.85891049433205
 31
0.0
  0
LINE
  5
302
330
1F
100
AcDbEntity
  8
0
  6
Continuous
 62
     7
370
    25
100
AcDbLine
 10
14.1486505855159
 20
15.43861895304857
 30
0.0
 11
14.72727326752018
 21
15.36860881560322
 31
0.0
  0
LINE
  5
303
330
1F
100
AcDbEntity
  8
0
  6
Continuous
 62
     7
370
    25
100
AcDbLine
 10
14.21866072282086
 20
16.01724163506984
 30
0.0
 11
14.1486505855159
 21
15.43861895304857
 31
0.0
  0
LINE
  5
304
330
1F
100
AcDbEntity
  8
0
  6
Continuous
 62
     7
370
    25
100
AcDbLine
 10
14.67226947384616
 20
16.4845900314226
 30
0.0
 11
14.3313734486418
 21
16.21728318284276
 31
0.0
  0
LINE
  5
305
330
1F
100
AcDbEntity
  8
0
  6
Continuous
 62
     7
370
    25
100
AcDbLine
 10
14.84463357857142
 20
19.78792404163814
 30
0.0
 11
14.78710176204386
 21
16.7150513392111
 31
0.0
  0
LINE
  5
306
330
1F
100
AcDbEntity
  8
0
  6
Continuous
 62
     7
370
    25
100
AcDbLine
 10
13.9240534195011
 20
21.2351313625081
 30
0.0
 11
14.68495766710561
 21
20.26475131071522
 31
0.0
  0
ARC
  5
320
330
1F
100
AcDbEntity
  8
0
  6
Continuous
 62
     7
370
    25
100
AcDbCircle
 10
13.07148842049684
 20
15.68635920765966
 30
0.0
 40
0.3000000000000114
100
AcDbArc
 50
263.1010638466901
 51
308.1010638466904
  0
ARC
  5
321
330
1F
100
AcDbEntity
  8
0
  6
Continuous
 62
     7
370
    25
100
AcDbCircle
 10
12.82466822587655
 20
16.00112863363303
 30
0.0
 40
0.2999999999999944
100
AcDbArc
 50
128.1010638466904
 51
173.1010638466903
  0
ARC
  5
322
330
1F
100
AcDbEntity
  8
0
  6
Continuous
 62
     7
370
    25
100
AcDbCircle
 10
12.79533395915049
 20
16.74058962117291
 30
0.0
 40
0.3000000000000114
100
AcDbArc
 50
308.1010638466904
 51
358.9274058762902
  0
ARC
  5
323
330
1F
100
AcDbEntity
  8
0
  6
Continuous
 62
     7
370
    25
100
AcDbCircle
 10
12.40294462467509
 20
19.82188596607246
 30
0.0
 40
0.75
100
AcDbArc
 50
358.9274058762902
 51
38.10106384669026
  0
ARC
  5
324
330
1F
100
AcDbEntity
  8
0
  6
Continuous
 62
     7
370
    25
100
AcDbCircle
 10
12.46831012025066
 20
21.4401690287436
 30
0.0
 40
0.3000000000000114
100
AcDbArc
 50
128.1010638466904
 51
218.1010638466903
  0
ARC
  5
325
330
1F
100
AcDbEntity
  8
0
  6
Continuous
 62
     7
370
    25
100
AcDbCircle
 10
12.86177190271737
 20
21.74869427201897
 30
0.0
 40
0.3000000000000114
100
AcDbArc
 50
38.10106384669026
 51
128.1010638466904
  0
ARC
  5
326
330
1F
100
AcDbEntity
  8
0
  6
Continuous
 62
     7
370
    25
100
AcDbCircle
 10
13.41239359906469
 20
20.31721142341625
 30
0.0
 40
0.7500000000000007
100
AcDbArc
 50
358.9274058762902
 51
38.10106384669026
  0
ARC
  5
327
330
1F
100
AcDbEntity
  8
0
  6
Continuous
 62
     7
370
    25
100
AcDbCircle
 10
13.34034599490479
 20
16.4690256883024
 30
0.0
 40
0.75
100
AcDbArc
 50
308.1010638466904
 51
358.9274058762902
  0
LINE
  5
328
330
1F
100
AcDbEntity
  8
0
  6
Continuous
 62
     7
370
    25
100
AcDbLine
 10
12.67665675675216
 20
21.98477134149898
 30
0.0
 11
12.28319497428545
 21
21.67624609822361
 31
0.0
  0
LINE
  5
329
330
1F
100
AcDbEntity
  8
0
  6
Continuous
 62
     7
370
    25
100
AcDbLine
 10
13.22125906950754
 20
21.77642470499749
 30
0.0
 11
13.09784897219739
 21
21.93380941798418
 31
0.0
  0
LINE
  5
32A
330
1F
100
AcDbEntity
  8
0
  6
Continuous
 62
     7
370
    25
100
AcDbLine
 10
12.82779728704083
 20
21.46789946172213
 30
0.0
 11
13.22125906950754
 21
21.77642470499749
 31
0.0
  0
LINE
  5
32B
330
1F
100
AcDbEntity
  8
0
  6
Continuous
 62
     7
370
    25
100
AcDbLine
 10
12.98205990867852
 20
21.27116857048878
 30
0.0
 11
12.82779728704083
 21
21.46789946172213
 31
0.0
  0
LINE
  5
32C
330
1F
100
AcDbEntity
  8
0
  6
Continuous
 62
     7
370
    25
100
AcDbLine
 10
13.37552169114522
 20
21.57969381376414
 30
0.0
 11
12.98205990867852
 21
21.27116857048878
 31
0.0
  0
LINE
  5
32D
330
1F
100
AcDbEntity
  8
0
  6
Continuous
 62
     7
370
    25
100
AcDbLine
 10
14.00258627276475
 20
20.7799992883293
 30
0.0
 11
13.37552169114522
 21
21.57969381376414
 31
0.0
  0
LINE
  5
32E
330
1F
100
AcDbEntity
  8
0
  6
Continuous
 62
     7
370
    25
100
AcDbLine
 10
14.09021458021105
 20
16.45498628412138
 30
0.0
 11
14.16226218429229
 21
20.30317201917354
 31
0.0
  0
LINE
  5
32F
330
1F
100
AcDbEntity
  8
0
  6
Continuous
 62
     7
370
    25
100
AcDbLine
 10
13.25660356646206
 20
15.45028213817964
 30
0.0
 11
13.80313385981784
 21
15.87883301460234
 31
0.0
  0
LINE
  5
330
330
1F
100
AcDbEntity
  8
0
  6
Continuous
 62
     7
370
    25
100
AcDbLine
 10
12.45683021678544
 20
15.45854147331886
 30
0.0
 11
13.03545289878972
 21
15.38853133587351
 31
0.0
  0
LINE
  5
331
330
1F
100
AcDbEntity
  8
0
  6
Continuous
 62
     7
370
    25
100
AcDbLine
 10
12.5268403540904
 20
16.03716415534013
 30
0.0
 11
12.45683021678544
 21
15.45854147331886
 31
0.0
  0
LINE
  5
332
330
1F
100
AcDbEntity
  8
0
  6
Continuous
 62
     7
370
    25
100
AcDbLine
 10
12.9804491051157
 20
16.50451255169289
 30
0.0
 11
12.63955307991134
 21
16.23720570311305
 31
0.0
  0
LINE
  5
333
330
1F
100
AcDbEntity
  8
0
  6
Continuous
 62
     7
370
    25
100
AcDbLine
 10
13.15281320984096
 20
19.80784656190843
 30
0.0
 11
13.0952813933134
 21
16.73497385948139
 31
0.0
  0
LINE
  5
334
330
1F
100
AcDbEntity
  8
0
  6
Continuous
 62
     7
370
    25
100
AcDbLine
 10
12.23223305077064
 20
21.25505388277838
 30
0.0
 11
12.99313729837515
 21
20.2846738309855
 31
0.0
  0
ARC
  5
34E
330
1F
100
AcDbEntity
  8
0
  6
Continuous
 62
     7
370
    25
100
AcDbCircle
 10
11.36065165224951
 20
15.71884779040036
 30
0.0
 40
0.3000000000000114
100
AcDbArc
 50
263.1010638466901
 51
308.1010638466904
  0
ARC
  5
34F
330
1F
100
AcDbEntity
  8
0
  6
Continuous
 62
     7
370
    25
100
AcDbCircle
 10
11.11383145762922
 20
16.03361721637373
 30
0.0
 40
0.2999999999999944
100
AcDbArc
 50
128.1010638466904
 51
173.1010638466903
  0
ARC
  5
350
330
1F
100
AcDbEntity
  8
0
  6
Continuous
 62
     7
370
    25
100
AcDbCircle
 10
11.08449719090315
 20
16.77307820391361
 30
0.0
 40
0.3000000000000114
100
AcDbArc
 50
308.1010638466904
 51
358.9274058762902
  0
ARC
  5
351
330
1F
100
AcDbEntity
  8
0
  6
Continuous
 62
     7
370
    25
100
AcDbCircle
 10
10.69210785642776
 20
19.85437454881316
 30
0.0
 40
0.75
100
AcDbArc
 50
358.9274058762902
 51
38.10106384669026
  0
ARC
  5
352
330
1F
100
AcDbEntity
  8
0
  6
Continuous
 62
     7
370
    25
100
AcDbCircle
 10
10.75747335200333
 20
21.4726576114843
 30
0.0
 40
0.3000000000000114
100
AcDbArc
 50
128.1010638466904
 51
218.1010638466903
  0
ARC
  5
353
330
1F
100
AcDbEntity
  8
0
  6
Continuous
 62
     7
370
    25
100
AcDbCircle
 10
11.15093513447004
 20
21.78118285475966
 30
0.0
 40
0.3000000000000114
100
AcDbArc
 50
38.10106384669026
 51
128.1010638466904
  0
ARC
  5
354
330
1F
100
AcDbEntity
  8
0
  6
Continuous
 62
     7
370
    25
100
AcDbCircle
 10
11.70155683081736
 20
20.34970000615695
 30
0.0
 40
0.7500000000000007
100
AcDbArc
 50
358.9274058762902
 51
38.10106384669026
  0
ARC
  5
355
330
1F
100
AcDbEntity
  8
0
  6
Continuous
 62
     7
370
    25
100
AcDbCircle
 10
11.62950922665746
 20
16.5015142710431
 30
0.0
 40
0.75
100
AcDbArc
 50
308.1010638466904
 51
358.9274058762902
  0
LINE
  5
356
330
1F
100
AcDbEntity
  8
0
  6
Continuous
 62
     7
370
    25
100
AcDbLine
 10
10.96581998850482
 20
22.01725992423968
 30
0.0
 11
10.57235820603811
 21
21.70873468096432
 31
0.0
  0
LINE
  5
357
330
1F
100
AcDbEntity
  8
0
  6
Continuous
 62
     7
370
    25
100
AcDbLine
 10
11.51042230126021
 20
21.8089132877382
 30
0.0
 11
11.38701220395006
 21
21.96629800072487
 31
0.0
  0
LINE
  5
358
330
1F
100
AcDbEntity
  8
0
  6
Continuous
 62
     7
370
    25
100
AcDbLine
 10
11.1169605187935
 20
21.50038804446283
 30
0.0
 11
11.51042230126021
 21
21.8089132877382
 31
0.0
  0
LINE
  5
359
330
1F
100
AcDbEntity
  8
0
  6
Continuous
 62
     7
370
    25
100
AcDbLine
 10
11.27122314043118
 20
21.30365715322947
 30
0.0
 11
11.1169605187935
 21
21.50038804446283
 31
0.0
  0
LINE
  5
35A
330
1F
100
AcDbEntity
  8
0
  6
Continuous
 62
     7
370
    25
100
AcDbLine
 10
11.66468492289789
 20
21.61218239650484
 30
0.0
 11
11.27122314043118
 21
21.30365715322947
 31
0.0
  0
LINE
  5
35B
330
1F
100
AcDbEntity
  8
0
  6
Continuous
 62
     7
370
    25
100
AcDbLine
 10
12.29174950451742
 20
20.81248787107
 30
0.0
 11
11.66468492289789
 21
21.61218239650484
 31
0.0
  0
LINE
  5
35C
330
1F
100
AcDbEntity
  8
0
  6
Continuous
 62
     7
370
    25
100
AcDbLine
 10
12.37937781196372
 20
16.48747486686209
 30
0.0
 11
12.45142541604496
 21
20.33566060191423
 31
0.0
  0
LINE
  5
35D
330
1F
100
AcDbEntity
  8
0
  6
Continuous
 62
     7
370
    25
100
AcDbLine
 10
11.54576679821473
 20
15.48277072092034
 30
0.0
 11
12.0922970915705
 21
15.91132159734304
 31
0.0
  0
LINE
  5
35E
330
1F
100
AcDbEntity
  8
0
  6
Continuous
 62
     7
370
    25
100
AcDbLine
 10
10.74599344853811
 20
15.49103005605956
 30
0.0
 11
11.32461613054239
 21
15.42101991861421
 31
0.0
  0
LINE
  5
35F
330
1F
100
AcDbEntity
  8
0
  6
Continuous
 62
     7
370
    25
100
AcDbLine
 10
10.81600358584306
 20
16.06965273808083
 30
0.0
 11
10.74599344853811
 21
15.49103005605956
 31
0.0
  0
LINE
  5
360
330
1F
100
AcDbEntity
  8
0
  6
Continuous
 62
     7
370
    25
100
AcDbLine
 10
11.26961233686837
 20
16.53700113443359
 30
0.0
 11
10.928716311664
 21
16.26969428585375
 31
0.0
  0
LINE
  5
361
330
1F
100
AcDbEntity
  8
0
  6
Continuous
 62
     7
370
    25
100
AcDbLine
 10
11.44197644159363
 20
19.84033514464913
 30
0.0
 11
11.38444462506607
 21
16.76746244222209
 31
0.0
  0
LINE
  5
362
330
1F
100
AcDbEntity
  8
0
  6
Continuous
 62
     7
370
    25
100
AcDbLine
 10
10.52139628252331
 20
21.28754246551908
 30
0.0
 11
11.28230053012782
 21
20.3171624137262
 31
0.0
  0
ARC
  5
37C
330
1F
100
AcDbEntity
  8
0
  6
Continuous
 62
     7
370
    25
100
AcDbCircle
 10
9.625576244072922
 20
15.80559655092528
 30
0.0
 40
0.3000000000000114
100
AcDbArc
 50
263.1010638466901
 51
308.1010638466904
  0
ARC
  5
37D
330
1F
100
AcDbEntity
  8
0
  6
Continuous
 62
     7
370
    25
100
AcDbCircle
 10
9.378756049452629
 20
16.12036597689865
 30
0.0
 40
0.2999999999999944
100
AcDbArc
 50
128.1010638466904
 51
173.1010638466903
  0
ARC
  5
37E
330
1F
100
AcDbEntity
  8
0
  6
Continuous
 62
     7
370
    25
100
AcDbCircle
 10
9.349421782726567
 20
16.85982696443853
 30
0.0
 40
0.3000000000000114
100
AcDbArc
 50
308.1010638466904
 51
358.9274058762902
  0
ARC
  5
37F
330
1F
100
AcDbEntity
  8
0
  6
Continuous
 62
     7
370
    25
100
AcDbCircle
 10
8.957032448251167
 20
19.94112330933808
 30
0.0
 40
0.75
100
AcDbArc
 50
358.9274058762902
 51
38.10106384669026
  0
ARC
  5
380
330
1F
100
AcDbEntity
  8
0
  6
Continuous
 62
     7
370
    25
100
AcDbCircle
 10
9.022397943826744
 20
21.55940637200922
 30
0.0
 40
0.3000000000000114
100
AcDbArc
 50
128.1010638466904
 51
218.1010638466903
  0
ARC
  5
381
330
1F
100
AcDbEntity
  8
0
  6
Continuous
 62
     7
370
    25
100
AcDbCircle
 10
9.415859726293451
 20
21.86793161528458
 30
0.0
 40
0.3000000000000114
100
AcDbArc
 50
38.10106384669026
 51
128.1010638466904
  0
ARC
  5
382
330
1F
100
AcDbEntity
  8
0
  6
Continuous
 62
     7
370
    25
100
AcDbCircle
 10
9.96648142264077
 20
20.43644876668187
 30
0.0
 40
0.7500000000000007
100
AcDbArc
 50
358.9274058762902
 51
38.10106384669026
  0
ARC
  5
383
330
1F
100
AcDbEntity
  8
0
  6
Continuous
 62
     7
370
    25
100
AcDbCircle
 10
9.894433818480871
 20
16.58826303156802
 30
0.0
 40
0.75
100
AcDbArc
 50
308.1010638466904
 51
358.9274058762902
  0
LINE
  5
384
330
1F
100
AcDbEntity
  8
0
  6
Continuous
 62
     7
370
    25
100
AcDbLine
 10
9.230744580328236
 20
22.1040086847646
 30
0.0
 11
8.837282797861526
 21
21.79548344148924
 31
0.0
  0
LINE
  5
385
330
1F
100
AcDbEntity
  8
0
  6
Continuous
 62
     7
370
    25
100
AcDbLine
 10
9.775346893083618
 20
21.89566204826311
 30
0.0
 11
9.651936795773471
 21
22.0530467612498
 31
0.0
  0
LINE
  5
386
330
1F
100
AcDbEntity
  8
0
  6
Continuous
 62
     7
370
    25
100
AcDbLine
 10
9.381885110616911
 20
21.58713680498775
 30
0.0
 11
9.775346893083618
 21
21.89566204826311
 31
0.0
  0
LINE
  5
387
330
1F
100
AcDbEntity
  8
0
  6
Continuous
 62
     7
370
    25
100
AcDbLine
 10
9.536147732254596
 20
21.39040591375439
 30
0.0
 11
9.381885110616911
 21
21.58713680498775
 31
0.0
  0
LINE
  5
388
330
1F
100
AcDbEntity
  8
0
  6
Continuous
 62
     7
370
    25
100
AcDbLine
 10
9.929609514721297
 20
21.69893115702976
 30
0.0
 11
9.536147732254596
 21
21.39040591375439
 31
0.0
  0
LINE
  5
389
330
1F
100
AcDbEntity
  8
0
  6
Continuous
 62
     7
370
    25
100
AcDbLine
 10
10.55667409634083
 20
20.89923663159492
 30
0.0
 11
9.929609514721297
 21
21.69893115702976
 31
0.0
  0
LINE
  5
38A
330
1F
100
AcDbEntity
  8
0
  6
Continuous
 62
     7
370
    25
100
AcDbLine
 10
10.64430240378713
 20
16.574223627387
 30
0.0
 11
10.71635000786837
 21
20.42240936243915
 31
0.0
  0
LINE
  5
38B
330
1F
100
AcDbEntity
  8
0
  6
Continuous
 62
     7
370
    25
100
AcDbLine
 10
9.810691390038138
 20
15.56951948144526
 30
0.0
 11
10.35722168339392
 21
15.99807035786796
 31
0.0
  0
LINE
  5
38C
330
1F
100
AcDbEntity
  8
0
  6
Continuous
 62
     7
370
    25
100
AcDbLine
 10
9.010918040361518
 20
15.57777881658448
 30
0.0
 11
9.589540722365798
 21
15.50776867913913
 31
0.0
  0
LINE
  5
38D
330
1F
100
AcDbEntity
  8
0
  6
Continuous
 62
     7
370
    25
100
AcDbLine
 10
9.080928177666477
 20
16.15640149860575
 30
0.0
 11
9.010918040361518
 21
15.57777881658448
 31
0.0
  0
LINE
  5
38E
330
1F
100
AcDbEntity
  8
0
  6
Continuous
 62
     7
370
    25
100
AcDbLine
 10
9.53453692869178
 20
16.62374989495851
 30
0.0
 11
9.193640903487414
 21
16.35644304637867
 31
0.0
  0
LINE
  5
38F
330
1F
100
AcDbEntity
  8
0
  6
Continuous
 62
     7
370
    25
100
AcDbLine
 10
9.706901033417038
 20
19.92708390517405
 30
0.0
 11
9.64936921688948
 21
16.85421120274701
 31
0.0
  0
LINE
  5
390
330
1F
100
AcDbEntity
  8
0
  6
Continuous
 62
     7
370
    25
100
AcDbLine
 10
8.786320874346721
 20
21.374291226044
 30
0.0
 11
9.54722512195123
 21
20.40391117425112
 31
0.0
  0
ARC
  5
3AA
330
1F
100
AcDbEntity
  8
0
  6
Continuous
 62
     7
370
    25
100
AcDbCircle
 10
7.90184479599822
 20
15.9012384450335
 30
0.0
 40
0.3000000000000114
100
AcDbArc
 50
263.1010638466901
 51
308.1010638466904
  0
ARC
  5
3AB
330
1F
100
AcDbEntity
  8
0
  6
Continuous
 62
     7
370
    25
100
AcDbCircle
 10
7.655024601377929
 20
16.21600787100687
 30
0.0
 40
0.2999999999999944
100
AcDbArc
 50
128.1010638466904
 51
173.1010638466903
  0
ARC
  5
3AC
330
1F
100
AcDbEntity
  8
0
  6
Continuous
 62
     7
370
    25
100
AcDbCircle
 10
7.625690334651865
 20
16.95546885854676
 30
0.0
 40
0.3000000000000114
100
AcDbArc
 50
308.1010638466904
 51
358.9274058762902
  0
ARC
  5
3AD
330
1F
100
AcDbEntity
  8
0
  6
Continuous
 62
     7
370
    25
100
AcDbCircle
 10
7.233301000176467
 20
20.0367652034463
 30
0.0
 40
0.75
100
AcDbArc
 50
358.9274058762902
 51
38.10106384669026
  0
ARC
  5
3AE
330
1F
100
AcDbEntity
  8
0
  6
Continuous
 62
     7
370
    25
100
AcDbCircle
 10
7.298666495752044
 20
21.65504826611744
 30
0.0
 40
0.3000000000000114
100
AcDbArc
 50
128.1010638466904
 51
218.1010638466903
  0
ARC
  5
3AF
330
1F
100
AcDbEntity
  8
0
  6
Continuous
 62
     7
370
    25
100
AcDbCircle
 10
7.692128278218751
 20
21.96357350939281
 30
0.0
 40
0.3000000000000114
100
AcDbArc
 50
38.10106384669026
 51
128.1010638466904
  0
ARC
  5
3B0
330
1F
100
AcDbEntity
  8
0
  6
Continuous
 62
     7
370
    25
100
AcDbCircle
 10
8.242749974566068
 20
20.53209066079009
 30
0.0
 40
0.7500000000000007
100
AcDbArc
 50
358.9274058762902
 51
38.10106384669026
  0
ARC
  5
3B1
330
1F
100
AcDbEntity
  8
0
  6
Continuous
 62
     7
370
    25
100
AcDbCircle
 10
8.170702370406171
 20
16.68390492567624
 30
0.0
 40
0.75
100
AcDbArc
 50
308.1010638466904
 51
358.9274058762902
  0
LINE
  5
3B2
330
1F
100
AcDbEntity
  8
0
  6
Continuous
 62
     7
370
    25
100
AcDbLine
 10
7.507013132253536
 20
22.19965057887283
 30
0.0
 11
7.113551349786826
 21
21.89112533559746
 31
0.0
  0
LINE
  5
3B3
330
1F
100
AcDbEntity
  8
0
  6
Continuous
 62
     7
370
    25
100
AcDbLine
 10
8.051615445008918
 20
21.99130394237133
 30
0.0
 11
7.928205347698769
 21
22.14868865535802
 31
0.0
  0
LINE
  5
3B4
330
1F
100
AcDbEntity
  8
0
  6
Continuous
 62
     7
370
    25
100
AcDbLine
 10
7.658153662542211
 20
21.68277869909597
 30
0.0
 11
8.051615445008918
 21
21.99130394237133
 31
0.0
  0
LINE
  5
3B5
330
1F
100
AcDbEntity
  8
0
  6
Continuous
 62
     7
370
    25
100
AcDbLine
 10
7.812416284179894
 20
21.48604780786262
 30
0.0
 11
7.658153662542211
 21
21.68277869909597
 31
0.0
  0
LINE
  5
3B6
330
1F
100
AcDbEntity
  8
0
  6
Continuous
 62
     7
370
    25
100
AcDbLine
 10
8.205878066646597
 20
21.79457305113798
 30
0.0
 11
7.812416284179894
 21
21.48604780786262
 31
0.0
  0
LINE
  5
3B7
330
1F
100
AcDbEntity
  8
0
  6
Continuous
 62
     7
370
    25
100
AcDbLine
 10
8.832942648266131
 20
20.99487852570314
 30
0.0
 11
8.205878066646597
 21
21.79457305113798
 31
0.0
  0
LINE
  5
3B8
330
1F
100
AcDbEntity
  8
0
  6
Continuous
 62
     7
370
    25
100
AcDbLine
 10
8.920570955712433
 20
16.66986552149523
 30
0.0
 11
8.992618559793669
 21
20.51805125654738
 31
0.0
  0
LINE
  5
3B9
330
1F
100
AcDbEntity
  8
0
  6
Continuous
 62
     7
370
    25
100
AcDbLine
 10
8.086959941963439
 20
15.66516137555348
 30
0.0
 11
8.633490235319216
 21
16.09371225197618
 31
0.0
  0
LINE
  5
3BA
330
1F
100
AcDbEntity
  8
0
  6
Continuous
 62
     7
370
    25
100
AcDbLine
 10
7.287186592286818
 20
15.67342071069271
 30
0.0
 11
7.865809274291098
 21
15.60341057324735
 31
0.0
  0
LINE
  5
3BB
330
1F
100
AcDbEntity
  8
0
  6
Continuous
 62
     7
370
    25
100
AcDbLine
 10
7.357196729591775
 20
16.25204339271397
 30
0.0
 11
7.287186592286818
 21
15.67342071069271
 31
0.0
  0
LINE
  5
3BC
330
1F
100
AcDbEntity
  8
0
  6
Continuous
 62
     7
370
    25
100
AcDbLine
 10
7.81080548061708
 20
16.71939178906673
 30
0.0
 11
7.469909455412715
 21
16.45208494048689
 31
0.0
  0
LINE
  5
3BD
330
1F
100
AcDbEntity
  8
0
  6
Continuous
 62
     7
370
    25
100
AcDbLine
 10
7.983169585342338
 20
20.02272579928228
 30
0.0
 11
7.92563776881478
 21
16.94985309685523
 31
0.0
  0
LINE
  5
3BE
330
1F
100
AcDbEntity
  8
0
  6
Continuous
 62
     7
370
    25
100
AcDbLine
 10
7.062589426272021
 20
21.46993312015223
 30
0.0
 11
7.823493673876528
 21
20.49955306835935
 31
0.0
  0
ARC
  5
3D8
330
1F
100
AcDbEntity
  8
0
  6
Continuous
 62
     7
370
    25
100
AcDbCircle
 10
25.00692282222787
 20
15.77303880588731
 30
0.0
 40
0.3000000000000114
100
AcDbArc
 50
263.1010638466901
 51
308.1010638466906
  0
ARC
  5
3D9
330
1F
100
AcDbEntity
  8
0
  6
Continuous
 62
     7
370
    25
100
AcDbCircle
 10
24.76010262760758
 20
16.08780823186068
 30
0.0
 40
0.2999999999999944
100
AcDbArc
 50
128.1010638466905
 51
173.1010638466903
  0
ARC
  5
3DA
330
1F
100
AcDbEntity
  8
0
  6
Continuous
 62
     7
370
    25
100
AcDbCircle
 10
24.73076836088151
 20
16.82726921940056
 30
0.0
 40
0.3000000000000114
100
AcDbArc
 50
308.1010638466906
 51
358.9274058762902
  0
ARC
  5
3DB
330
1F
100
AcDbEntity
  8
0
  6
Continuous
 62
     7
370
    25
100
AcDbCircle
 10
24.33837902640612
 20
19.90856556430011
 30
0.0
 40
0.75
100
AcDbArc
 50
358.9274058762902
 51
38.10106384669026
  0
ARC
  5
3DC
330
1F
100
AcDbEntity
  8
0
  6
Continuous
 62
     7
370
    25
100
AcDbCircle
 10
24.40374452198169
 20
21.52684862697125
 30
0.0
 40
0.3000000000000114
100
AcDbArc
 50
128.1010638466905
 51
218.1010638466902
  0
ARC
  5
3DD
330
1F
100
AcDbEntity
  8
0
  6
Continuous
 62
     7
370
    25
100
AcDbCircle
 10
24.7972063044484
 20
21.83537387024661
 30
0.0
 40
0.3000000000000114
100
AcDbArc
 50
38.10106384669026
 51
128.1010638466905
  0
ARC
  5
3DE
330
1F
100
AcDbEntity
  8
0
  6
Continuous
 62
     7
370
    25
100
AcDbCircle
 10
25.34782800079572
 20
20.4038910216439
 30
0.0
 40
0.7500000000000007
100
AcDbArc
 50
358.9274058762902
 51
38.10106384669026
  0
ARC
  5
3DF
330
1F
100
AcDbEntity
  8
0
  6
Continuous
 62
     7
370
    25
100
AcDbCircle
 10
25.27578039663582
 20
16.55570528653005
 30
0.0
 40
0.75
100
AcDbArc
 50
308.1010638466906
 51
358.9274058762902
  0
LINE
  5
3E0
330
1F
100
AcDbEntity
  8
0
  6
Continuous
 62
     7
370
    25
100
AcDbLine
 10
24.61209115848318
 20
22.07145093972663
 30
0.0
 11
24.21862937601647
 21
21.76292569645127
 31
0.0
  0
LINE
  5
3E1
330
1F
100
AcDbEntity
  8
0
  6
Continuous
 62
     7
370
    25
100
AcDbLine
 10
25.15669347123857
 20
21.86310430322514
 30
0.0
 11
25.03328337392842
 21
22.02048901621183
 31
0.0
  0
LINE
  5
3E2
330
1F
100
AcDbEntity
  8
0
  6
Continuous
 62
     7
370
    25
100
AcDbLine
 10
24.76323168877186
 20
21.55457905994978
 30
0.0
 11
25.15669347123857
 21
21.86310430322514
 31
0.0
  0
LINE
  5
3E3
330
1F
100
AcDbEntity
  8
0
  6
Continuous
 62
     7
370
    25
100
AcDbLine
 10
24.91749431040954
 20
21.35784816871642
 30
0.0
 11
24.76323168877186
 21
21.55457905994978
 31
0.0
  0
LINE
  5
3E4
330
1F
100
AcDbEntity
  8
0
  6
Continuous
 62
     7
370
    25
100
AcDbLine
 10
25.31095609287625
 20
21.66637341199179
 30
0.0
 11
24.91749431040954
 21
21.35784816871642
 31
0.0
  0
LINE
  5
3E5
330
1F
100
AcDbEntity
  8
0
  6
Continuous
 62
     7
370
    25
100
AcDbLine
 10
25.93802067449578
 20
20.86667888655695
 30
0.0
 11
25.31095609287625
 21
21.66637341199179
 31
0.0
  0
LINE
  5
3E6
330
1F
100
AcDbEntity
  8
0
  6
Continuous
 62
     7
370
    25
100
AcDbLine
 10
26.02564898194208
 20
16.54166588234903
 30
0.0
 11
26.09769658602332
 21
20.38985161740118
 31
0.0
  0
LINE
  5
3E7
330
1F
100
AcDbEntity
  8
0
  6
Continuous
 62
     7
370
    25
100
AcDbLine
 10
25.19203796819309
 20
15.53696173640728
 30
0.0
 11
25.73856826154886
 21
15.96551261282999
 31
0.0
  0
LINE
  5
3E8
330
1F
100
AcDbEntity
  8
0
  6
Continuous
 62
     7
370
    25
100
AcDbLine
 10
24.39226461851646
 20
15.54522107154651
 30
0.0
 11
24.97088730052075
 21
15.47521093410115
 31
0.0
  0
LINE
  5
3E9
330
1F
100
AcDbEntity
  8
0
  6
Continuous
 62
     7
370
    25
100
AcDbLine
 10
24.46227475582143
 20
16.12384375356778
 30
0.0
 11
24.39226461851646
 21
15.54522107154651
 31
0.0
  0
LINE
  5
3EA
330
1F
100
AcDbEntity
  8
0
  6
Continuous
 62
     7
370
    25
100
AcDbLine
 10
24.91588350684672
 20
16.59119214992054
 30
0.0
 11
24.57498748164236
 21
16.32388530134069
 31
0.0
  0
LINE
  5
3EB
330
1F
100
AcDbEntity
  8
0
  6
Continuous
 62
     7
370
    25
100
AcDbLine
 10
25.08824761157199
 20
19.89452616013608
 30
0.0
 11
25.03071579504443
 21
16.82165345770904
 31
0.0
  0
LINE
  5
3EC
330
1F
100
AcDbEntity
  8
0
  6
Continuous
 62
     7
370
    25
100
AcDbLine
 10
24.16766745250167
 20
21.34173348100603
 30
0.0
 11
24.92857170010618
 21
20.37135342921315
 31
0.0
  0
ARC
  5
406
330
1F
100
AcDbEntity
  8
0
  6
Continuous
 62
     7
370
    25
100
AcDbCircle
 10
6.169871877393982
 20
15.84389520129286
 30
0.0
 40
0.3000000000000114
100
AcDbArc
 50
263.1010638466901
 51
308.1010638466904
  0
ARC
  5
407
330
1F
100
AcDbEntity
  8
0
  6
Continuous
 62
     7
370
    25
100
AcDbCircle
 10
5.923051682773689
 20
16.15866462726622
 30
0.0
 40
0.2999999999999944
100
AcDbArc
 50
128.1010638466904
 51
173.1010638466903
  0
ARC
  5
408
330
1F
100
AcDbEntity
  8
0
  6
Continuous
 62
     7
370
    25
100
AcDbCircle
 10
5.893717416047625
 20
16.89812561480611
 30
0.0
 40
0.3000000000000114
100
AcDbArc
 50
308.1010638466904
 51
358.9274058762902
  0
ARC
  5
409
330
1F
100
AcDbEntity
  8
0
  6
Continuous
 62
     7
370
    25
100
AcDbCircle
 10
5.501328081572227
 20
19.97942195970566
 30
0.0
 40
0.75
100
AcDbArc
 50
358.9274058762902
 51
38.10106384669026
  0
ARC
  5
40A
330
1F
100
AcDbEntity
  8
0
  6
Continuous
 62
     7
370
    25
100
AcDbCircle
 10
5.566693577147804
 20
21.5977050223768
 30
0.0
 40
0.3000000000000114
100
AcDbArc
 50
128.1010638466904
 51
218.1010638466903
  0
ARC
  5
40B
330
1F
100
AcDbEntity
  8
0
  6
Continuous
 62
     7
370
    25
100
AcDbCircle
 10
5.960155359614509
 20
21.90623026565216
 30
0.0
 40
0.3000000000000114
100
AcDbArc
 50
38.10106384669026
 51
128.1010638466904
  0
ARC
  5
40C
330
1F
100
AcDbEntity
  8
0
  6
Continuous
 62
     7
370
    25
100
AcDbCircle
 10
6.510777055961829
 20
20.47474741704945
 30
0.0
 40
0.7500000000000007
100
AcDbArc
 50
358.9274058762902
 51
38.10106384669026
  0
ARC
  5
40D
330
1F
100
AcDbEntity
  8
0
  6
Continuous
 62
     7
370
    25
100
AcDbCircle
 10
6.438729451801931
 20
16.6265616819356
 30
0.0
 40
0.75
100
AcDbArc
 50
308.1010638466904
 51
358.9274058762902
  0
LINE
  5
40E
330
1F
100
AcDbEntity
  8
0
  6
Continuous
 62
     7
370
    25
100
AcDbLine
 10
5.775040213649296
 20
22.14230733513218
 30
0.0
 11
5.381578431182585
 21
21.83378209185681
 31
0.0
  0
LINE
  5
40F
330
1F
100
AcDbEntity
  8
0
  6
Continuous
 62
     7
370
    25
100
AcDbLine
 10
6.319642526404678
 20
21.93396069863069
 30
0.0
 11
6.196232429094529
 21
22.09134541161738
 31
0.0
  0
LINE
  5
410
330
1F
100
AcDbEntity
  8
0
  6
Continuous
 62
     7
370
    25
100
AcDbLine
 10
5.926180743937971
 20
21.62543545535533
 30
0.0
 11
6.319642526404678
 21
21.93396069863069
 31
0.0
  0
LINE
  5
411
330
1F
100
AcDbEntity
  8
0
  6
Continuous
 62
     7
370
    25
100
AcDbLine
 10
6.080443365575654
 20
21.42870456412197
 30
0.0
 11
5.926180743937971
 21
21.62543545535533
 31
0.0
  0
LINE
  5
412
330
1F
100
AcDbEntity
  8
0
  6
Continuous
 62
     7
370
    25
100
AcDbLine
 10
6.473905148042357
 20
21.73722980739734
 30
0.0
 11
6.080443365575654
 21
21.42870456412197
 31
0.0
  0
LINE
  5
413
330
1F
100
AcDbEntity
  8
0
  6
Continuous
 62
     7
370
    25
100
AcDbLine
 10
7.10096972966189
 20
20.9375352819625
 30
0.0
 11
6.473905148042357
 21
21.73722980739734
 31
0.0
  0
LINE
  5
414
330
1F
100
AcDbEntity
  8
0
  6
Continuous
 62
     7
370
    25
100
AcDbLine
 10
7.188598037108192
 20
16.61252227775458
 30
0.0
 11
7.260645641189428
 21
20.46070801280674
 31
0.0
  0
LINE
  5
415
330
1F
100
AcDbEntity
  8
0
  6
Continuous
 62
     7
370
    25
100
AcDbLine
 10
6.354987023359198
 20
15.60781813181283
 30
0.0
 11
6.901517316714976
 21
16.03636900823554
 31
0.0
  0
LINE
  5
416
330
1F
100
AcDbEntity
  8
0
  6
Continuous
 62
     7
370
    25
100
AcDbLine
 10
5.555213673682578
 20
15.61607746695206
 30
0.0
 11
6.133836355686859
 21
15.5460673295067
 31
0.0
  0
LINE
  5
417
330
1F
100
AcDbEntity
  8
0
  6
Continuous
 62
     7
370
    25
100
AcDbLine
 10
5.625223810987534
 20
16.19470014897333
 30
0.0
 11
5.555213673682578
 21
15.61607746695206
 31
0.0
  0
LINE
  5
418
330
1F
100
AcDbEntity
  8
0
  6
Continuous
 62
     7
370
    25
100
AcDbLine
 10
6.078832562012839
 20
16.66204854532609
 30
0.0
 11
5.737936536808474
 21
16.39474169674625
 31
0.0
  0
LINE
  5
419
330
1F
100
AcDbEntity
  8
0
  6
Continuous
 62
     7
370
    25
100
AcDbLine
 10
6.251196666738097
 20
19.96538255554163
 30
0.0
 11
6.19366485021054
 21
16.89250985311459
 31
0.0
  0
LINE
  5
41A
330
1F
100
AcDbEntity
  8
0
  6
Continuous
 62
     7
370
    25
100
AcDbLine
 10
5.33061650766778
 20
21.41258987641158
 30
0.0
 11
6.091520755272288
 21
20.4422098246187
 31
0.0
  0
ARC
  5
51C
330
1F
100
AcDbEntity
  8
leg_release
  6
Continuous
370
    25
100
AcDbCircle
 10
19.86441458049834
 20
15.70236905193835
 30
0.0
 40
0.3000000000000114
100
AcDbArc
 50
263.1010638466901
 51
308.1010638466902
  0
ARC
  5
51D
330
1F
100
AcDbEntity
  8
leg_release
  6
Continuous
370
    25
100
AcDbCircle
 10
19.61759438587805
 20
16.01713847791172
 30
0.0
 40
0.2999999999999944
100
AcDbArc
 50
128.1010638466905
 51
173.1010638466903
  0
ARC
  5
51E
330
1F
100
AcDbEntity
  8
leg_release
  6
Continuous
370
    25
100
AcDbCircle
 10
19.58826011915198
 20
16.7565994654516
 30
0.0
 40
0.3000000000000114
100
AcDbArc
 50
308.1010638466902
 51
358.9274058762902
  0
ARC
  5
51F
330
1F
100
AcDbEntity
  8
leg_release
  6
Continuous
370
    25
100
AcDbCircle
 10
19.19587078467658
 20
19.83789581035114
 30
0.0
 40
0.75
100
AcDbArc
 50
358.9274058762902
 51
38.10106384669015
  0
ARC
  5
520
330
1F
100
AcDbEntity
  8
leg_release
  6
Continuous
370
    25
100
AcDbCircle
 10
19.26123628025216
 20
21.45617887302229
 30
0.0
 40
0.3000000000000114
100
AcDbArc
 50
128.1010638466905
 51
218.1010638466903
  0
ARC
  5
521
330
1F
100
AcDbEntity
  8
leg_release
  6
Continuous
370
    25
100
AcDbCircle
 10
19.65469806271887
 20
21.76470411629765
 30
0.0
 40
0.3000000000000114
100
AcDbArc
 50
38.10106384669015
 51
128.1010638466905
  0
ARC
  5
522
330
1F
100
AcDbEntity
  8
leg_release
  6
Continuous
370
    25
100
AcDbCircle
 10
20.20531975906619
 20
20.33322126769494
 30
0.0
 40
0.7500000000000007
100
AcDbArc
 50
358.9274058762902
 51
38.10106384669015
  0
ARC
  5
523
330
1F
100
AcDbEntity
  8
leg_release
  6
Continuous
370
    25
100
AcDbCircle
 10
20.1332721549063
 20
16.48503553258109
 30
0.0
 40
0.75
100
AcDbArc
 50
308.1010638466902
 51
358.9274058762902
  0
LINE
  5
524
330
1F
100
AcDbEntity
  8
leg_release
  6
Continuous
370
    25
100
AcDbLine
 10
19.46958291675366
 20
22.00078118577767
 30
0.0
 11
19.07612113428694
 21
21.69225594250231
 31
0.0
  0
LINE
  5
525
330
1F
100
AcDbEntity
  8
leg_release
  6
Continuous
370
    25
100
AcDbLine
 10
20.01418522950904
 20
21.79243454927618
 30
0.0
 11
19.89077513219889
 21
21.94981926226287
 31
0.0
  0
LINE
  5
526
330
1F
100
AcDbEntity
  8
leg_release
  6
Continuous
370
    25
100
AcDbLine
 10
19.62072344704233
 20
21.48390930600082
 30
0.0
 11
20.01418522950904
 21
21.79243454927618
 31
0.0
  0
LINE
  5
527
330
1F
100
AcDbEntity
  8
leg_release
  6
Continuous
370
    25
100
AcDbLine
 10
19.77498606868001
 20
21.28717841476746
 30
0.0
 11
19.62072344704233
 21
21.48390930600082
 31
0.0
  0
LINE
  5
528
330
1F
100
AcDbEntity
  8
leg_release
  6
Continuous
370
    25
100
AcDbLine
 10
20.16844785114672
 20
21.59570365804283
 30
0.0
 11
19.77498606868001
 21
21.28717841476746
 31
0.0
  0
LINE
  5
529
330
1F
100
AcDbEntity
  8
leg_release
  6
Continuous
370
    25
100
AcDbLine
 10
20.79551243276625
 20
20.79600913260799
 30
0.0
 11
20.16844785114672
 21
21.59570365804283
 31
0.0
  0
LINE
  5
52A
330
1F
100
AcDbEntity
  8
leg_release
  6
Continuous
370
    25
100
AcDbLine
 10
20.88314074021255
 20
16.47099612840008
 30
0.0
 11
20.95518834429379
 21
20.31918186345222
 31
0.0
  0
LINE
  5
52B
330
1F
100
AcDbEntity
  8
leg_release
  6
Continuous
370
    25
100
AcDbLine
 10
20.04952972646356
 20
15.46629198245832
 30
0.0
 11
20.59606001981933
 21
15.89484285888103
 31
0.0
  0
LINE
  5
52C
330
1F
100
AcDbEntity
  8
leg_release
  6
Continuous
370
    25
100
AcDbLine
 10
19.24975637678694
 20
15.47455131759755
 30
0.0
 11
19.82837905879122
 21
15.4045411801522
 31
0.0
  0
LINE
  5
52D
330
1F
100
AcDbEntity
  8
leg_release
  6
Continuous
370
    25
100
AcDbLine
 10
19.31976651409189
 20
16.05317399961882
 30
0.0
 11
19.24975637678694
 21
15.47455131759755
 31
0.0
  0
LINE
  5
52E
330
1F
100
AcDbEntity
  8
leg_release
  6
Continuous
370
    25
100
AcDbLine
 10
19.77337526511719
 20
16.52052239597158
 30
0.0
 11
19.43247923991284
 21
16.25321554739174
 31
0.0
  0
LINE
  5
52F
330
1F
100
AcDbEntity
  8
leg_release
  6
Continuous
370
    25
100
AcDbLine
 10
19.94573936984245
 20
19.82385640618712
 30
0.0
 11
19.8882075533149
 21
16.75098370376008
 31
0.0
  0
LINE
  5
530
330
1F
100
AcDbEntity
  8
leg_release
  6
Continuous
370
    25
100
AcDbLine
 10
19.02515921077213
 20
21.27106372705707
 30
0.0
 11
19.78606345837665
 21
20.30068367526419
 31
0.0
  0
ARC
  5
531
330
1F
100
AcDbEntity
  8
leg_release
  6
Continuous
370
    25
100
AcDbCircle
 10
21.59286147389008
 20
15.79542452832729
 30
0.0
 40
0.3000000000000114
100
AcDbArc
 50
263.1010638466901
 51
308.1010638466902
  0
ARC
  5
532
330
1F
100
AcDbEntity
  8
leg_release
  6
Continuous
370
    25
100
AcDbCircle
 10
21.34604127926979
 20
16.11019395430066
 30
0.0
 40
0.2999999999999944
100
AcDbArc
 50
128.1010638466905
 51
173.1010638466903
  0
ARC
  5
533
330
1F
100
AcDbEntity
  8
leg_release
  6
Continuous
370
    25
100
AcDbCircle
 10
21.31670701254372
 20
16.84965494184054
 30
0.0
 40
0.3000000000000114
100
AcDbArc
 50
308.1010638466902
 51
358.92740587629
  0
ARC
  5
534
330
1F
100
AcDbEntity
  8
leg_release
  6
Continuous
370
    25
100
AcDbCircle
 10
20.92431767806833
 20
19.93095128674008
 30
0.0
 40
0.75
100
AcDbArc
 50
358.92740587629
 51
38.10106384669008
  0
ARC
  5
535
330
1F
100
AcDbEntity
  8
leg_release
  6
Continuous
370
    25
100
AcDbCircle
 10
20.9896831736439
 20
21.54923434941123
 30
0.0
 40
0.3000000000000114
100
AcDbArc
 50
128.1010638466905
 51
218.1010638466903
  0
ARC
  5
536
330
1F
100
AcDbEntity
  8
leg_release
  6
Continuous
370
    25
100
AcDbCircle
 10
21.38314495611061
 20
21.85775959268659
 30
0.0
 40
0.3000000000000114
100
AcDbArc
 50
38.10106384669008
 51
128.1010638466905
  0
ARC
  5
537
330
1F
100
AcDbEntity
  8
leg_release
  6
Continuous
370
    25
100
AcDbCircle
 10
21.93376665245793
 20
20.42627674408388
 30
0.0
 40
0.7500000000000007
100
AcDbArc
 50
358.92740587629
 51
38.10106384669008
  0
ARC
  5
538
330
1F
100
AcDbEntity
  8
leg_release
  6
Continuous
370
    25
100
AcDbCircle
 10
21.86171904829803
 20
16.57809100897003
 30
0.0
 40
0.75
100
AcDbArc
 50
308.1010638466902
 51
358.92740587629
  0
LINE
  5
539
330
1F
100
AcDbEntity
  8
leg_release
  6
Continuous
370
    25
100
AcDbLine
 10
21.1980298101454
 20
22.09383666216661
 30
0.0
 11
20.80456802767868
 21
21.78531141889125
 31
0.0
  0
LINE
  5
53A
330
1F
100
AcDbEntity
  8
leg_release
  6
Continuous
370
    25
100
AcDbLine
 10
21.74263212290078
 20
21.88549002566512
 30
0.0
 11
21.61922202559063
 21
22.04287473865181
 31
0.0
  0
LINE
  5
53B
330
1F
100
AcDbEntity
  8
leg_release
  6
Continuous
370
    25
100
AcDbLine
 10
21.34917034043407
 20
21.57696478238976
 30
0.0
 11
21.74263212290078
 21
21.88549002566512
 31
0.0
  0
LINE
  5
53C
330
1F
100
AcDbEntity
  8
leg_release
  6
Continuous
370
    25
100
AcDbLine
 10
21.50343296207176
 20
21.38023389115641
 30
0.0
 11
21.34917034043407
 21
21.57696478238976
 31
0.0
  0
LINE
  5
53D
330
1F
100
AcDbEntity
  8
leg_release
  6
Continuous
370
    25
100
AcDbLine
 10
21.89689474453846
 20
21.68875913443177
 30
0.0
 11
21.50343296207176
 21
21.38023389115641
 31
0.0
  0
LINE
  5
53E
330
1F
100
AcDbEntity
  8
leg_release
  6
Continuous
370
    25
100
AcDbLine
 10
22.52395932615799
 20
20.88906460899693
 30
0.0
 11
21.89689474453846
 21
21.68875913443177
 31
0.0
  0
LINE
  5
53F
330
1F
100
AcDbEntity
  8
leg_release
  6
Continuous
370
    25
100
AcDbLine
 10
22.61158763360429
 20
16.56405160478901
 30
0.0
 11
22.68363523768553
 21
20.41223733984117
 31
0.0
  0
LINE
  5
540
330
1F
100
AcDbEntity
  8
leg_release
  6
Continuous
370
    25
100
AcDbLine
 10
21.7779766198553
 20
15.55934745884727
 30
0.0
 11
22.32450691321108
 21
15.98789833526997
 31
0.0
  0
LINE
  5
541
330
1F
100
AcDbEntity
  8
leg_release
  6
Continuous
370
    25
100
AcDbLine
 10
20.97820327017868
 20
15.56760679398649
 30
0.0
 11
21.55682595218296
 21
15.49759665654114
 31
0.0
  0
LINE
  5
542
330
1F
100
AcDbEntity
  8
leg_release
  6
Continuous
370
    25
100
AcDbLine
 10
21.04821340748364
 20
16.14622947600776
 30
0.0
 11
20.97820327017868
 21
15.56760679398649
 31
0.0
  0
LINE
  5
543
330
1F
100
AcDbEntity
  8
leg_release
  6
Continuous
370
    25
100
AcDbLine
 10
21.50182215850894
 20
16.61357787236052
 30
0.0
 11
21.16092613330458
 21
16.34627102378068
 31
0.0
  0
LINE
  5
544
330
1F
100
AcDbEntity
  8
leg_release
  6
Continuous
370
    25
100
AcDbLine
 10
21.6741862632342
 20
19.91691188257606
 30
0.0
 11
21.61665444670664
 21
16.84403918014902
 31
0.0
  0
LINE
  5
545
330
1F
100
AcDbEntity
  8
leg_release
  6
Continuous
370
    25
100
AcDbLine
 10
20.75360610416388
 20
21.36411920344601
 30
0.0
 11
21.51451035176838
 21
20.39373915165313
 31
0.0
  0
ARC
  5
546
330
1F
100
AcDbEntity
  8
leg_release
  6
Continuous
370
    25
100
AcDbCircle
 10
23.39244972104159
 20
15.66619313236729
 30
0.0
 40
0.3000000000000114
100
AcDbArc
 50
263.1010638466901
 51
308.1010638466902
  0
ARC
  5
547
330
1F
100
AcDbEntity
  8
leg_release
  6
Continuous
370
    25
100
AcDbCircle
 10
23.1456295264213
 20
15.98096255834066
 30
0.0
 40
0.2999999999999944
100
AcDbArc
 50
128.1010638466905
 51
173.1010638466903
  0
ARC
  5
548
330
1F
100
AcDbEntity
  8
leg_release
  6
Continuous
370
    25
100
AcDbCircle
 10
23.11629525969523
 20
16.72042354588054
 30
0.0
 40
0.3000000000000114
100
AcDbArc
 50
308.1010638466902
 51
358.9274058762902
  0
ARC
  5
549
330
1F
100
AcDbEntity
  8
leg_release
  6
Continuous
370
    25
100
AcDbCircle
 10
22.72390592521983
 20
19.80171989078008
 30
0.0
 40
0.75
100
AcDbArc
 50
358.9274058762902
 51
38.10106384669015
  0
ARC
  5
54A
330
1F
100
AcDbEntity
  8
leg_release
  6
Continuous
370
    25
100
AcDbCircle
 10
22.78927142079541
 20
21.42000295345123
 30
0.0
 40
0.3000000000000114
100
AcDbArc
 50
128.1010638466905
 51
218.1010638466903
  0
ARC
  5
54B
330
1F
100
AcDbEntity
  8
leg_release
  6
Continuous
370
    25
100
AcDbCircle
 10
23.18273320326212
 20
21.72852819672659
 30
0.0
 40
0.3000000000000114
100
AcDbArc
 50
38.10106384669015
 51
128.1010638466905
  0
ARC
  5
54C
330
1F
100
AcDbEntity
  8
leg_release
  6
Continuous
370
    25
100
AcDbCircle
 10
23.73335489960944
 20
20.29704534812388
 30
0.0
 40
0.7500000000000007
100
AcDbArc
 50
358.9274058762902
 51
38.10106384669015
  0
ARC
  5
54D
330
1F
100
AcDbEntity
  8
leg_release
  6
Continuous
370
    25
100
AcDbCircle
 10
23.66130729544954
 20
16.44885961301003
 30
0.0
 40
0.75
100
AcDbArc
 50
308.1010638466902
 51
358.9274058762902
  0
LINE
  5
54E
330
1F
100
AcDbEntity
  8
leg_release
  6
Continuous
370
    25
100
AcDbLine
 10
22.99761805729691
 20
21.96460526620661
 30
0.0
 11
22.6041562748302
 21
21.65608002293125
 31
0.0
  0
LINE
  5
54F
330
1F
100
AcDbEntity
  8
leg_release
  6
Continuous
370
    25
100
AcDbLine
 10
23.54222037005229
 20
21.75625862970512
 30
0.0
 11
23.41881027274214
 21
21.91364334269181
 31
0.0
  0
LINE
  5
550
330
1F
100
AcDbEntity
  8
leg_release
  6
Continuous
370
    25
100
AcDbLine
 10
23.14875858758558
 20
21.44773338642976
 30
0.0
 11
23.54222037005229
 21
21.75625862970512
 31
0.0
  0
LINE
  5
551
330
1F
100
AcDbEntity
  8
leg_release
  6
Continuous
370
    25
100
AcDbLine
 10
23.30302120922326
 20
21.2510024951964
 30
0.0
 11
23.14875858758558
 21
21.44773338642976
 31
0.0
  0
LINE
  5
552
330
1F
100
AcDbEntity
  8
leg_release
  6
Continuous
370
    25
100
AcDbLine
 10
23.69648299168996
 20
21.55952773847177
 30
0.0
 11
23.30302120922326
 21
21.2510024951964
 31
0.0
  0
LINE
  5
553
330
1F
100
AcDbEntity
  8
leg_release
  6
Continuous
370
    25
100
AcDbLine
 10
24.3235475733095
 20
20.75983321303692
 30
0.0
 11
23.69648299168996
 21
21.55952773847177
 31
0.0
  0
LINE
  5
554
330
1F
100
AcDbEntity
  8
leg_release
  6
Continuous
370
    25
100
AcDbLine
 10
24.4111758807558
 20
16.43482020882902
 30
0.0
 11
24.48322348483703
 21
20.28300594388117
 31
0.0
  0
LINE
  5
555
330
1F
100
AcDbEntity
  8
leg_release
  6
Continuous
370
    25
100
AcDbLine
 10
23.57756486700681
 20
15.43011606288727
 30
0.0
 11
24.12409516036259
 21
15.85866693930997
 31
0.0
  0
LINE
  5
556
330
1F
100
AcDbEntity
  8
leg_release
  6
Continuous
370
    25
100
AcDbLine
 10
22.77779151733019
 20
15.43837539802649
 30
0.0
 11
23.35641419933446
 21
15.36836526058113
 31
0.0
  0
LINE
  5
557
330
1F
100
AcDbEntity
  8
leg_release
  6
Continuous
370
    25
100
AcDbLine
 10
22.84780165463514
 20
16.01699808004775
 30
0.0
 11
22.77779151733019
 21
15.43837539802649
 31
0.0
  0
LINE
  5
558
330
1F
100
AcDbEntity
  8
leg_release
  6
Continuous
370
    25
100
AcDbLine
 10
23.30141040566045
 20
16.48434647640052
 30
0.0
 11
22.96051438045608
 21
16.21703962782068
 31
0.0
  0
LINE
  5
559
330
1F
100
AcDbEntity
  8
leg_release
  6
Continuous
370
    25
100
AcDbLine
 10
23.47377451038571
 20
19.78768048661606
 30
0.0
 11
23.41624269385814
 21
16.71480778418901
 31
0.0
  0
LINE
  5
55A
330
1F
100
AcDbEntity
  8
leg_release
  6
Continuous
370
    25
100
AcDbLine
 10
22.55319435131539
 20
21.23488780748601
 30
0.0
 11
23.3140985989199
 21
20.26450775569314
 31
0.0
  0
ARC
  5
55B
330
1F
100
AcDbEntity
  8
leg_release
  6
Continuous
370
    25
100
AcDbCircle
 10
18.10614468624491
 20
15.71365280636332
 30
0.0
 40
0.3000000000000114
100
AcDbArc
 50
263.1010638466901
 51
308.1010638466902
  0
ARC
  5
55C
330
1F
100
AcDbEntity
  8
leg_release
  6
Continuous
370
    25
100
AcDbCircle
 10
17.85932449162461
 20
16.02842223233669
 30
0.0
 40
0.2999999999999944
100
AcDbArc
 50
128.1010638466905
 51
173.1010638466903
  0
ARC
  5
55D
330
1F
100
AcDbEntity
  8
leg_release
  6
Continuous
370
    25
100
AcDbCircle
 10
17.82999022489855
 20
16.76788321987658
 30
0.0
 40
0.3000000000000114
100
AcDbArc
 50
308.1010638466902
 51
358.9274058762902
  0
ARC
  5
55E
330
1F
100
AcDbEntity
  8
leg_release
  6
Continuous
370
    25
100
AcDbCircle
 10
17.43760089042315
 20
19.84917956477612
 30
0.0
 40
0.75
100
AcDbArc
 50
358.9274058762902
 51
38.10106384669015
  0
ARC
  5
55F
330
1F
100
AcDbEntity
  8
leg_release
  6
Continuous
370
    25
100
AcDbCircle
 10
17.50296638599873
 20
21.46746262744727
 30
0.0
 40
0.3000000000000114
100
AcDbArc
 50
128.1010638466905
 51
218.1010638466903
  0
ARC
  5
560
330
1F
100
AcDbEntity
  8
leg_release
  6
Continuous
370
    25
100
AcDbCircle
 10
17.89642816846543
 20
21.77598787072263
 30
0.0
 40
0.3000000000000114
100
AcDbArc
 50
38.10106384669015
 51
128.1010638466905
  0
ARC
  5
561
330
1F
100
AcDbEntity
  8
leg_release
  6
Continuous
370
    25
100
AcDbCircle
 10
18.44704986481275
 20
20.34450502211992
 30
0.0
 40
0.7500000000000007
100
AcDbArc
 50
358.9274058762902
 51
38.10106384669015
  0
ARC
  5
562
330
1F
100
AcDbEntity
  8
leg_release
  6
Continuous
370
    25
100
AcDbCircle
 10
18.37500226065285
 20
16.49631928700607
 30
0.0
 40
0.75
100
AcDbArc
 50
308.1010638466902
 51
358.9274058762902
  0
LINE
  5
563
330
1F
100
AcDbEntity
  8
leg_release
  6
Continuous
370
    25
100
AcDbLine
 10
17.71131302250022
 20
22.01206494020265
 30
0.0
 11
17.31785124003351
 21
21.70353969692728
 31
0.0
  0
LINE
  5
564
330
1F
100
AcDbEntity
  8
leg_release
  6
Continuous
370
    25
100
AcDbLine
 10
18.2559153352556
 20
21.80371830370116
 30
0.0
 11
18.13250523794545
 21
21.96110301668785
 31
0.0
  0
LINE
  5
565
330
1F
100
AcDbEntity
  8
leg_release
  6
Continuous
370
    25
100
AcDbLine
 10
17.8624535527889
 20
21.49519306042579
 30
0.0
 11
18.2559153352556
 21
21.80371830370116
 31
0.0
  0
LINE
  5
566
330
1F
100
AcDbEntity
  8
leg_release
  6
Continuous
370
    25
100
AcDbLine
 10
18.01671617442657
 20
21.29846216919244
 30
0.0
 11
17.8624535527889
 21
21.49519306042579
 31
0.0
  0
LINE
  5
567
330
1F
100
AcDbEntity
  8
leg_release
  6
Continuous
370
    25
100
AcDbLine
 10
18.41017795689328
 20
21.60698741246781
 30
0.0
 11
18.01671617442657
 21
21.29846216919244
 31
0.0
  0
LINE
  5
568
330
1F
100
AcDbEntity
  8
leg_release
  6
Continuous
370
    25
100
AcDbLine
 10
19.03724253851282
 20
20.80729288703297
 30
0.0
 11
18.41017795689328
 21
21.60698741246781
 31
0.0
  0
LINE
  5
569
330
1F
100
AcDbEntity
  8
leg_release
  6
Continuous
370
    25
100
AcDbLine
 10
19.12487084595911
 20
16.48227988282505
 30
0.0
 11
19.19691845004036
 21
20.3304656178772
 31
0.0
  0
LINE
  5
56A
330
1F
100
AcDbEntity
  8
leg_release
  6
Continuous
370
    25
100
AcDbLine
 10
18.29125983221012
 20
15.4775757368833
 30
0.0
 11
18.8377901255659
 21
15.90612661330601
 31
0.0
  0
LINE
  5
56B
330
1F
100
AcDbEntity
  8
leg_release
  6
Continuous
370
    25
100
AcDbLine
 10
17.4914864825335
 20
15.48583507202253
 30
0.0
 11
18.07010916453778
 21
15.41582493457717
 31
0.0
  0
LINE
  5
56C
330
1F
100
AcDbEntity
  8
leg_release
  6
Continuous
370
    25
100
AcDbLine
 10
17.56149661983846
 20
16.0644577540438
 30
0.0
 11
17.4914864825335
 21
15.48583507202253
 31
0.0
  0
LINE
  5
56D
330
1F
100
AcDbEntity
  8
leg_release
  6
Continuous
370
    25
100
AcDbLine
 10
18.01510537086376
 20
16.53180615039656
 30
0.0
 11
17.6742093456594
 21
16.26449930181671
 31
0.0
  0
LINE
  5
56E
330
1F
100
AcDbEntity
  8
leg_release
  6
Continuous
370
    25
100
AcDbLine
 10
18.18746947558902
 20
19.8351401606121
 30
0.0
 11
18.12993765906147
 21
16.76226745818506
 31
0.0
  0
LINE
  5
56F
330
1F
100
AcDbEntity
  8
leg_release
  6
Continuous
370
    25
100
AcDbLine
 10
17.2668893165187
 20
21.28234748148205
 30
0.0
 11
18.02779356412321
 21
20.31196742968917
 31
0.0
  0
ARC
  5
570
330
1F
100
AcDbEntity
  8
leg_release
  6
Continuous
370
    25
100
AcDbCircle
 10
16.41709827802324
 20
15.67164656620724
 30
0.0
 40
0.3000000000000114
100
AcDbArc
 50
263.1010638466901
 51
308.1010638466902
  0
ARC
  5
571
330
1F
100
AcDbEntity
  8
leg_release
  6
Continuous
370
    25
100
AcDbCircle
 10
16.17027808340295
 20
15.98641599218061
 30
0.0
 40
0.2999999999999944
100
AcDbArc
 50
128.1010638466905
 51
173.1010638466903
  0
ARC
  5
572
330
1F
100
AcDbEntity
  8
leg_release
  6
Continuous
370
    25
100
AcDbCircle
 10
16.14094381667688
 20
16.72587697972049
 30
0.0
 40
0.3000000000000114
100
AcDbArc
 50
308.1010638466902
 51
358.9274058762902
  0
ARC
  5
573
330
1F
100
AcDbEntity
  8
leg_release
  6
Continuous
370
    25
100
AcDbCircle
 10
15.74855448220148
 20
19.80717332462004
 30
0.0
 40
0.75
100
AcDbArc
 50
358.9274058762902
 51
38.10106384669015
  0
ARC
  5
574
330
1F
100
AcDbEntity
  8
leg_release
  6
Continuous
370
    25
100
AcDbCircle
 10
15.81391997777706
 20
21.42545638729118
 30
0.0
 40
0.3000000000000114
100
AcDbArc
 50
128.1010638466905
 51
218.1010638466903
  0
ARC
  5
575
330
1F
100
AcDbEntity
  8
leg_release
  6
Continuous
370
    25
100
AcDbCircle
 10
16.20738176024377
 20
21.73398163056655
 30
0.0
 40
0.3000000000000114
100
AcDbArc
 50
38.10106384669015
 51
128.1010638466905
  0
ARC
  5
576
330
1F
100
AcDbEntity
  8
leg_release
  6
Continuous
370
    25
100
AcDbCircle
 10
16.75800345659109
 20
20.30249878196383
 30
0.0
 40
0.7500000000000007
100
AcDbArc
 50
358.9274058762902
 51
38.10106384669015
  0
ARC
  5
577
330
1F
100
AcDbEntity
  8
leg_release
  6
Continuous
370
    25
100
AcDbCircle
 10
16.68595585243119
 20
16.45431304684999
 30
0.0
 40
0.75
100
AcDbArc
 50
308.1010638466902
 51
358.9274058762902
  0
LINE
  5
578
330
1F
100
AcDbEntity
  8
leg_release
  6
Continuous
370
    25
100
AcDbLine
 10
16.02226661427855
 20
21.97005870004657
 30
0.0
 11
15.62880483181184
 21
21.6615334567712
 31
0.0
  0
LINE
  5
579
330
1F
100
AcDbEntity
  8
leg_release
  6
Continuous
370
    25
100
AcDbLine
 10
16.56686892703393
 20
21.76171206354508
 30
0.0
 11
16.44345882972379
 21
21.91909677653176
 31
0.0
  0
LINE
  5
57A
330
1F
100
AcDbEntity
  8
leg_release
  6
Continuous
370
    25
100
AcDbLine
 10
16.17340714456723
 20
21.45318682026971
 30
0.0
 11
16.56686892703393
 21
21.76171206354508
 31
0.0
  0
LINE
  5
57B
330
1F
100
AcDbEntity
  8
leg_release
  6
Continuous
370
    25
100
AcDbLine
 10
16.32766976620491
 20
21.25645592903635
 30
0.0
 11
16.17340714456723
 21
21.45318682026971
 31
0.0
  0
LINE
  5
57C
330
1F
100
AcDbEntity
  8
leg_release
  6
Continuous
370
    25
100
AcDbLine
 10
16.72113154867161
 20
21.56498117231172
 30
0.0
 11
16.32766976620491
 21
21.25645592903635
 31
0.0
  0
LINE
  5
57D
330
1F
100
AcDbEntity
  8
leg_release
  6
Continuous
370
    25
100
AcDbLine
 10
17.34819613029115
 20
20.76528664687689
 30
0.0
 11
16.72113154867161
 21
21.56498117231172
 31
0.0
  0
LINE
  5
57E
330
1F
100
AcDbEntity
  8
leg_release
  6
Continuous
370
    25
100
AcDbLine
 10
17.43582443773745
 20
16.44027364266896
 30
0.0
 11
17.50787204181868
 21
20.28845937772112
 31
0.0
  0
LINE
  5
57F
330
1F
100
AcDbEntity
  8
leg_release
  6
Continuous
370
    25
100
AcDbLine
 10
16.60221342398846
 20
15.43556949672722
 30
0.0
 11
17.14874371734423
 21
15.86412037314992
 31
0.0
  0
LINE
  5
580
330
1F
100
AcDbEntity
  8
leg_release
  6
Continuous
370
    25
100
AcDbLine
 10
15.80244007431184
 20
15.44382883186645
 30
0.0
 11
16.38106275631612
 21
15.37381869442109
 31
0.0
  0
LINE
  5
581
330
1F
100
AcDbEntity
  8
leg_release
  6
Continuous
370
    25
100
AcDbLine
 10
15.87245021161679
 20
16.02245151388771
 30
0.0
 11
15.80244007431184
 21
15.44382883186645
 31
0.0
  0
LINE
  5
582
330
1F
100
AcDbEntity
  8
leg_release
  6
Continuous
370
    25
100
AcDbLine
 10
16.3260589626421
 20
16.48979991024048
 30
0.0
 11
15.98516293743773
 21
16.22249306166063
 31
0.0
  0
LINE
  5
583
330
1F
100
AcDbEntity
  8
leg_release
  6
Continuous
370
    25
100
AcDbLine
 10
16.49842306736735
 20
19.79313392045601
 30
0.0
 11
16.44089125083979
 21
16.72026121802897
 31
0.0
  0
LINE
  5
584
330
1F
100
AcDbEntity
  8
leg_release
  6
Continuous
370
    25
100
AcDbLine
 10
15.57784290829703
 20
21.24034124132597
 30
0.0
 11
16.33874715590154
 21
20.26996118953309
 31
0.0
  0
ARC
  5
585
330
1F
100
AcDbEntity
  8
leg_release
  6
Continuous
370
    25
100
AcDbCircle
 10
14.76330878922731
 20
15.66643668738937
 30
0.0
 40
0.3000000000000114
100
AcDbArc
 50
263.1010638466901
 51
308.1010638466902
  0
ARC
  5
586
330
1F
100
AcDbEntity
  8
leg_release
  6
Continuous
370
    25
100
AcDbCircle
 10
14.51648859460702
 20
15.98120611336274
 30
0.0
 40
0.2999999999999944
100
AcDbArc
 50
128.1010638466905
 51
173.1010638466903
  0
ARC
  5
587
330
1F
100
AcDbEntity
  8
leg_release
  6
Continuous
370
    25
100
AcDbCircle
 10
14.48715432788095
 20
16.72066710090262
 30
0.0
 40
0.3000000000000114
100
AcDbArc
 50
308.1010638466902
 51
358.9274058762902
  0
ARC
  5
588
330
1F
100
AcDbEntity
  8
leg_release
  6
Continuous
370
    25
100
AcDbCircle
 10
14.09476499340555
 20
19.80196344580217
 30
0.0
 40
0.75
100
AcDbArc
 50
358.9274058762902
 51
38.10106384669015
  0
ARC
  5
589
330
1F
100
AcDbEntity
  8
leg_release
  6
Continuous
370
    25
100
AcDbCircle
 10
14.16013048898113
 20
21.42024650847331
 30
0.0
 40
0.3000000000000114
100
AcDbArc
 50
128.1010638466905
 51
218.1010638466903
  0
ARC
  5
58A
330
1F
100
AcDbEntity
  8
leg_release
  6
Continuous
370
    25
100
AcDbCircle
 10
14.55359227144784
 20
21.72877175174868
 30
0.0
 40
0.3000000000000114
100
AcDbArc
 50
38.10106384669015
 51
128.1010638466905
  0
ARC
  5
58B
330
1F
100
AcDbEntity
  8
leg_release
  6
Continuous
370
    25
100
AcDbCircle
 10
15.10421396779515
 20
20.29728890314596
 30
0.0
 40
0.7500000000000007
100
AcDbArc
 50
358.9274058762902
 51
38.10106384669015
  0
ARC
  5
58C
330
1F
100
AcDbEntity
  8
leg_release
  6
Continuous
370
    25
100
AcDbCircle
 10
15.03216636363526
 20
16.44910316803211
 30
0.0
 40
0.75
100
AcDbArc
 50
308.1010638466902
 51
358.9274058762902
  0
LINE
  5
58D
330
1F
100
AcDbEntity
  8
leg_release
  6
Continuous
370
    25
100
AcDbLine
 10
14.36847712548263
 20
21.96484882122869
 30
0.0
 11
13.97501534301592
 21
21.65632357795333
 31
0.0
  0
LINE
  5
58E
330
1F
100
AcDbEntity
  8
leg_release
  6
Continuous
370
    25
100
AcDbLine
 10
14.91307943823801
 20
21.75650218472721
 30
0.0
 11
14.78966934092786
 21
21.91388689771389
 31
0.0
  0
LINE
  5
58F
330
1F
100
AcDbEntity
  8
leg_release
  6
Continuous
370
    25
100
AcDbLine
 10
14.5196176557713
 20
21.44797694145184
 30
0.0
 11
14.91307943823801
 21
21.75650218472721
 31
0.0
  0
LINE
  5
590
330
1F
100
AcDbEntity
  8
leg_release
  6
Continuous
370
    25
100
AcDbLine
 10
14.67388027740898
 20
21.25124605021849
 30
0.0
 11
14.5196176557713
 21
21.44797694145184
 31
0.0
  0
LINE
  5
591
330
1F
100
AcDbEntity
  8
leg_release
  6
Continuous
370
    25
100
AcDbLine
 10
15.06734205987569
 20
21.55977129349385
 30
0.0
 11
14.67388027740898
 21
21.25124605021849
 31
0.0
  0
LINE
  5
592
330
1F
100
AcDbEntity
  8
leg_release
  6
Continuous
370
    25
100
AcDbLine
 10
15.69440664149522
 20
20.76007676805901
 30
0.0
 11
15.06734205987569
 21
21.55977129349385
 31
0.0
  0
LINE
  5
593
330
1F
100
AcDbEntity
  8
leg_release
  6
Continuous
370
    25
100
AcDbLine
 10
15.78203494894152
 20
16.4350637638511
 30
0.0
 11
15.85408255302275
 21
20.28324949890325
 31
0.0
  0
LINE
  5
594
330
1F
100
AcDbEntity
  8
leg_release
  6
Continuous
370
    25
100
AcDbLine
 10
14.94842393519253
 20
15.43035961790935
 30
0.0
 11
15.4949542285483
 21
15.85891049433205
 31
0.0
  0
LINE
  5
595
330
1F
100
AcDbEntity
  8
leg_release
  6
Continuous
370
    25
100
AcDbLine
 10
14.14865058551591
 20
15.43861895304857
 30
0.0
 11
14.72727326752019
 21
15.36860881560322
 31
0.0
  0
LINE
  5
596
330
1F
100
AcDbEntity
  8
leg_release
  6
Continuous
370
    25
100
AcDbLine
 10
14.21866072282086
 20
16.01724163506984
 30
0.0
 11
14.14865058551591
 21
15.43861895304857
 31
0.0
  0
LINE
  5
597
330
1F
100
AcDbEntity
  8
leg_release
  6
Continuous
370
    25
100
AcDbLine
 10
14.67226947384617
 20
16.4845900314226
 30
0.0
 11
14.3313734486418
 21
16.21728318284276
 31
0.0
  0
LINE
  5
598
330
1F
100
AcDbEntity
  8
leg_release
  6
Continuous
370
    25
100
AcDbLine
 10
14.84463357857142
 20
19.78792404163814
 30
0.0
 11
14.78710176204387
 21
16.7150513392111
 31
0.0
  0
LINE
  5
599
330
1F
100
AcDbEntity
  8
leg_release
  6
Continuous
370
    25
100
AcDbLine
 10
13.92405341950111
 20
21.2351313625081
 30
0.0
 11
14.68495766710561
 21
20.26475131071522
 31
0.0
  0
ARC
  5
59A
330
1F
100
AcDbEntity
  8
leg_release
  6
Continuous
370
    25
100
AcDbCircle
 10
13.07148842049685
 20
15.68635920765966
 30
0.0
 40
0.3000000000000114
100
AcDbArc
 50
263.1010638466901
 51
308.1010638466902
  0
ARC
  5
59B
330
1F
100
AcDbEntity
  8
leg_release
  6
Continuous
370
    25
100
AcDbCircle
 10
12.82466822587656
 20
16.00112863363303
 30
0.0
 40
0.2999999999999944
100
AcDbArc
 50
128.1010638466905
 51
173.1010638466903
  0
ARC
  5
59C
330
1F
100
AcDbEntity
  8
leg_release
  6
Continuous
370
    25
100
AcDbCircle
 10
12.79533395915049
 20
16.74058962117291
 30
0.0
 40
0.3000000000000114
100
AcDbArc
 50
308.1010638466902
 51
358.9274058762902
  0
ARC
  5
59D
330
1F
100
AcDbEntity
  8
leg_release
  6
Continuous
370
    25
100
AcDbCircle
 10
12.40294462467509
 20
19.82188596607246
 30
0.0
 40
0.75
100
AcDbArc
 50
358.9274058762902
 51
38.10106384669015
  0
ARC
  5
59E
330
1F
100
AcDbEntity
  8
leg_release
  6
Continuous
370
    25
100
AcDbCircle
 10
12.46831012025067
 20
21.4401690287436
 30
0.0
 40
0.3000000000000114
100
AcDbArc
 50
128.1010638466905
 51
218.1010638466903
  0
ARC
  5
59F
330
1F
100
AcDbEntity
  8
leg_release
  6
Continuous
370
    25
100
AcDbCircle
 10
12.86177190271738
 20
21.74869427201897
 30
0.0
 40
0.3000000000000114
100
AcDbArc
 50
38.10106384669015
 51
128.1010638466905
  0
ARC
  5
5A0
330
1F
100
AcDbEntity
  8
leg_release
  6
Continuous
370
    25
100
AcDbCircle
 10
13.4123935990647
 20
20.31721142341625
 30
0.0
 40
0.7500000000000007
100
AcDbArc
 50
358.9274058762902
 51
38.10106384669015
  0
ARC
  5
5A1
330
1F
100
AcDbEntity
  8
leg_release
  6
Continuous
370
    25
100
AcDbCircle
 10
13.3403459949048
 20
16.4690256883024
 30
0.0
 40
0.75
100
AcDbArc
 50
308.1010638466902
 51
358.9274058762902
  0
LINE
  5
5A2
330
1F
100
AcDbEntity
  8
leg_release
  6
Continuous
370
    25
100
AcDbLine
 10
12.67665675675216
 20
21.98477134149898
 30
0.0
 11
12.28319497428546
 21
21.67624609822361
 31
0.0
  0
LINE
  5
5A3
330
1F
100
AcDbEntity
  8
leg_release
  6
Continuous
370
    25
100
AcDbLine
 10
13.22125906950754
 20
21.77642470499749
 30
0.0
 11
13.0978489721974
 21
21.93380941798418
 31
0.0
  0
LINE
  5
5A4
330
1F
100
AcDbEntity
  8
leg_release
  6
Continuous
370
    25
100
AcDbLine
 10
12.82779728704084
 20
21.46789946172213
 30
0.0
 11
13.22125906950754
 21
21.77642470499749
 31
0.0
  0
LINE
  5
5A5
330
1F
100
AcDbEntity
  8
leg_release
  6
Continuous
370
    25
100
AcDbLine
 10
12.98205990867852
 20
21.27116857048878
 30
0.0
 11
12.82779728704084
 21
21.46789946172213
 31
0.0
  0
LINE
  5
5A6
330
1F
100
AcDbEntity
  8
leg_release
  6
Continuous
370
    25
100
AcDbLine
 10
13.37552169114522
 20
21.57969381376414
 30
0.0
 11
12.98205990867852
 21
21.27116857048878
 31
0.0
  0
LINE
  5
5A7
330
1F
100
AcDbEntity
  8
leg_release
  6
Continuous
370
    25
100
AcDbLine
 10
14.00258627276476
 20
20.7799992883293
 30
0.0
 11
13.37552169114522
 21
21.57969381376414
 31
0.0
  0
LINE
  5
5A8
330
1F
100
AcDbEntity
  8
leg_release
  6
Continuous
370
    25
100
AcDbLine
 10
14.09021458021106
 20
16.45498628412138
 30
0.0
 11
14.16226218429229
 21
20.30317201917354
 31
0.0
  0
LINE
  5
5A9
330
1F
100
AcDbEntity
  8
leg_release
  6
Continuous
370
    25
100
AcDbLine
 10
13.25660356646207
 20
15.45028213817964
 30
0.0
 11
13.80313385981784
 21
15.87883301460234
 31
0.0
  0
LINE
  5
5AA
330
1F
100
AcDbEntity
  8
leg_release
  6
Continuous
370
    25
100
AcDbLine
 10
12.45683021678545
 20
15.45854147331886
 30
0.0
 11
13.03545289878973
 21
15.38853133587351
 31
0.0
  0
LINE
  5
5AB
330
1F
100
AcDbEntity
  8
leg_release
  6
Continuous
370
    25
100
AcDbLine
 10
12.5268403540904
 20
16.03716415534013
 30
0.0
 11
12.45683021678545
 21
15.45854147331886
 31
0.0
  0
LINE
  5
5AC
330
1F
100
AcDbEntity
  8
leg_release
  6
Continuous
370
    25
100
AcDbLine
 10
12.9804491051157
 20
16.50451255169289
 30
0.0
 11
12.63955307991134
 21
16.23720570311305
 31
0.0
  0
LINE
  5
5AD
330
1F
100
AcDbEntity
  8
leg_release
  6
Continuous
370
    25
100
AcDbLine
 10
13.15281320984096
 20
19.80784656190843
 30
0.0
 11
13.0952813933134
 21
16.73497385948139
 31
0.0
  0
LINE
  5
5AE
330
1F
100
AcDbEntity
  8
leg_release
  6
Continuous
370
    25
100
AcDbLine
 10
12.23223305077065
 20
21.25505388277838
 30
0.0
 11
12.99313729837516
 21
20.2846738309855
 31
0.0
  0
ARC
  5
5AF
330
1F
100
AcDbEntity
  8
leg_release
  6
Continuous
370
    25
100
AcDbCircle
 10
11.36065165224951
 20
15.71884779040036
 30
0.0
 40
0.3000000000000114
100
AcDbArc
 50
263.1010638466901
 51
308.1010638466902
  0
ARC
  5
5B0
330
1F
100
AcDbEntity
  8
leg_release
  6
Continuous
370
    25
100
AcDbCircle
 10
11.11383145762922
 20
16.03361721637373
 30
0.0
 40
0.2999999999999944
100
AcDbArc
 50
128.1010638466905
 51
173.1010638466903
  0
ARC
  5
5B1
330
1F
100
AcDbEntity
  8
leg_release
  6
Continuous
370
    25
100
AcDbCircle
 10
11.08449719090315
 20
16.77307820391361
 30
0.0
 40
0.3000000000000114
100
AcDbArc
 50
308.1010638466902
 51
358.9274058762902
  0
ARC
  5
5B2
330
1F
100
AcDbEntity
  8
leg_release
  6
Continuous
370
    25
100
AcDbCircle
 10
10.69210785642776
 20
19.85437454881316
 30
0.0
 40
0.75
100
AcDbArc
 50
358.9274058762902
 51
38.10106384669015
  0
ARC
  5
5B3
330
1F
100
AcDbEntity
  8
leg_release
  6
Continuous
370
    25
100
AcDbCircle
 10
10.75747335200333
 20
21.4726576114843
 30
0.0
 40
0.3000000000000114
100
AcDbArc
 50
128.1010638466905
 51
218.1010638466903
  0
ARC
  5
5B4
330
1F
100
AcDbEntity
  8
leg_release
  6
Continuous
370
    25
100
AcDbCircle
 10
11.15093513447004
 20
21.78118285475966
 30
0.0
 40
0.3000000000000114
100
AcDbArc
 50
38.10106384669015
 51
128.1010638466905
  0
ARC
  5
5B5
330
1F
100
AcDbEntity
  8
leg_release
  6
Continuous
370
    25
100
AcDbCircle
 10
11.70155683081737
 20
20.34970000615695
 30
0.0
 40
0.7500000000000007
100
AcDbArc
 50
358.9274058762902
 51
38.10106384669015
  0
ARC
  5
5B6
330
1F
100
AcDbEntity
  8
leg_release
  6
Continuous
370
    25
100
AcDbCircle
 10
11.62950922665747
 20
16.5015142710431
 30
0.0
 40
0.75
100
AcDbArc
 50
308.1010638466902
 51
358.9274058762902
  0
LINE
  5
5B7
330
1F
100
AcDbEntity
  8
leg_release
  6
Continuous
370
    25
100
AcDbLine
 10
10.96581998850483
 20
22.01725992423968
 30
0.0
 11
10.57235820603812
 21
21.70873468096432
 31
0.0
  0
LINE
  5
5B8
330
1F
100
AcDbEntity
  8
leg_release
  6
Continuous
370
    25
100
AcDbLine
 10
11.51042230126021
 20
21.8089132877382
 30
0.0
 11
11.38701220395006
 21
21.96629800072487
 31
0.0
  0
LINE
  5
5B9
330
1F
100
AcDbEntity
  8
leg_release
  6
Continuous
370
    25
100
AcDbLine
 10
11.11696051879351
 20
21.50038804446283
 30
0.0
 11
11.51042230126021
 21
21.8089132877382
 31
0.0
  0
LINE
  5
5BA
330
1F
100
AcDbEntity
  8
leg_release
  6
Continuous
370
    25
100
AcDbLine
 10
11.27122314043119
 20
21.30365715322947
 30
0.0
 11
11.11696051879351
 21
21.50038804446283
 31
0.0
  0
LINE
  5
5BB
330
1F
100
AcDbEntity
  8
leg_release
  6
Continuous
370
    25
100
AcDbLine
 10
11.6646849228979
 20
21.61218239650484
 30
0.0
 11
11.27122314043119
 21
21.30365715322947
 31
0.0
  0
LINE
  5
5BC
330
1F
100
AcDbEntity
  8
leg_release
  6
Continuous
370
    25
100
AcDbLine
 10
12.29174950451742
 20
20.81248787107
 30
0.0
 11
11.6646849228979
 21
21.61218239650484
 31
0.0
  0
LINE
  5
5BD
330
1F
100
AcDbEntity
  8
leg_release
  6
Continuous
370
    25
100
AcDbLine
 10
12.37937781196373
 20
16.48747486686209
 30
0.0
 11
12.45142541604496
 21
20.33566060191423
 31
0.0
  0
LINE
  5
5BE
330
1F
100
AcDbEntity
  8
leg_release
  6
Continuous
370
    25
100
AcDbLine
 10
11.54576679821473
 20
15.48277072092034
 30
0.0
 11
12.09229709157051
 21
15.91132159734304
 31
0.0
  0
LINE
  5
5BF
330
1F
100
AcDbEntity
  8
leg_release
  6
Continuous
370
    25
100
AcDbLine
 10
10.74599344853811
 20
15.49103005605956
 30
0.0
 11
11.32461613054239
 21
15.42101991861421
 31
0.0
  0
LINE
  5
5C0
330
1F
100
AcDbEntity
  8
leg_release
  6
Continuous
370
    25
100
AcDbLine
 10
10.81600358584307
 20
16.06965273808083
 30
0.0
 11
10.74599344853811
 21
15.49103005605956
 31
0.0
  0
LINE
  5
5C1
330
1F
100
AcDbEntity
  8
leg_release
  6
Continuous
370
    25
100
AcDbLine
 10
11.26961233686837
 20
16.53700113443359
 30
0.0
 11
10.92871631166401
 21
16.26969428585375
 31
0.0
  0
LINE
  5
5C2
330
1F
100
AcDbEntity
  8
leg_release
  6
Continuous
370
    25
100
AcDbLine
 10
11.44197644159363
 20
19.84033514464913
 30
0.0
 11
11.38444462506607
 21
16.76746244222209
 31
0.0
  0
LINE
  5
5C3
330
1F
100
AcDbEntity
  8
leg_release
  6
Continuous
370
    25
100
AcDbLine
 10
10.52139628252332
 20
21.28754246551908
 30
0.0
 11
11.28230053012782
 21
20.3171624137262
 31
0.0
  0
ARC
  5
5C4
330
1F
100
AcDbEntity
  8
leg_release
  6
Continuous
370
    25
100
AcDbCircle
 10
9.625576244072924
 20
15.80559655092528
 30
0.0
 40
0.3000000000000114
100
AcDbArc
 50
263.1010638466901
 51
308.1010638466902
  0
ARC
  5
5C5
330
1F
100
AcDbEntity
  8
leg_release
  6
Continuous
370
    25
100
AcDbCircle
 10
9.378756049452633
 20
16.12036597689865
 30
0.0
 40
0.2999999999999944
100
AcDbArc
 50
128.1010638466905
 51
173.1010638466903
  0
ARC
  5
5C6
330
1F
100
AcDbEntity
  8
leg_release
  6
Continuous
370
    25
100
AcDbCircle
 10
9.349421782726572
 20
16.85982696443853
 30
0.0
 40
0.3000000000000114
100
AcDbArc
 50
308.1010638466902
 51
358.9274058762902
  0
ARC
  5
5C7
330
1F
100
AcDbEntity
  8
leg_release
  6
Continuous
370
    25
100
AcDbCircle
 10
8.957032448251176
 20
19.94112330933808
 30
0.0
 40
0.75
100
AcDbArc
 50
358.9274058762902
 51
38.10106384669015
  0
ARC
  5
5C8
330
1F
100
AcDbEntity
  8
leg_release
  6
Continuous
370
    25
100
AcDbCircle
 10
9.022397943826753
 20
21.55940637200922
 30
0.0
 40
0.3000000000000114
100
AcDbArc
 50
128.1010638466905
 51
218.1010638466903
  0
ARC
  5
5C9
330
1F
100
AcDbEntity
  8
leg_release
  6
Continuous
370
    25
100
AcDbCircle
 10
9.415859726293454
 20
21.86793161528458
 30
0.0
 40
0.3000000000000114
100
AcDbArc
 50
38.10106384669015
 51
128.1010638466905
  0
ARC
  5
5CA
330
1F
100
AcDbEntity
  8
leg_release
  6
Continuous
370
    25
100
AcDbCircle
 10
9.966481422640775
 20
20.43644876668187
 30
0.0
 40
0.7500000000000007
100
AcDbArc
 50
358.9274058762902
 51
38.10106384669015
  0
ARC
  5
5CB
330
1F
100
AcDbEntity
  8
leg_release
  6
Continuous
370
    25
100
AcDbCircle
 10
9.894433818480877
 20
16.58826303156802
 30
0.0
 40
0.75
100
AcDbArc
 50
308.1010638466902
 51
358.9274058762902
  0
LINE
  5
5CC
330
1F
100
AcDbEntity
  8
leg_release
  6
Continuous
370
    25
100
AcDbLine
 10
9.230744580328241
 20
22.1040086847646
 30
0.0
 11
8.837282797861533
 21
21.79548344148924
 31
0.0
  0
LINE
  5
5CD
330
1F
100
AcDbEntity
  8
leg_release
  6
Continuous
370
    25
100
AcDbLine
 10
9.775346893083622
 20
21.89566204826311
 30
0.0
 11
9.651936795773472
 21
22.0530467612498
 31
0.0
  0
LINE
  5
5CE
330
1F
100
AcDbEntity
  8
leg_release
  6
Continuous
370
    25
100
AcDbLine
 10
9.381885110616913
 20
21.58713680498775
 30
0.0
 11
9.775346893083622
 21
21.89566204826311
 31
0.0
  0
LINE
  5
5CF
330
1F
100
AcDbEntity
  8
leg_release
  6
Continuous
370
    25
100
AcDbLine
 10
9.536147732254597
 20
21.39040591375439
 30
0.0
 11
9.381885110616913
 21
21.58713680498775
 31
0.0
  0
LINE
  5
5D0
330
1F
100
AcDbEntity
  8
leg_release
  6
Continuous
370
    25
100
AcDbLine
 10
9.929609514721299
 20
21.69893115702976
 30
0.0
 11
9.536147732254597
 21
21.39040591375439
 31
0.0
  0
LINE
  5
5D1
330
1F
100
AcDbEntity
  8
leg_release
  6
Continuous
370
    25
100
AcDbLine
 10
10.55667409634083
 20
20.89923663159492
 30
0.0
 11
9.929609514721299
 21
21.69893115702976
 31
0.0
  0
LINE
  5
5D2
330
1F
100
AcDbEntity
  8
leg_release
  6
Continuous
370
    25
100
AcDbLine
 10
10.64430240378714
 20
16.574223627387
 30
0.0
 11
10.71635000786838
 21
20.42240936243915
 31
0.0
  0
LINE
  5
5D3
330
1F
100
AcDbEntity
  8
leg_release
  6
Continuous
370
    25
100
AcDbLine
 10
9.810691390038144
 20
15.56951948144526
 30
0.0
 11
10.35722168339392
 21
15.99807035786796
 31
0.0
  0
LINE
  5
5D4
330
1F
100
AcDbEntity
  8
leg_release
  6
Continuous
370
    25
100
AcDbLine
 10
9.010918040361524
 20
15.57777881658448
 30
0.0
 11
9.589540722365804
 21
15.50776867913913
 31
0.0
  0
LINE
  5
5D5
330
1F
100
AcDbEntity
  8
leg_release
  6
Continuous
370
    25
100
AcDbLine
 10
9.080928177666486
 20
16.15640149860575
 30
0.0
 11
9.010918040361524
 21
15.57777881658448
 31
0.0
  0
LINE
  5
5D6
330
1F
100
AcDbEntity
  8
leg_release
  6
Continuous
370
    25
100
AcDbLine
 10
9.534536928691785
 20
16.62374989495851
 30
0.0
 11
9.19364090348742
 21
16.35644304637867
 31
0.0
  0
LINE
  5
5D7
330
1F
100
AcDbEntity
  8
leg_release
  6
Continuous
370
    25
100
AcDbLine
 10
9.706901033417047
 20
19.92708390517405
 30
0.0
 11
9.649369216889489
 21
16.85421120274701
 31
0.0
  0
LINE
  5
5D8
330
1F
100
AcDbEntity
  8
leg_release
  6
Continuous
370
    25
100
AcDbLine
 10
8.786320874346728
 20
21.374291226044
 30
0.0
 11
9.547225121951235
 21
20.40391117425112
 31
0.0
  0
ARC
  5
5D9
330
1F
100
AcDbEntity
  8
leg_release
  6
Continuous
370
    25
100
AcDbCircle
 10
7.901844795998222
 20
15.9012384450335
 30
0.0
 40
0.3000000000000114
100
AcDbArc
 50
263.1010638466901
 51
308.1010638466902
  0
ARC
  5
5DA
330
1F
100
AcDbEntity
  8
leg_release
  6
Continuous
370
    25
100
AcDbCircle
 10
7.655024601377938
 20
16.21600787100687
 30
0.0
 40
0.2999999999999944
100
AcDbArc
 50
128.1010638466905
 51
173.1010638466903
  0
ARC
  5
5DB
330
1F
100
AcDbEntity
  8
leg_release
  6
Continuous
370
    25
100
AcDbCircle
 10
7.625690334651871
 20
16.95546885854676
 30
0.0
 40
0.3000000000000114
100
AcDbArc
 50
308.1010638466902
 51
358.9274058762902
  0
ARC
  5
5DC
330
1F
100
AcDbEntity
  8
leg_release
  6
Continuous
370
    25
100
AcDbCircle
 10
7.233301000176474
 20
20.0367652034463
 30
0.0
 40
0.75
100
AcDbArc
 50
358.9274058762902
 51
38.10106384669015
  0
ARC
  5
5DD
330
1F
100
AcDbEntity
  8
leg_release
  6
Continuous
370
    25
100
AcDbCircle
 10
7.298666495752051
 20
21.65504826611744
 30
0.0
 40
0.3000000000000114
100
AcDbArc
 50
128.1010638466905
 51
218.1010638466903
  0
ARC
  5
5DE
330
1F
100
AcDbEntity
  8
leg_release
  6
Continuous
370
    25
100
AcDbCircle
 10
7.692128278218753
 20
21.96357350939281
 30
0.0
 40
0.3000000000000114
100
AcDbArc
 50
38.10106384669015
 51
128.1010638466905
  0
ARC
  5
5DF
330
1F
100
AcDbEntity
  8
leg_release
  6
Continuous
370
    25
100
AcDbCircle
 10
8.242749974566073
 20
20.53209066079009
 30
0.0
 40
0.7500000000000007
100
AcDbArc
 50
358.9274058762902
 51
38.10106384669015
  0
ARC
  5
5E0
330
1F
100
AcDbEntity
  8
leg_release
  6
Continuous
370
    25
100
AcDbCircle
 10
8.170702370406175
 20
16.68390492567624
 30
0.0
 40
0.75
100
AcDbArc
 50
308.1010638466902
 51
358.9274058762902
  0
LINE
  5
5E1
330
1F
100
AcDbEntity
  8
leg_release
  6
Continuous
370
    25
100
AcDbLine
 10
7.50701313225354
 20
22.19965057887283
 30
0.0
 11
7.113551349786831
 21
21.89112533559746
 31
0.0
  0
LINE
  5
5E2
330
1F
100
AcDbEntity
  8
leg_release
  6
Continuous
370
    25
100
AcDbLine
 10
8.051615445008927
 20
21.99130394237133
 30
0.0
 11
7.928205347698771
 21
22.14868865535802
 31
0.0
  0
LINE
  5
5E3
330
1F
100
AcDbEntity
  8
leg_release
  6
Continuous
370
    25
100
AcDbLine
 10
7.658153662542218
 20
21.68277869909597
 30
0.0
 11
8.051615445008927
 21
21.99130394237133
 31
0.0
  0
LINE
  5
5E4
330
1F
100
AcDbEntity
  8
leg_release
  6
Continuous
370
    25
100
AcDbLine
 10
7.812416284179896
 20
21.48604780786262
 30
0.0
 11
7.658153662542218
 21
21.68277869909597
 31
0.0
  0
LINE
  5
5E5
330
1F
100
AcDbEntity
  8
leg_release
  6
Continuous
370
    25
100
AcDbLine
 10
8.205878066646604
 20
21.79457305113798
 30
0.0
 11
7.812416284179896
 21
21.48604780786262
 31
0.0
  0
LINE
  5
5E6
330
1F
100
AcDbEntity
  8
leg_release
  6
Continuous
370
    25
100
AcDbLine
 10
8.832942648266133
 20
20.99487852570314
 30
0.0
 11
8.205878066646604
 21
21.79457305113798
 31
0.0
  0
LINE
  5
5E7
330
1F
100
AcDbEntity
  8
leg_release
  6
Continuous
370
    25
100
AcDbLine
 10
8.920570955712442
 20
16.66986552149523
 30
0.0
 11
8.992618559793676
 21
20.51805125654738
 31
0.0
  0
LINE
  5
5E8
330
1F
100
AcDbEntity
  8
leg_release
  6
Continuous
370
    25
100
AcDbLine
 10
8.086959941963442
 20
15.66516137555348
 30
0.0
 11
8.633490235319221
 21
16.09371225197618
 31
0.0
  0
LINE
  5
5E9
330
1F
100
AcDbEntity
  8
leg_release
  6
Continuous
370
    25
100
AcDbLine
 10
7.287186592286822
 20
15.67342071069271
 30
0.0
 11
7.865809274291102
 21
15.60341057324735
 31
0.0
  0
LINE
  5
5EA
330
1F
100
AcDbEntity
  8
leg_release
  6
Continuous
370
    25
100
AcDbLine
 10
7.357196729591784
 20
16.25204339271397
 30
0.0
 11
7.287186592286822
 21
15.67342071069271
 31
0.0
  0
LINE
  5
5EB
330
1F
100
AcDbEntity
  8
leg_release
  6
Continuous
370
    25
100
AcDbLine
 10
7.810805480617084
 20
16.71939178906673
 30
0.0
 11
7.469909455412718
 21
16.45208494048689
 31
0.0
  0
LINE
  5
5EC
330
1F
100
AcDbEntity
  8
leg_release
  6
Continuous
370
    25
100
AcDbLine
 10
7.983169585342345
 20
20.02272579928228
 30
0.0
 11
7.925637768814787
 21
16.94985309685523
 31
0.0
  0
LINE
  5
5ED
330
1F
100
AcDbEntity
  8
leg_release
  6
Continuous
370
    25
100
AcDbLine
 10
7.062589426272026
 20
21.46993312015223
 30
0.0
 11
7.823493673876534
 21
20.49955306835935
 31
0.0
  0
ARC
  5
5EE
330
1F
100
AcDbEntity
  8
leg_release
  6
Continuous
370
    25
100
AcDbCircle
 10
25.00692282222788
 20
15.77303880588731
 30
0.0
 40
0.3000000000000114
100
AcDbArc
 50
263.1010638466901
 51
308.1010638466902
  0
ARC
  5
5EF
330
1F
100
AcDbEntity
  8
leg_release
  6
Continuous
370
    25
100
AcDbCircle
 10
24.76010262760759
 20
16.08780823186068
 30
0.0
 40
0.2999999999999944
100
AcDbArc
 50
128.1010638466905
 51
173.1010638466903
  0
ARC
  5
5F0
330
1F
100
AcDbEntity
  8
leg_release
  6
Continuous
370
    25
100
AcDbCircle
 10
24.73076836088152
 20
16.82726921940056
 30
0.0
 40
0.3000000000000114
100
AcDbArc
 50
308.1010638466902
 51
358.9274058762902
  0
ARC
  5
5F1
330
1F
100
AcDbEntity
  8
leg_release
  6
Continuous
370
    25
100
AcDbCircle
 10
24.33837902640612
 20
19.90856556430011
 30
0.0
 40
0.75
100
AcDbArc
 50
358.9274058762902
 51
38.10106384669015
  0
ARC
  5
5F2
330
1F
100
AcDbEntity
  8
leg_release
  6
Continuous
370
    25
100
AcDbCircle
 10
24.4037445219817
 20
21.52684862697125
 30
0.0
 40
0.3000000000000114
100
AcDbArc
 50
128.1010638466905
 51
218.1010638466903
  0
ARC
  5
5F3
330
1F
100
AcDbEntity
  8
leg_release
  6
Continuous
370
    25
100
AcDbCircle
 10
24.79720630444841
 20
21.83537387024661
 30
0.0
 40
0.3000000000000114
100
AcDbArc
 50
38.10106384669015
 51
128.1010638466905
  0
ARC
  5
5F4
330
1F
100
AcDbEntity
  8
leg_release
  6
Continuous
370
    25
100
AcDbCircle
 10
25.34782800079572
 20
20.4038910216439
 30
0.0
 40
0.7500000000000007
100
AcDbArc
 50
358.9274058762902
 51
38.10106384669015
  0
ARC
  5
5F5
330
1F
100
AcDbEntity
  8
leg_release
  6
Continuous
370
    25
100
AcDbCircle
 10
25.27578039663583
 20
16.55570528653005
 30
0.0
 40
0.75
100
AcDbArc
 50
308.1010638466902
 51
358.9274058762902
  0
LINE
  5
5F6
330
1F
100
AcDbEntity
  8
leg_release
  6
Continuous
370
    25
100
AcDbLine
 10
24.61209115848319
 20
22.07145093972663
 30
0.0
 11
24.21862937601648
 21
21.76292569645127
 31
0.0
  0
LINE
  5
5F7
330
1F
100
AcDbEntity
  8
leg_release
  6
Continuous
370
    25
100
AcDbLine
 10
25.15669347123858
 20
21.86310430322514
 30
0.0
 11
25.03328337392843
 21
22.02048901621183
 31
0.0
  0
LINE
  5
5F8
330
1F
100
AcDbEntity
  8
leg_release
  6
Continuous
370
    25
100
AcDbLine
 10
24.76323168877187
 20
21.55457905994978
 30
0.0
 11
25.15669347123858
 21
21.86310430322514
 31
0.0
  0
LINE
  5
5F9
330
1F
100
AcDbEntity
  8
leg_release
  6
Continuous
370
    25
100
AcDbLine
 10
24.91749431040955
 20
21.35784816871642
 30
0.0
 11
24.76323168877187
 21
21.55457905994978
 31
0.0
  0
LINE
  5
5FA
330
1F
100
AcDbEntity
  8
leg_release
  6
Continuous
370
    25
100
AcDbLine
 10
25.31095609287625
 20
21.66637341199179
 30
0.0
 11
24.91749431040955
 21
21.35784816871642
 31
0.0
  0
LINE
  5
5FB
330
1F
100
AcDbEntity
  8
leg_release
  6
Continuous
370
    25
100
AcDbLine
 10
25.93802067449579
 20
20.86667888655695
 30
0.0
 11
25.31095609287625
 21
21.66637341199179
 31
0.0
  0
LINE
  5
5FC
330
1F
100
AcDbEntity
  8
leg_release
  6
Continuous
370
    25
100
AcDbLine
 10
26.02564898194209
 20
16.54166588234903
 30
0.0
 11
26.09769658602333
 21
20.38985161740118
 31
0.0
  0
LINE
  5
5FD
330
1F
100
AcDbEntity
  8
leg_release
  6
Continuous
370
    25
100
AcDbLine
 10
25.1920379681931
 20
15.53696173640728
 30
0.0
 11
25.73856826154887
 21
15.96551261282999
 31
0.0
  0
LINE
  5
5FE
330
1F
100
AcDbEntity
  8
leg_release
  6
Continuous
370
    25
100
AcDbLine
 10
24.39226461851647
 20
15.54522107154651
 30
0.0
 11
24.97088730052076
 21
15.47521093410115
 31
0.0
  0
LINE
  5
5FF
330
1F
100
AcDbEntity
  8
leg_release
  6
Continuous
370
    25
100
AcDbLine
 10
24.46227475582143
 20
16.12384375356778
 30
0.0
 11
24.39226461851647
 21
15.54522107154651
 31
0.0
  0
LINE
  5
600
330
1F
100
AcDbEntity
  8
leg_release
  6
Continuous
370
    25
100
AcDbLine
 10
24.91588350684673
 20
16.59119214992054
 30
0.0
 11
24.57498748164237
 21
16.32388530134069
 31
0.0
  0
LINE
  5
601
330
1F
100
AcDbEntity
  8
leg_release
  6
Continuous
370
    25
100
AcDbLine
 10
25.088247611572
 20
19.89452616013608
 30
0.0
 11
25.03071579504444
 21
16.82165345770904
 31
0.0
  0
LINE
  5
602
330
1F
100
AcDbEntity
  8
leg_release
  6
Continuous
370
    25
100
AcDbLine
 10
24.16766745250168
 20
21.34173348100603
 30
0.0
 11
24.92857170010618
 21
20.37135342921315
 31
0.0
  0
ARC
  5
603
330
1F
100
AcDbEntity
  8
leg_release
  6
Continuous
370
    25
100
AcDbCircle
 10
6.169871877393987
 20
15.84389520129286
 30
0.0
 40
0.3000000000000114
100
AcDbArc
 50
263.1010638466901
 51
308.1010638466902
  0
ARC
  5
604
330
1F
100
AcDbEntity
  8
leg_release
  6
Continuous
370
    25
100
AcDbCircle
 10
5.923051682773696
 20
16.15866462726622
 30
0.0
 40
0.2999999999999944
100
AcDbArc
 50
128.1010638466905
 51
173.1010638466903
  0
ARC
  5
605
330
1F
100
AcDbEntity
  8
leg_release
  6
Continuous
370
    25
100
AcDbCircle
 10
5.893717416047628
 20
16.89812561480611
 30
0.0
 40
0.3000000000000114
100
AcDbArc
 50
308.1010638466902
 51
358.9274058762902
  0
ARC
  5
606
330
1F
100
AcDbEntity
  8
leg_release
  6
Continuous
370
    25
100
AcDbCircle
 10
5.501328081572232
 20
19.97942195970566
 30
0.0
 40
0.75
100
AcDbArc
 50
358.9274058762902
 51
38.10106384669015
  0
ARC
  5
607
330
1F
100
AcDbEntity
  8
leg_release
  6
Continuous
370
    25
100
AcDbCircle
 10
5.566693577147809
 20
21.5977050223768
 30
0.0
 40
0.3000000000000114
100
AcDbArc
 50
128.1010638466905
 51
218.1010638466903
  0
ARC
  5
608
330
1F
100
AcDbEntity
  8
leg_release
  6
Continuous
370
    25
100
AcDbCircle
 10
5.96015535961451
 20
21.90623026565216
 30
0.0
 40
0.3000000000000114
100
AcDbArc
 50
38.10106384669015
 51
128.1010638466905
  0
ARC
  5
609
330
1F
100
AcDbEntity
  8
leg_release
  6
Continuous
370
    25
100
AcDbCircle
 10
6.510777055961831
 20
20.47474741704945
 30
0.0
 40
0.7500000000000007
100
AcDbArc
 50
358.9274058762902
 51
38.10106384669015
  0
ARC
  5
60A
330
1F
100
AcDbEntity
  8
leg_release
  6
Continuous
370
    25
100
AcDbCircle
 10
6.43872945180194
 20
16.6265616819356
 30
0.0
 40
0.75
100
AcDbArc
 50
308.1010638466902
 51
358.9274058762902
  0
LINE
  5
60B
330
1F
100
AcDbEntity
  8
leg_release
  6
Continuous
370
    25
100
AcDbLine
 10
5.775040213649297
 20
22.14230733513218
 30
0.0
 11
5.381578431182589
 21
21.83378209185681
 31
0.0
  0
LINE
  5
60C
330
1F
100
AcDbEntity
  8
leg_release
  6
Continuous
370
    25
100
AcDbLine
 10
6.319642526404685
 20
21.93396069863069
 30
0.0
 11
6.196232429094536
 21
22.09134541161738
 31
0.0
  0
LINE
  5
60D
330
1F
100
AcDbEntity
  8
leg_release
  6
Continuous
370
    25
100
AcDbLine
 10
5.926180743937976
 20
21.62543545535533
 30
0.0
 11
6.319642526404685
 21
21.93396069863069
 31
0.0
  0
LINE
  5
60E
330
1F
100
AcDbEntity
  8
leg_release
  6
Continuous
370
    25
100
AcDbLine
 10
6.080443365575661
 20
21.42870456412197
 30
0.0
 11
5.926180743937976
 21
21.62543545535533
 31
0.0
  0
LINE
  5
60F
330
1F
100
AcDbEntity
  8
leg_release
  6
Continuous
370
    25
100
AcDbLine
 10
6.473905148042362
 20
21.73722980739734
 30
0.0
 11
6.080443365575661
 21
21.42870456412197
 31
0.0
  0
LINE
  5
610
330
1F
100
AcDbEntity
  8
leg_release
  6
Continuous
370
    25
100
AcDbLine
 10
7.100969729661898
 20
20.9375352819625
 30
0.0
 11
6.473905148042362
 21
21.73722980739734
 31
0.0
  0
LINE
  5
611
330
1F
100
AcDbEntity
  8
leg_release
  6
Continuous
370
    25
100
AcDbLine
 10
7.188598037108199
 20
16.61252227775458
 30
0.0
 11
7.260645641189434
 21
20.46070801280674
 31
0.0
  0
LINE
  5
612
330
1F
100
AcDbEntity
  8
leg_release
  6
Continuous
370
    25
100
AcDbLine
 10
6.354987023359207
 20
15.60781813181283
 30
0.0
 11
6.901517316714979
 21
16.03636900823554
 31
0.0
  0
LINE
  5
613
330
1F
100
AcDbEntity
  8
leg_release
  6
Continuous
370
    25
100
AcDbLine
 10
5.55521367368258
 20
15.61607746695206
 30
0.0
 11
6.133836355686867
 21
15.5460673295067
 31
0.0
  0
LINE
  5
614
330
1F
100
AcDbEntity
  8
leg_release
  6
Continuous
370
    25
100
AcDbLine
 10
5.625223810987542
 20
16.19470014897333
 30
0.0
 11
5.55521367368258
 21
15.61607746695206
 31
0.0
  0
LINE
  5
615
330
1F
100
AcDbEntity
  8
leg_release
  6
Continuous
370
    25
100
AcDbLine
 10
6.078832562012841
 20
16.66204854532609
 30
0.0
 11
5.737936536808483
 21
16.39474169674625
 31
0.0
  0
LINE
  5
616
330
1F
100
AcDbEntity
  8
leg_release
  6
Continuous
370
    25
100
AcDbLine
 10
6.251196666738103
 20
19.96538255554163
 30
0.0
 11
6.193664850210545
 21
16.89250985311459
 31
0.0
  0
LINE
  5
617
330
1F
100
AcDbEntity
  8
leg_release
  6
Continuous
370
    25
100
AcDbLine
 10
5.330616507667784
 20
21.41258987641158
 30
0.0
 11
6.091520755272291
 21
20.4422098246187
 31
0.0
  0
ENDSEC
  0
SECTION
  2
OBJECTS
  0
DICTIONARY
  5
C
330
0
100
AcDbDictionary
281
     1
  3
ACAD_CIP_PREVIOUS_PRODUCT_INFO
350
8D
  3
ACAD_COLOR
350
88
  3
ACAD_DETAILVIEWSTYLE
350
82
  3
ACAD_GROUP
350
D
  3
ACAD_LAYOUT
350
1A
  3
ACAD_MATERIAL
350
43
  3
ACAD_MLEADERSTYLE
350
5B
  3
ACAD_MLINESTYLE
350
17
  3
ACAD_PLOTSETTINGS
350
19
  3
ACAD_PLOTSTYLENAME
350
E
  3
ACAD_SCALELIST
350
47
  3
ACAD_SECTIONVIEWSTYLE
350
83
  3
ACAD_TABLESTYLE
350
59
  3
ACAD_VISUALSTYLE
350
2A
  3
ACDB_RECOMPOSE_DATA
350
620
  3
AcDbVariableDictionary
350
7B
  3
AcDsDecomposeData
350
626
  0
SUN
  5
5D
330
29
100
AcDbSun
 90
        1
290
     1
 63
     7
421
 16777215
 40
1.0
291
     1
 91
  2455826
 92
 54000000
292
     0
 70
     0
 71
   256
280
     1
1001
ACAD
1000
AcDbSavedByObjectVersion
1070
     0
  0
DICTIONARY
  5
1B4
330
2
100
AcDbDictionary
280
     1
281
     1
  3
ACAD_LAYERSTATES
360
1B5
  0
XRECORD
  5
8D
102
{ACAD_REACTORS
330
C
102
}
330
C
100
AcDbXrecord
280
     1
300
ACD
300
2023
300

  0
DICTIONARY
  5
88
102
{ACAD_REACTORS
330
C
102
}
330
C
100
AcDbDictionary
281
     1
  0
DICTIONARY
  5
82
102
{ACAD_REACTORS
330
C
102
}
330
C
100
AcDbDictionary
281
     1
  3
Metric50
350
8A
  0
DICTIONARY
  5
D
102
{ACAD_REACTORS
330
C
102
}
330
C
100
AcDbDictionary
281
     1
  0
DICTIONARY
  5
1A
102
{ACAD_REACTORS
330
C
102
}
330
C
100
AcDbDictionary
281
     1
  3
Layout1
350
1E
  3
Layout2
350
26
  3
Model
350
22
  0
DICTIONARY
  5
43
102
{ACAD_REACTORS
330
C
102
}
330
C
100
AcDbDictionary
281
     1
  3
ByBlock
350
45
  3
ByLayer
350
44
  3
Global
350
46
  0
DICTIONARY
  5
5B
102
{ACAD_REACTORS
330
C
102
}
330
C
100
AcDbDictionary
281
     1
  3
Standard
350
5C
  0
DICTIONARY
  5
17
102
{ACAD_REACTORS
330
C
102
}
330
C
100
AcDbDictionary
281
     1
  3
Standard
350
18
  0
DICTIONARY
  5
19
102
{ACAD_REACTORS
330
C
102
}
330
C
100
AcDbDictionary
281
     1
  0
ACDBDICTIONARYWDFLT
  5
E
102
{ACAD_REACTORS
330
C
102
}
330
C
100
AcDbDictionary
281
     1
  3
Normal
350
F
100
AcDbDictionaryWithDefault
340
F
  0
DICTIONARY
  5
47
102
{ACAD_REACTORS
330
C
102
}
330
C
100
AcDbDictionary
281
     1
  3
A0
350
48
  3
A1
350
49
  3
A2
350
4A
  3
A3
350
4B
  3
A4
350
4C
  3
A5
350
4D
  3
A6
350
4E
  3
A7
350
4F
  3
A8
350
50
  3
A9
350
51
  3
B0
350
52
  3
B1
350
53
  3
B2
350
54
  3
B3
350
55
  3
B4
350
56
  3
B5
350
57
  3
B6
350
58
  0
DICTIONARY
  5
83
102
{ACAD_REACTORS
330
C
102
}
330
C
100
AcDbDictionary
281
     1
  3
Metric50
350
89
  0
DICTIONARY
  5
59
102
{ACAD_REACTORS
330
C
102
}
330
C
100
AcDbDictionary
281
     1
  3
Standard
350
5A
  0
DICTIONARY
  5
2A
102
{ACAD_REACTORS
330
C
102
}
330
C
100
AcDbDictionary
281
     1
  3
2dWireframe
350
2F
  3
Basic
350
32
  3
Brighten
350
36
  3
ColorChange
350
3A
  3
Conceptual
350
34
  3
Dim
350
35
  3
EdgeColorOff
350
3D
  3
Facepattern
350
39
  3
Flat
350
2B
  3
FlatWithEdges
350
2C
  3
Gouraud
350
2D
  3
GouraudWithEdges
350
2E
  3
Hidden
350
31
  3
JitterOff
350
3B
  3
Linepattern
350
38
  3
OverhangOff
350
3C
  3
Realistic
350
33
  3
Shaded
350
42
  3
Shaded with edges
350
41
  3
Shades of Gray
350
3E
  3
Sketchy
350
3F
  3
Thicken
350
37
  3
Wireframe
350
30
  3
X-Ray
350
40
  0
XRECORD
  5
620
102
{ACAD_REACTORS
330
C
102
}
330
C
100
AcDbXrecord
280
     1
 90
        1
330
5A
  0
DICTIONARY
  5
7B
102
{ACAD_REACTORS
330
C
102
}
330
C
100
AcDbDictionary
281
     1
  3
CANNOSCALE
350
7C
  3
CENTEREXE
350
84
  3
CENTERLTYPEFILE
350
85
  3
CMLEADERSTYLE
350
81
  3
CTABLESTYLE
350
80
  3
CVIEWDETAILSTYLE
350
137
  3
CVIEWSECTIONSTYLE
350
138
  0
DICTIONARY
  5
626
102
{ACAD_REACTORS
330
C
102
}
330
C
100
AcDbDictionary
281
     1
  3
AcDsRecords
350
628
  3
AcDsSchemas
350
627
1001
ACAD
1070
     2
  0
DICTIONARY
  5
1B5
102
{ACAD_REACTORS
330
1B4
102
}
330
1B4
100
AcDbDictionary
281
     1
  0
ACDBDETAILVIEWSTYLE
  5
8A
102
{ACAD_XDICTIONARY
360
62B
102
}
102
{ACAD_REACTORS
330
82
102
}
330
82
100
AcDbModelDocViewStyle
 70
     0
  3
Metric50
290
     0
100
AcDbDetailViewStyle
 70
     0
 71
     0
 90
        3
 71
     1
340
11
 62
   256
 40
5.0
340
0
 62
   256
 40
5.0
300

 40
0.0
280
     1
 71
     2
340
16
 90
       25
 62
   256
 71
     3
340
11
 62
   256
 40
5.0
 90
        0
 40
15.0
 90
        1
300
%<\AcVar ViewDetailId>% (%<\AcVar ViewScale \f "%sn">%)
 71
     4
340
16
 90
       25
 62
   256
340
16
 90
       25
 62
   256
280
     0
  0
LAYOUT
  5
1E
102
{ACAD_REACTORS
330
1A
102
}
330
1A
100
AcDbPlotSettings
  1

  2
none_device
  4

  6

 40
0.0
 41
0.0
 42
0.0
 43
0.0
 44
0.0
 45
0.0
 46
0.0
 47
0.0
 48
0.0
 49
0.0
140
0.0
141
0.0
142
1.0
143
1.0
 70
   688
 72
     1
 73
     0
 74
     5
  7

 75
    16
147
1.0
 76
     0
 77
     2
 78
   300
148
0.0
149
0.0
100
AcDbLayout
  1
Layout1
 70
     1
 71
     1
 10
0.0
 20
0.0
 11
420.0
 21
297.0
 12
0.0
 22
0.0
 32
0.0
 14
1.000000000000000E+20
 24
1.000000000000000E+20
 34
1.000000000000000E+20
 15
-1.000000000000000E+20
 25
-1.000000000000000E+20
 35
-1.000000000000000E+20
146
0.0
 13
0.0
 23
0.0
 33
0.0
 16
1.0
 26
0.0
 36
0.0
 17
0.0
 27
1.0
 37
0.0
 76
     0
330
1B
  0
LAYOUT
  5
26
102
{ACAD_REACTORS
330
1A
102
}
330
1A
100
AcDbPlotSettings
  1

  2
none_device
  4

  6

 40
0.0
 41
0.0
 42
0.0
 43
0.0
 44
0.0
 45
0.0
 46
0.0
 47
0.0
 48
0.0
 49
0.0
140
0.0
141
0.0
142
1.0
143
1.0
 70
   688
 72
     1
 73
     0
 74
     5
  7

 75
    16
147
1.0
 76
     0
 77
     2
 78
   300
148
0.0
149
0.0
100
AcDbLayout
  1
Layout2
 70
     1
 71
     2
 10
0.0
 20
0.0
 11
0.0
 21
0.0
 12
0.0
 22
0.0
 32
0.0
 14
0.0
 24
0.0
 34
0.0
 15
0.0
 25
0.0
 35
0.0
146
0.0
 13
0.0
 23
0.0
 33
0.0
 16
1.0
 26
0.0
 36
0.0
 17
0.0
 27
1.0
 37
0.0
 76
     0
330
23
  0
LAYOUT
  5
22
102
{ACAD_REACTORS
330
1A
102
}
330
1A
100
AcDbPlotSettings
  1

  2
none_device
  4
Letter_(8.50_x_11.00_Inches)
  6

 40
6.349999999999999
 41
6.349999999999999
 42
6.350005079999999
 43
6.350005079999999
 44
215.9
 45
279.4
 46
0.0
 47
0.0
 48
0.0
 49
0.0
140
0.0
141
0.0
142
1.0
143
1.0
 70
  1712
 72
     1
 73
     0
 74
     0
  7

 75
     0
147
1.0
 76
     0
 77
     2
 78
   300
148
0.0
149
0.0
100
AcDbLayout
  1
Model
 70
     1
 71
     0
 10
0.0
 20
0.0
 11
279.4
 21
215.9
 12
0.0
 22
0.0
 32
0.0
 14
0.0
 24
0.0
 34
0.0
 15
279.4
 25
215.9
 35
0.0
146
0.0
 13
0.0
 23
0.0
 33
0.0
 16
1.0
 26
0.0
 36
0.0
 17
0.0
 27
1.0
 37
0.0
 76
     0
330
1F
331
29
  0
MATERIAL
  5
45
102
{ACAD_REACTORS
330
43
102
}
330
43
100
AcDbMaterial
  1
ByBlock
  0
MATERIAL
  5
44
102
{ACAD_REACTORS
330
43
102
}
330
43
100
AcDbMaterial
  1
ByLayer
  0
MATERIAL
  5
46
102
{ACAD_REACTORS
330
43
102
}
330
43
100
AcDbMaterial
  1
Global
  0
MLEADERSTYLE
  5
5C
102
{ACAD_REACTORS
330
5B
102
}
330
5B
100
AcDbMLeaderStyle
179
     2
170
     2
171
     1
172
     0
 90
        2
 40
0.0
 41
0.0
173
     1
 91
-1056964608
340
14
 92
       -2
290
     1
 42
2.0
291
     1
 43
8.0
  3
Standard
 44
4.0
300

342
11
174
     1
178
     6
175
     1
176
     0
 93
-1056964608
 45
4.0
292
     0
297
     0
 46
4.0
 94
-1056964608
 47
1.0
 49
1.0
140
1.0
293
     1
141
0.0
294
     1
177
     0
142
1.0
295
     0
296
     0
143
3.75
271
     0
272
     9
273
     9
298
     0
  0
MLINESTYLE
  5
18
102
{ACAD_REACTORS
330
17
102
}
330
17
100
AcDbMlineStyle
  2
STANDARD
 70
     0
  3

 62
   256
 51
90.0
 52
90.0
 71
     2
 49
0.5
 62
   256
  6
BYLAYER
 49
-0.5
 62
   256
  6
BYLAYER
  0
ACDBPLACEHOLDER
  5
F
102
{ACAD_REACTORS
330
E
102
}
330
E
  0
SCALE
  5
48
102
{ACAD_REACTORS
330
47
102
}
330
47
100
AcDbScale
 70
     0
300
1:1
140
1.0
141
1.0
290
     1
  0
SCALE
  5
49
102
{ACAD_REACTORS
330
47
102
}
330
47
100
AcDbScale
 70
     0
300
1:2
140
1.0
141
2.0
290
     0
  0
SCALE
  5
4A
102
{ACAD_REACTORS
330
47
102
}
330
47
100
AcDbScale
 70
     0
300
1:4
140
1.0
141
4.0
290
     0
  0
SCALE
  5
4B
102
{ACAD_REACTORS
330
47
102
}
330
47
100
AcDbScale
 70
     0
300
1:5
140
1.0
141
5.0
290
     0
  0
SCALE
  5
4C
102
{ACAD_REACTORS
330
47
102
}
330
47
100
AcDbScale
 70
     0
300
1:8
140
1.0
141
8.0
290
     0
  0
SCALE
  5
4D
102
{ACAD_REACTORS
330
47
102
}
330
47
100
AcDbScale
 70
     0
300
1:10
140
1.0
141
10.0
290
     0
  0
SCALE
  5
4E
102
{ACAD_REACTORS
330
47
102
}
330
47
100
AcDbScale
 70
     0
300
1:16
140
1.0
141
16.0
290
     0
  0
SCALE
  5
4F
102
{ACAD_REACTORS
330
47
102
}
330
47
100
AcDbScale
 70
     0
300
1:20
140
1.0
141
20.0
290
     0
  0
SCALE
  5
50
102
{ACAD_REACTORS
330
47
102
}
330
47
100
AcDbScale
 70
     0
300
1:30
140
1.0
141
30.0
290
     0
  0
SCALE
  5
51
102
{ACAD_REACTORS
330
47
102
}
330
47
100
AcDbScale
 70
     0
300
1:40
140
1.0
141
40.0
290
     0
  0
SCALE
  5
52
102
{ACAD_REACTORS
330
47
102
}
330
47
100
AcDbScale
 70
     0
300
1:50
140
1.0
141
50.0
290
     0
  0
SCALE
  5
53
102
{ACAD_REACTORS
330
47
102
}
330
47
100
AcDbScale
 70
     0
300
1:100
140
1.0
141
100.0
290
     0
  0
SCALE
  5
54
102
{ACAD_REACTORS
330
47
102
}
330
47
100
AcDbScale
 70
     0
300
2:1
140
2.0
141
1.0
290
     0
  0
SCALE
  5
55
102
{ACAD_REACTORS
330
47
102
}
330
47
100
AcDbScale
 70
     0
300
4:1
140
4.0
141
1.0
290
     0
  0
SCALE
  5
56
102
{ACAD_REACTORS
330
47
102
}
330
47
100
AcDbScale
 70
     0
300
8:1
140
8.0
141
1.0
290
     0
  0
SCALE
  5
57
102
{ACAD_REACTORS
330
47
102
}
330
47
100
AcDbScale
 70
     0
300
10:1
140
10.0
141
1.0
290
     0
  0
SCALE
  5
58
102
{ACAD_REACTORS
330
47
102
}
330
47
100
AcDbScale
 70
     0
300
100:1
140
100.0
141
1.0
290
     0
  0
ACDBSECTIONVIEWSTYLE
  5
89
102
{ACAD_XDICTIONARY
360
629
102
}
102
{ACAD_REACTORS
330
83
102
}
330
83
100
AcDbModelDocViewStyle
 70
     0
  3
Metric50
290
     0
100
AcDbSectionViewStyle
 70
     0
 71
     0
 90
      102
 71
     1
340
11
 62
   256
 40
5.0
340
0
340
0
 62
   256
 40
5.0
300
I, O, Q, S, X, Z
 40
10.0
 90
        0
 40
2.5
 90
        0
 71
     2
340
16
 90
       25
 62
   256
340
16
 90
       50
 62
   256
 40
5.0
 40
2.5
 40
5.0
 71
     3
340
11
 62
   256
 40
5.0
 90
        0
 40
15.0
 90
        1
300
%<\AcVar ViewSectionStartId>%-%<\AcVar ViewSectionEndId>% (%<\AcVar ViewScale \f "%sn">%)
 71
     4
 62
   256
 62
   257
300
ANSI31
 40
1.0
 90
        0
290
     0
290
     0
 90
        6
 40
0.0
 40
1.570796326794896
 40
0.2617993877991494
 40
1.308996938995747
 40
-0.2617993877991494
 40
1.832595714594046
  0
TABLESTYLE
  5
5A
102
{ACAD_XDICTIONARY
360
7D
102
}
102
{ACAD_REACTORS
330
59
102
}
330
59
100
AcDbTableStyle
280
     0
  3
Standard
 70
     0
 71
     0
 40
1.5
 41
1.5
280
     0
281
     0
  7
Standard
140
4.5
170
     2
 62
     0
 63
     7
283
     0
 90
        4
 91
        0
  1

274
    -2
284
     1
 64
     0
275
    -2
285
     1
 65
     0
276
    -2
286
     1
 66
     0
277
    -2
287
     1
 67
     0
278
    -2
288
     1
 68
     0
279
    -2
289
     1
 69
     0
  7
Standard
140
6.0
170
     5
 62
     0
 63
     7
283
     0
 90
        4
 91
        0
  1

274
    -2
284
     1
 64
     0
275
    -2
285
     1
 65
     0
276
    -2
286
     1
 66
     0
277
    -2
287
     1
 67
     0
278
    -2
288
     1
 68
     0
279
    -2
289
     1
 69
     0
  7
Standard
140
4.5
170
     5
 62
     0
 63
     7
283
     0
 90
        4
 91
        0
  1

274
    -2
284
     1
 64
     0
275
    -2
285
     1
 65
     0
276
    -2
286
     1
 66
     0
277
    -2
287
     1
 67
     0
278
    -2
288
     1
 68
     0
279
    -2
289
     1
 69
     0
  0
VISUALSTYLE
  5
2F
102
{ACAD_REACTORS
330
2A
102
}
330
2A
100
AcDbVisualStyle
  2
2dWireframe
 70
     4
177
     3
291
     0
 70
    58
 90
        0
176
     1
 90
        2
176
     1
 90
        0
176
     1
 90
        0
176
     1
 40
0.6
176
     1
 40
30.0
176
     1
 62
     7
420
 16777215
176
     1
 90
        1
176
     1
 90
        4
176
     1
 62
     7
176
     1
 62
   257
176
     1
 90
        1
176
     1
 90
        1
176
     1
 40
1.0
176
     1
 90
        0
176
     1
 62
   257
176
     1
 40
1.0
176
     1
 90
        1
176
     1
 90
        6
176
     1
 90
        2
176
     1
 62
     7
176
     1
 90
        5
176
     1
 90
        0
176
     1
 90
        0
176
     1
290
     0
176
     1
 90
        1
176
     1
 40
0.0
176
     1
 90
        0
176
     1
290
     1
176
     1
290
     1
176
     1
290
     0
176
     1
290
     0
176
     1
290
     0
176
     1
290
     0
176
     1
290
     0
176
     1
290
     0
176
     1
290
     0
176
     1
 90
       50
176
     1
 40
0.0
176
     1
 40
1.0
176
     1
 90
        0
176
     1
 62
    18
176
     1
 90
       50
176
     1
 90
        3
176
     1
 62
     5
420
      255
176
     1
290
     0
176
     1
 90
       50
176
     1
 90
       50
176
     1
 90
       50
176
     1
290
     0
176
     1
 90
       50
176
     1
 62
   256
176
     0
 40
1.0
176
     0
 90
        2
176
     1
  1
strokes_ogs.tif
176
     1
290
     0
176
     1
 40
1.0
176
     1
 40
1.0
176
     1
1001
ACAD
1000
AcDbSavedByObjectVersion
1070
     0
  0
VISUALSTYLE
  5
32
102
{ACAD_REACTORS
330
2A
102
}
330
2A
100
AcDbVisualStyle
  2
Basic
 70
     7
177
     3
291
     1
 70
    58
 90
        1
176
     1
 90
        0
176
     1
 90
        1
176
     1
 90
        0
176
     1
 40
0.6
176
     1
 40
30.0
176
     1
 62
     7
420
 16777215
176
     1
 90
        0
176
     1
 90
        4
176
     1
 62
     7
176
     1
 62
   257
176
     1
 90
        1
176
     1
 90
        1
176
     1
 40
1.0
176
     1
 90
        8
176
     1
 62
     7
176
     1
 40
1.0
176
     1
 90
        1
176
     1
 90
        6
176
     1
 90
        2
176
     1
 62
     7
176
     1
 90
        5
176
     1
 90
        0
176
     1
 90
        0
176
     1
290
     0
176
     1
 90
        1
176
     1
 40
0.0
176
     1
 90
        0
176
     1
290
     0
176
     1
290
     1
176
     1
290
     1
176
     1
290
     0
176
     1
290
     0
176
     1
290
     0
176
     1
290
     0
176
     1
290
     0
176
     1
290
     0
176
     1
 90
       50
176
     1
 40
0.0
176
     1
 40
1.0
176
     1
 90
        0
176
     1
 62
    18
176
     1
 90
       50
176
     1
 90
        3
176
     1
 62
     5
420
      255
176
     1
290
     0
176
     1
 90
       50
176
     1
 90
       50
176
     1
 90
       50
176
     1
290
     0
176
     1
 90
       50
176
     1
 62
   256
176
     0
 40
1.0
176
     0
 90
        2
176
     1
  1
strokes_ogs.tif
176
     1
290
     0
176
     1
 40
1.0
176
     1
 40
1.0
176
     1
1001
ACAD
1000
AcDbSavedByObjectVersion
1070
     0
  0
VISUALSTYLE
  5
36
102
{ACAD_REACTORS
330
2A
102
}
330
2A
100
AcDbVisualStyle
  2
Brighten
 70
    12
177
     3
291
     1
 70
    58
 90
        2
176
     1
 90
        2
176
     1
 90
        0
176
     1
 90
        0
176
     1
 40
0.6
176
     1
 40
30.0
176
     1
 62
     7
420
 16777215
176
     1
 90
        1
176
     1
 90
        4
176
     1
 62
     7
176
     1
 62
   257
176
     1
 90
        1
176
     1
 90
        1
176
     1
 40
1.0
176
     1
 90
        8
176
     1
 62
     7
176
     1
 40
1.0
176
     1
 90
        1
176
     1
 90
        6
176
     1
 90
        2
176
     1
 62
     7
176
     1
 90
        5
176
     1
 90
        0
176
     1
 90
        0
176
     1
290
     0
176
     1
 90
        1
176
     1
 40
50.0
176
     1
 90
        0
176
     1
290
     0
176
     1
290
     1
176
     1
290
     1
176
     1
290
     0
176
     1
290
     0
176
     1
290
     0
176
     1
290
     0
176
     1
290
     0
176
     1
290
     0
176
     1
 90
       50
176
     1
 40
0.0
176
     1
 40
1.0
176
     1
 90
        0
176
     1
 62
    18
176
     1
 90
       50
176
     1
 90
        3
176
     1
 62
     5
420
      255
176
     1
290
     0
176
     1
 90
       50
176
     1
 90
       50
176
     1
 90
       50
176
     1
290
     0
176
     1
 90
       50
176
     1
 62
   256
176
     0
 40
1.0
176
     0
 90
        2
176
     1
  1
strokes_ogs.tif
176
     1
290
     0
176
     1
 40
1.0
176
     1
 40
1.0
176
     1
1001
ACAD
1000
AcDbSavedByObjectVersion
1070
     0
  0
VISUALSTYLE
  5
3A
102
{ACAD_REACTORS
330
2A
102
}
330
2A
100
AcDbVisualStyle
  2
ColorChange
 70
    16
177
     3
291
     1
 70
    58
 90
        2
176
     1
 90
        2
176
     1
 90
        3
176
     1
 90
        0
176
     1
 40
0.6
176
     1
 40
30.0
176
     1
 62
     8
420
  8421504
176
     1
 90
        1
176
     1
 90
        4
176
     1
 62
     7
176
     1
 62
   257
176
     1
 90
        1
176
     1
 90
        1
176
     1
 40
1.0
176
     1
 90
        8
176
     1
 62
     8
420
  8421504
176
     1
 40
1.0
176
     1
 90
        1
176
     1
 90
        6
176
     1
 90
        2
176
     1
 62
     7
176
     1
 90
        5
176
     1
 90
        0
176
     1
 90
        0
176
     1
290
     0
176
     1
 90
        1
176
     1
 40
0.0
176
     1
 90
        0
176
     1
290
     0
176
     1
290
     1
176
     1
290
     1
176
     1
290
     0
176
     1
290
     0
176
     1
290
     0
176
     1
290
     0
176
     1
290
     0
176
     1
290
     0
176
     1
 90
       50
176
     1
 40
0.0
176
     1
 40
1.0
176
     1
 90
        0
176
     1
 62
    18
176
     1
 90
       50
176
     1
 90
        3
176
     1
 62
     5
420
      255
176
     1
290
     0
176
     1
 90
       50
176
     1
 90
       50
176
     1
 90
       50
176
     1
290
     0
176
     1
 90
       50
176
     1
 62
   256
176
     0
 40
1.0
176
     0
 90
        2
176
     1
  1
strokes_ogs.tif
176
     1
290
     0
176
     1
 40
1.0
176
     1
 40
1.0
176
     1
1001
ACAD
1000
AcDbSavedByObjectVersion
1070
     0
  0
VISUALSTYLE
  5
34
102
{ACAD_REACTORS
330
2A
102
}
330
2A
100
AcDbVisualStyle
  2
Conceptual
 70
     9
177
     3
291
     0
 70
    58
 90
        3
176
     1
 90
        2
176
     1
 90
        0
176
     1
 90
        0
176
     1
 40
0.6
176
     1
 40
30.0
176
     1
 62
     7
420
 16777215
176
     1
 90
        2
176
     1
 90
        2
176
     1
 62
     7
176
     1
 62
   257
176
     1
 90
        1
176
     1
 90
        1
176
     1
 40
179.0
176
     1
 90
        8
176
     1
 62
     7
176
     1
 40
1.0
176
     1
 90
        1
176
     1
 90
        6
176
     1
 90
        2
176
     1
 62
     7
176
     1
 90
        3
176
     1
 90
        0
176
     1
 90
        0
176
     1
290
     0
176
     1
 90
        1
176
     1
 40
0.0
176
     1
 90
        0
176
     1
290
     0
176
     1
290
     1
176
     1
290
     1
176
     1
290
     0
176
     1
290
     0
176
     1
290
     0
176
     1
290
     0
176
     1
290
     0
176
     1
290
     0
176
     1
 90
       50
176
     1
 40
0.0
176
     1
 40
1.0
176
     1
 90
        0
176
     1
 62
    18
176
     1
 90
       50
176
     1
 90
        3
176
     1
 62
     5
420
      255
176
     1
290
     0
176
     1
 90
       50
176
     1
 90
       50
176
     1
 90
       50
176
     1
290
     0
176
     1
 90
       50
176
     1
 62
   256
176
     0
 40
1.0
176
     0
 90
        2
176
     1
  1
strokes_ogs.tif
176
     1
290
     0
176
     1
 40
1.0
176
     1
 40
1.0
176
     1
1001
ACAD
1000
AcDbSavedByObjectVersion
1070
     0
  0
VISUALSTYLE
  5
35
102
{ACAD_REACTORS
330
2A
102
}
330
2A
100
AcDbVisualStyle
  2
Dim
 70
    11
177
     3
291
     1
 70
    58
 90
        2
176
     1
 90
        2
176
     1
 90
        0
176
     1
 90
        0
176
     1
 40
0.6
176
     1
 40
30.0
176
     1
 62
     7
420
 16777215
176
     1
 90
        1
176
     1
 90
        4
176
     1
 62
     7
176
     1
 62
   257
176
     1
 90
        1
176
     1
 90
        1
176
     1
 40
1.0
176
     1
 90
        8
176
     1
 62
     7
176
     1
 40
1.0
176
     1
 90
        1
176
     1
 90
        6
176
     1
 90
        2
176
     1
 62
     7
176
     1
 90
        5
176
     1
 90
        0
176
     1
 90
        0
176
     1
290
     0
176
     1
 90
        1
176
     1
 40
-50.0
176
     1
 90
        0
176
     1
290
     0
176
     1
290
     1
176
     1
290
     1
176
     1
290
     0
176
     1
290
     0
176
     1
290
     0
176
     1
290
     0
176
     1
290
     0
176
     1
290
     0
176
     1
 90
       50
176
     1
 40
0.0
176
     1
 40
1.0
176
     1
 90
        0
176
     1
 62
    18
176
     1
 90
       50
176
     1
 90
        3
176
     1
 62
     5
420
      255
176
     1
290
     0
176
     1
 90
       50
176
     1
 90
       50
176
     1
 90
       50
176
     1
290
     0
176
     1
 90
       50
176
     1
 62
   256
176
     0
 40
1.0
176
     0
 90
        2
176
     1
  1
strokes_ogs.tif
176
     1
290
     0
176
     1
 40
1.0
176
     1
 40
1.0
176
     1
1001
ACAD
1000
AcDbSavedByObjectVersion
1070
     0
  0
VISUALSTYLE
  5
3D
102
{ACAD_REACTORS
330
2A
102
}
330
2A
100
AcDbVisualStyle
  2
EdgeColorOff
 70
    22
177
     3
291
     1
 70
    58
 90
        2
176
     0
 90
        2
176
     0
 90
        0
176
     0
 90
        0
176
     0
 40
0.6
176
     0
 40
30.0
176
     0
 62
     7
420
 16777215
176
     0
 90
        1
176
     0
 90
        4
176
     0
 62
     7
176
     0
 62
   257
176
     0
 90
        1
176
     0
 90
        1
176
     0
 40
1.0
176
     0
 90
        8
176
     2
 62
     7
176
     0
 40
1.0
176
     0
 90
        1
176
     0
 90
        6
176
     0
 90
        2
176
     0
 62
     7
176
     0
 90
        5
176
     0
 90
        0
176
     0
 90
        0
176
     0
290
     0
176
     0
 90
        1
176
     0
 40
0.0
176
     0
 90
        0
176
     0
290
     0
176
     0
290
     1
176
     0
290
     1
176
     0
290
     0
176
     0
290
     0
176
     0
290
     0
176
     0
290
     0
176
     0
290
     0
176
     0
290
     0
176
     0
 90
       50
176
     0
 40
0.0
176
     0
 40
1.0
176
     0
 90
        0
176
     0
 62
    18
176
     0
 90
       50
176
     0
 90
        3
176
     0
 62
     5
420
      255
176
     0
290
     0
176
     0
 90
       50
176
     0
 90
       50
176
     0
 90
       50
176
     0
290
     0
176
     0
 90
       50
176
     0
 62
   256
176
     0
 40
1.0
176
     0
 90
        2
176
     0
  1
strokes_ogs.tif
176
     0
290
     0
176
     0
 40
1.0
176
     0
 40
1.0
176
     0
1001
ACAD
1000
AcDbSavedByObjectVersion
1070
     0
  0
VISUALSTYLE
  5
39
102
{ACAD_REACTORS
330
2A
102
}
330
2A
100
AcDbVisualStyle
  2
Facepattern
 70
    15
177
     3
291
     1
 70
    58
 90
        2
176
     1
 90
        2
176
     1
 90
        0
176
     1
 90
        0
176
     1
 40
0.6
176
     1
 40
30.0
176
     1
 62
     7
420
 16777215
176
     1
 90
        1
176
     1
 90
        4
176
     1
 62
     7
176
     1
 62
   257
176
     1
 90
        1
176
     1
 90
        1
176
     1
 40
1.0
176
     1
 90
        8
176
     1
 62
     7
176
     1
 40
1.0
176
     1
 90
        1
176
     1
 90
        6
176
     1
 90
        2
176
     1
 62
     7
176
     1
 90
        5
176
     1
 90
        0
176
     1
 90
        0
176
     1
290
     0
176
     1
 90
        1
176
     1
 40
0.0
176
     1
 90
        0
176
     1
290
     0
176
     1
290
     1
176
     1
290
     1
176
     1
290
     0
176
     1
290
     0
176
     1
290
     0
176
     1
290
     0
176
     1
290
     0
176
     1
290
     0
176
     1
 90
       50
176
     1
 40
0.0
176
     1
 40
1.0
176
     1
 90
        0
176
     1
 62
    18
176
     1
 90
       50
176
     1
 90
        3
176
     1
 62
     5
420
      255
176
     1
290
     0
176
     1
 90
       50
176
     1
 90
       50
176
     1
 90
       50
176
     1
290
     0
176
     1
 90
       50
176
     1
 62
   256
176
     0
 40
1.0
176
     0
 90
        2
176
     1
  1
strokes_ogs.tif
176
     1
290
     0
176
     1
 40
1.0
176
     1
 40
1.0
176
     1
1001
ACAD
1000
AcDbSavedByObjectVersion
1070
     0
  0
VISUALSTYLE
  5
2B
102
{ACAD_REACTORS
330
2A
102
}
330
2A
100
AcDbVisualStyle
  2
Flat
 70
     0
177
     3
291
     1
 70
    58
 90
        2
176
     1
 90
        1
176
     1
 90
        1
176
     1
 90
        2
176
     1
 40
0.6
176
     1
 40
30.0
176
     1
 62
     7
420
 16777215
176
     1
 90
        0
176
     1
 90
        0
176
     1
 62
     7
176
     1
 62
   257
176
     1
 90
        1
176
     1
 90
        1
176
     1
 40
1.0
176
     1
 90
        8
176
     1
 62
     7
176
     1
 40
1.0
176
     1
 90
        1
176
     1
 90
        6
176
     1
 90
        2
176
     1
 62
     7
176
     1
 90
        5
176
     1
 90
        0
176
     1
 90
        0
176
     1
290
     0
176
     1
 90
       13
176
     1
 40
0.0
176
     1
 90
        0
176
     1
290
     0
176
     1
290
     1
176
     1
290
     1
176
     1
290
     0
176
     1
290
     0
176
     1
290
     0
176
     1
290
     0
176
     1
290
     0
176
     1
290
     0
176
     1
 90
       50
176
     1
 40
0.0
176
     1
 40
1.0
176
     1
 90
        0
176
     1
 62
    18
176
     1
 90
       50
176
     1
 90
        3
176
     1
 62
     5
420
      255
176
     1
290
     0
176
     1
 90
       50
176
     1
 90
       50
176
     1
 90
       50
176
     1
290
     0
176
     1
 90
       50
176
     1
 62
   256
176
     0
 40
1.0
176
     0
 90
        2
176
     1
  1
strokes_ogs.tif
176
     1
290
     0
176
     1
 40
1.0
176
     1
 40
1.0
176
     1
1001
ACAD
1000
AcDbSavedByObjectVersion
1070
     0
  0
VISUALSTYLE
  5
2C
102
{ACAD_REACTORS
330
2A
102
}
330
2A
100
AcDbVisualStyle
  2
FlatWithEdges
 70
     1
177
     3
291
     1
 70
    58
 90
        2
176
     1
 90
        1
176
     1
 90
        1
176
     1
 90
        2
176
     1
 40
0.6
176
     1
 40
30.0
176
     1
 62
     7
420
 16777215
176
     1
 90
        1
176
     1
 90
        0
176
     1
 62
     7
176
     1
 62
   257
176
     1
 90
        1
176
     1
 90
        1
176
     1
 40
1.0
176
     1
 90
        0
176
     1
 62
   257
176
     1
 40
1.0
176
     1
 90
        1
176
     1
 90
        6
176
     1
 90
        2
176
     1
 62
     7
176
     1
 90
        5
176
     1
 90
        0
176
     1
 90
        0
176
     1
290
     0
176
     1
 90
       13
176
     1
 40
0.0
176
     1
 90
        0
176
     1
290
     0
176
     1
290
     1
176
     1
290
     1
176
     1
290
     0
176
     1
290
     0
176
     1
290
     0
176
     1
290
     0
176
     1
290
     0
176
     1
290
     0
176
     1
 90
       50
176
     1
 40
0.0
176
     1
 40
1.0
176
     1
 90
        0
176
     1
 62
    18
176
     1
 90
       50
176
     1
 90
        3
176
     1
 62
     5
420
      255
176
     1
290
     0
176
     1
 90
       50
176
     1
 90
       50
176
     1
 90
       50
176
     1
290
     0
176
     1
 90
       50
176
     1
 62
   256
176
     0
 40
1.0
176
     0
 90
        2
176
     1
  1
strokes_ogs.tif
176
     1
290
     0
176
     1
 40
1.0
176
     1
 40
1.0
176
     1
1001
ACAD
1000
AcDbSavedByObjectVersion
1070
     0
  0
VISUALSTYLE
  5
2D
102
{ACAD_REACTORS
330
2A
102
}
330
2A
100
AcDbVisualStyle
  2
Gouraud
 70
     2
177
     3
291
     1
 70
    58
 90
        2
176
     1
 90
        2
176
     1
 90
        1
176
     1
 90
        2
176
     1
 40
0.6
176
     1
 40
30.0
176
     1
 62
     7
420
 16777215
176
     1
 90
        0
176
     1
 90
        0
176
     1
 62
     7
176
     1
 62
   257
176
     1
 90
        1
176
     1
 90
        1
176
     1
 40
1.0
176
     1
 90
        0
176
     1
 62
     7
176
     1
 40
1.0
176
     1
 90
        1
176
     1
 90
        6
176
     1
 90
        2
176
     1
 62
     7
176
     1
 90
        5
176
     1
 90
        0
176
     1
 90
        0
176
     1
290
     0
176
     1
 90
       13
176
     1
 40
0.0
176
     1
 90
        0
176
     1
290
     0
176
     1
290
     1
176
     1
290
     1
176
     1
290
     0
176
     1
290
     0
176
     1
290
     0
176
     1
290
     0
176
     1
290
     0
176
     1
290
     0
176
     1
 90
       50
176
     1
 40
0.0
176
     1
 40
1.0
176
     1
 90
        0
176
     1
 62
    18
176
     1
 90
       50
176
     1
 90
        3
176
     1
 62
     5
420
      255
176
     1
290
     0
176
     1
 90
       50
176
     1
 90
       50
176
     1
 90
       50
176
     1
290
     0
176
     1
 90
       50
176
     1
 62
   256
176
     0
 40
1.0
176
     0
 90
        2
176
     1
  1
strokes_ogs.tif
176
     1
290
     0
176
     1
 40
1.0
176
     1
 40
1.0
176
     1
1001
ACAD
1000
AcDbSavedByObjectVersion
1070
     0
  0
VISUALSTYLE
  5
2E
102
{ACAD_REACTORS
330
2A
102
}
330
2A
100
AcDbVisualStyle
  2
GouraudWithEdges
 70
     3
177
     3
291
     1
 70
    58
 90
        2
176
     1
 90
        2
176
     1
 90
        1
176
     1
 90
        2
176
     1
 40
0.6
176
     1
 40
30.0
176
     1
 62
     7
420
 16777215
176
     1
 90
        1
176
     1
 90
        0
176
     1
 62
     7
176
     1
 62
   257
176
     1
 90
        1
176
     1
 90
        1
176
     1
 40
1.0
176
     1
 90
        0
176
     1
 62
   257
176
     1
 40
1.0
176
     1
 90
        1
176
     1
 90
        6
176
     1
 90
        2
176
     1
 62
     7
176
     1
 90
        5
176
     1
 90
        0
176
     1
 90
        0
176
     1
290
     0
176
     1
 90
       13
176
     1
 40
0.0
176
     1
 90
        0
176
     1
290
     0
176
     1
290
     1
176
     1
290
     1
176
     1
290
     0
176
     1
290
     0
176
     1
290
     0
176
     1
290
     0
176
     1
290
     0
176
     1
290
     0
176
     1
 90
       50
176
     1
 40
0.0
176
     1
 40
1.0
176
     1
 90
        0
176
     1
 62
    18
176
     1
 90
       50
176
     1
 90
        3
176
     1
 62
     5
420
      255
176
     1
290
     0
176
     1
 90
       50
176
     1
 90
       50
176
     1
 90
       50
176
     1
290
     0
176
     1
 90
       50
176
     1
 62
   256
176
     0
 40
1.0
176
     0
 90
        2
176
     1
  1
strokes_ogs.tif
176
     1
290
     0
176
     1
 40
1.0
176
     1
 40
1.0
176
     1
1001
ACAD
1000
AcDbSavedByObjectVersion
1070
     0
  0
VISUALSTYLE
  5
31
102
{ACAD_REACTORS
330
2A
102
}
330
2A
100
AcDbVisualStyle
  2
Hidden
 70
     6
177
     3
291
     0
 70
    58
 90
        1
176
     1
 90
        2
176
     1
 90
        2
176
     1
 90
        0
176
     1
 40
0.6
176
     1
 40
30.0
176
     1
 62
     7
420
 16777215
176
     1
 90
        2
176
     1
 90
        2
176
     1
 62
     7
176
     1
 62
   257
176
     1
 90
        2
176
     1
 90
        1
176
     1
 40
40.0
176
     1
 90
        0
176
     1
 62
   257
176
     1
 40
1.0
176
     1
 90
        1
176
     1
 90
        6
176
     1
 90
        2
176
     1
 62
     7
176
     1
 90
        3
176
     1
 90
        0
176
     1
 90
        0
176
     1
290
     0
176
     1
 90
        1
176
     1
 40
0.0
176
     1
 90
        0
176
     1
290
     0
176
     1
290
     1
176
     1
290
     1
176
     1
290
     0
176
     1
290
     0
176
     1
290
     0
176
     1
290
     0
176
     1
290
     0
176
     1
290
     0
176
     1
 90
       50
176
     1
 40
0.0
176
     1
 40
1.0
176
     1
 90
        0
176
     1
 62
    18
176
     1
 90
       50
176
     1
 90
        3
176
     1
 62
     5
420
      255
176
     1
290
     0
176
     1
 90
       50
176
     1
 90
       50
176
     1
 90
       50
176
     1
290
     0
176
     1
 90
       50
176
     1
 62
   256
176
     0
 40
1.0
176
     0
 90
        2
176
     1
  1
strokes_ogs.tif
176
     1
290
     0
176
     1
 40
1.0
176
     1
 40
1.0
176
     1
1001
ACAD
1000
AcDbSavedByObjectVersion
1070
     0
  0
VISUALSTYLE
  5
3B
102
{ACAD_REACTORS
330
2A
102
}
330
2A
100
AcDbVisualStyle
  2
JitterOff
 70
    20
177
     3
291
     1
 70
    58
 90
        2
176
     0
 90
        2
176
     0
 90
        0
176
     0
 90
        0
176
     0
 40
0.6
176
     0
 40
30.0
176
     0
 62
     7
420
 16777215
176
     0
 90
        1
176
     0
 90
        4
176
     0
 62
     7
176
     0
 62
   257
176
     0
 90
        1
176
     0
 90
        1
176
     0
 40
1.0
176
     0
 90
       10
176
     2
 62
     7
176
     0
 40
1.0
176
     0
 90
        1
176
     0
 90
        6
176
     0
 90
        2
176
     0
 62
     7
176
     0
 90
        5
176
     0
 90
        0
176
     0
 90
        0
176
     0
290
     0
176
     0
 90
        1
176
     0
 40
0.0
176
     0
 90
        0
176
     0
290
     0
176
     0
290
     1
176
     0
290
     1
176
     0
290
     0
176
     0
290
     0
176
     0
290
     0
176
     0
290
     0
176
     0
290
     0
176
     0
290
     0
176
     0
 90
       50
176
     0
 40
0.0
176
     0
 40
1.0
176
     0
 90
        0
176
     0
 62
    18
176
     0
 90
       50
176
     0
 90
        3
176
     0
 62
     5
420
      255
176
     0
290
     0
176
     0
 90
       50
176
     0
 90
       50
176
     0
 90
       50
176
     0
290
     0
176
     0
 90
       50
176
     0
 62
   256
176
     0
 40
1.0
176
     0
 90
        2
176
     0
  1
strokes_ogs.tif
176
     0
290
     0
176
     0
 40
1.0
176
     0
 40
1.0
176
     0
1001
ACAD
1000
AcDbSavedByObjectVersion
1070
     0
  0
VISUALSTYLE
  5
38
102
{ACAD_REACTORS
330
2A
102
}
330
2A
100
AcDbVisualStyle
  2
Linepattern
 70
    14
177
     3
291
     1
 70
    58
 90
        2
176
     1
 90
        2
176
     1
 90
        0
176
     1
 90
        0
176
     1
 40
0.6
176
     1
 40
30.0
176
     1
 62
     7
420
 16777215
176
     1
 90
        1
176
     1
 90
        4
176
     1
 62
     7
176
     1
 62
   257
176
     1
 90
        7
176
     1
 90
        7
176
     1
 40
1.0
176
     1
 90
        8
176
     1
 62
     7
176
     1
 40
1.0
176
     1
 90
        1
176
     1
 90
        6
176
     1
 90
        2
176
     1
 62
     7
176
     1
 90
        5
176
     1
 90
        0
176
     1
 90
        0
176
     1
290
     0
176
     1
 90
        1
176
     1
 40
0.0
176
     1
 90
        0
176
     1
290
     0
176
     1
290
     1
176
     1
290
     1
176
     1
290
     0
176
     1
290
     0
176
     1
290
     0
176
     1
290
     0
176
     1
290
     0
176
     1
290
     0
176
     1
 90
       50
176
     1
 40
0.0
176
     1
 40
1.0
176
     1
 90
        0
176
     1
 62
    18
176
     1
 90
       50
176
     1
 90
        3
176
     1
 62
     5
420
      255
176
     1
290
     0
176
     1
 90
       50
176
     1
 90
       50
176
     1
 90
       50
176
     1
290
     0
176
     1
 90
       50
176
     1
 62
   256
176
     0
 40
1.0
176
     0
 90
        2
176
     1
  1
strokes_ogs.tif
176
     1
290
     0
176
     1
 40
1.0
176
     1
 40
1.0
176
     1
1001
ACAD
1000
AcDbSavedByObjectVersion
1070
     0
  0
VISUALSTYLE
  5
3C
102
{ACAD_REACTORS
330
2A
102
}
330
2A
100
AcDbVisualStyle
  2
OverhangOff
 70
    21
177
     3
291
     1
 70
    58
 90
        2
176
     0
 90
        2
176
     0
 90
        0
176
     0
 90
        0
176
     0
 40
0.6
176
     0
 40
30.0
176
     0
 62
     7
420
 16777215
176
     0
 90
        1
176
     0
 90
        4
176
     0
 62
     7
176
     0
 62
   257
176
     0
 90
        1
176
     0
 90
        1
176
     0
 40
1.0
176
     0
 90
        9
176
     2
 62
     7
176
     0
 40
1.0
176
     0
 90
        1
176
     0
 90
        6
176
     0
 90
        2
176
     0
 62
     7
176
     0
 90
        5
176
     0
 90
        0
176
     0
 90
        0
176
     0
290
     0
176
     0
 90
        1
176
     0
 40
0.0
176
     0
 90
        0
176
     0
290
     0
176
     0
290
     1
176
     0
290
     1
176
     0
290
     0
176
     0
290
     0
176
     0
290
     0
176
     0
290
     0
176
     0
290
     0
176
     0
290
     0
176
     0
 90
       50
176
     0
 40
0.0
176
     0
 40
1.0
176
     0
 90
        0
176
     0
 62
    18
176
     0
 90
       50
176
     0
 90
        3
176
     0
 62
     5
420
      255
176
     0
290
     0
176
     0
 90
       50
176
     0
 90
       50
176
     0
 90
       50
176
     0
290
     0
176
     0
 90
       50
176
     0
 62
   256
176
     0
 40
1.0
176
     0
 90
        2
176
     0
  1
strokes_ogs.tif
176
     0
290
     0
176
     0
 40
1.0
176
     0
 40
1.0
176
     0
1001
ACAD
1000
AcDbSavedByObjectVersion
1070
     0
  0
VISUALSTYLE
  5
33
102
{ACAD_REACTORS
330
2A
102
}
330
2A
100
AcDbVisualStyle
  2
Realistic
 70
     8
177
     3
291
     0
 70
    58
 90
        2
176
     1
 90
        3
176
     1
 90
        0
176
     1
 90
        2
176
     1
 40
0.6
176
     1
 40
30.0
176
     1
 62
     7
420
 16777215
176
     1
 90
        0
176
     1
 90
        0
176
     1
 62
     7
176
     1
 62
   257
176
     1
 90
        1
176
     1
 90
        1
176
     1
 40
1.0
176
     1
 90
        8
176
     1
 62
   257
176
     1
 40
1.0
176
     1
 90
        1
176
     1
 90
        6
176
     1
 90
        2
176
     1
 62
     7
176
     1
 90
        3
176
     1
 90
        0
176
     1
 90
        0
176
     1
290
     0
176
     1
 90
       13
176
     1
 40
0.0
176
     1
 90
        0
176
     1
290
     0
176
     1
290
     1
176
     1
290
     1
176
     1
290
     0
176
     1
290
     0
176
     1
290
     0
176
     1
290
     0
176
     1
290
     0
176
     1
290
     0
176
     1
 90
       50
176
     1
 40
0.0
176
     1
 40
1.0
176
     1
 90
        0
176
     1
 62
    18
176
     1
 90
       50
176
     1
 90
        3
176
     1
 62
     5
420
      255
176
     1
290
     0
176
     1
 90
       50
176
     1
 90
       50
176
     1
 90
       50
176
     1
290
     0
176
     1
 90
       50
176
     1
 62
   256
176
     0
 40
1.0
176
     0
 90
        2
176
     1
  1
strokes_ogs.tif
176
     1
290
     0
176
     1
 40
1.0
176
     1
 40
1.0
176
     1
1001
ACAD
1000
AcDbSavedByObjectVersion
1070
     0
  0
VISUALSTYLE
  5
42
102
{ACAD_REACTORS
330
2A
102
}
330
2A
100
AcDbVisualStyle
  2
Shaded
 70
    27
177
     3
291
     0
 70
    58
 90
        2
176
     1
 90
        2
176
     1
 90
        1
176
     1
 90
        2
176
     1
 40
0.6
176
     1
 40
30.0
176
     1
 62
     7
420
 16777215
176
     1
 90
        0
176
     1
 90
        4
176
     1
 62
     7
176
     1
 62
   257
176
     1
 90
        1
176
     1
 90
        1
176
     1
 40
1.0
176
     1
 90
        8
176
     1
 62
   257
176
     1
 40
1.0
176
     1
 90
        1
176
     1
 90
        6
176
     1
 90
        2
176
     1
 62
     8
420
  7895160
176
     1
 90
        3
176
     1
 90
        0
176
     1
 90
        0
176
     1
290
     0
176
     1
 90
        5
176
     1
 40
0.0
176
     1
 90
        0
176
     1
290
     0
176
     1
290
     1
176
     1
290
     1
176
     1
290
     0
176
     1
290
     0
176
     1
290
     0
176
     1
290
     0
176
     1
290
     0
176
     1
290
     0
176
     1
 90
       50
176
     1
 40
0.0
176
     1
 40
1.0
176
     1
 90
        0
176
     1
 62
    18
176
     1
 90
       50
176
     1
 90
        3
176
     1
 62
     5
420
      255
176
     1
290
     0
176
     1
 90
       50
176
     1
 90
       50
176
     1
 90
       50
176
     1
290
     0
176
     1
 90
       50
176
     1
 62
   256
176
     0
 40
1.0
176
     0
 90
        2
176
     1
  1
strokes_ogs.tif
176
     1
290
     0
176
     1
 40
1.0
176
     1
 40
1.0
176
     1
1001
ACAD
1000
AcDbSavedByObjectVersion
1070
     0
  0
VISUALSTYLE
  5
41
102
{ACAD_REACTORS
330
2A
102
}
330
2A
100
AcDbVisualStyle
  2
Shaded with edges
 70
    26
177
     3
291
     0
 70
    58
 90
        2
176
     1
 90
        2
176
     1
 90
        1
176
     1
 90
        2
176
     1
 40
0.6
176
     1
 40
30.0
176
     1
 62
     7
420
 16777215
176
     1
 90
        1
176
     1
 90
       10
176
     1
 62
     7
176
     1
 62
   257
176
     1
 90
        2
176
     1
 90
        1
176
     1
 40
1.0
176
     1
 90
        8
176
     1
 62
   257
176
     1
 40
1.0
176
     1
 90
        1
176
     1
 90
        6
176
     1
 90
        2
176
     1
 62
     7
176
     1
 90
        3
176
     1
 90
        0
176
     1
 90
        0
176
     1
290
     0
176
     1
 90
        5
176
     1
 40
0.0
176
     1
 90
        0
176
     1
290
     0
176
     1
290
     1
176
     1
290
     1
176
     1
290
     0
176
     1
290
     0
176
     1
290
     0
176
     1
290
     0
176
     1
290
     0
176
     1
290
     0
176
     1
 90
       50
176
     1
 40
0.0
176
     1
 40
1.0
176
     1
 90
        0
176
     1
 62
    18
176
     1
 90
       50
176
     1
 90
        3
176
     1
 62
     5
420
      255
176
     1
290
     0
176
     1
 90
       50
176
     1
 90
       50
176
     1
 90
       50
176
     1
290
     0
176
     1
 90
       50
176
     1
 62
   256
176
     0
 40
1.0
176
     0
 90
        2
176
     1
  1
strokes_ogs.tif
176
     1
290
     0
176
     1
 40
1.0
176
     1
 40
1.0
176
     1
1001
ACAD
1000
AcDbSavedByObjectVersion
1070
     0
  0
VISUALSTYLE
  5
3E
102
{ACAD_REACTORS
330
2A
102
}
330
2A
100
AcDbVisualStyle
  2
Shades of Gray
 70
    23
177
     3
291
     0
 70
    58
 90
        2
176
     1
 90
        2
176
     1
 90
        3
176
     1
 90
        0
176
     1
 40
0.6
176
     1
 40
30.0
176
     1
 62
     7
420
 16777215
176
     1
 90
        2
176
     1
 90
        2
176
     1
 62
     7
176
     1
 62
     7
176
     1
 90
        1
176
     1
 90
        1
176
     1
 40
40.0
176
     1
 90
        8
176
     1
 62
     7
176
     1
 40
1.0
176
     1
 90
        1
176
     1
 90
        6
176
     1
 90
        2
176
     1
 62
     7
176
     1
 90
        3
176
     1
 90
        0
176
     1
 90
        0
176
     1
290
     0
176
     1
 90
        1
176
     1
 40
0.0
176
     1
 90
        0
176
     1
290
     0
176
     1
290
     1
176
     1
290
     1
176
     1
290
     0
176
     1
290
     0
176
     1
290
     0
176
     1
290
     0
176
     1
290
     0
176
     1
290
     0
176
     1
 90
       50
176
     1
 40
0.0
176
     1
 40
1.0
176
     1
 90
        0
176
     1
 62
    18
176
     1
 90
       50
176
     1
 90
        3
176
     1
 62
     5
420
      255
176
     1
290
     0
176
     1
 90
       50
176
     1
 90
       50
176
     1
 90
       50
176
     1
290
     0
176
     1
 90
       50
176
     1
 62
   256
176
     0
 40
1.0
176
     0
 90
        2
176
     1
  1
strokes_ogs.tif
176
     1
290
     0
176
     1
 40
1.0
176
     1
 40
1.0
176
     1
1001
ACAD
1000
AcDbSavedByObjectVersion
1070
     0
  0
VISUALSTYLE
  5
3F
102
{ACAD_REACTORS
330
2A
102
}
330
2A
100
AcDbVisualStyle
  2
Sketchy
 70
    24
177
     3
291
     0
 70
    58
 90
        1
176
     1
 90
        2
176
     1
 90
        2
176
     1
 90
        0
176
     1
 40
0.6
176
     1
 40
30.0
176
     1
 62
     7
420
 16777215
176
     1
 90
        2
176
     1
 90
        2
176
     1
 62
     7
176
     1
 62
     7
176
     1
 90
        1
176
     1
 90
        1
176
     1
 40
40.0
176
     1
 90
       11
176
     1
 62
     7
176
     1
 40
1.0
176
     1
 90
        1
176
     1
 90
        6
176
     1
 90
        2
176
     1
 62
     7
176
     1
 90
        6
176
     1
 90
        0
176
     1
 90
        0
176
     1
290
     0
176
     1
 90
        1
176
     1
 40
0.0
176
     1
 90
        0
176
     1
290
     0
176
     1
290
     1
176
     1
290
     1
176
     1
290
     0
176
     1
290
     0
176
     1
290
     0
176
     1
290
     0
176
     1
290
     0
176
     1
290
     0
176
     1
 90
       50
176
     1
 40
0.0
176
     1
 40
1.0
176
     1
 90
        0
176
     1
 62
    18
176
     1
 90
       50
176
     1
 90
        3
176
     1
 62
     5
420
      255
176
     1
290
     0
176
     1
 90
       50
176
     1
 90
       50
176
     1
 90
       50
176
     1
290
     0
176
     1
 90
       50
176
     1
 62
   256
176
     0
 40
1.0
176
     0
 90
        2
176
     1
  1
strokes_ogs.tif
176
     1
290
     0
176
     1
 40
1.0
176
     1
 40
1.0
176
     1
1001
ACAD
1000
AcDbSavedByObjectVersion
1070
     0
  0
VISUALSTYLE
  5
37
102
{ACAD_REACTORS
330
2A
102
}
330
2A
100
AcDbVisualStyle
  2
Thicken
 70
    13
177
     3
291
     1
 70
    58
 90
        2
176
     1
 90
        2
176
     1
 90
        0
176
     1
 90
        0
176
     1
 40
0.6
176
     1
 40
30.0
176
     1
 62
     7
420
 16777215
176
     1
 90
        1
176
     1
 90
        4
176
     1
 62
     7
176
     1
 62
   257
176
     1
 90
        1
176
     1
 90
        1
176
     1
 40
1.0
176
     1
 90
       12
176
     1
 62
     7
176
     1
 40
1.0
176
     1
 90
        1
176
     1
 90
        6
176
     1
 90
        2
176
     1
 62
     7
176
     1
 90
        5
176
     1
 90
        0
176
     1
 90
        0
176
     1
290
     0
176
     1
 90
        1
176
     1
 40
0.0
176
     1
 90
        0
176
     1
290
     0
176
     1
290
     1
176
     1
290
     1
176
     1
290
     0
176
     1
290
     0
176
     1
290
     0
176
     1
290
     0
176
     1
290
     0
176
     1
290
     0
176
     1
 90
       50
176
     1
 40
0.0
176
     1
 40
1.0
176
     1
 90
        0
176
     1
 62
    18
176
     1
 90
       50
176
     1
 90
        3
176
     1
 62
     5
420
      255
176
     1
290
     0
176
     1
 90
       50
176
     1
 90
       50
176
     1
 90
       50
176
     1
290
     0
176
     1
 90
       50
176
     1
 62
   256
176
     0
 40
1.0
176
     0
 90
        2
176
     1
  1
strokes_ogs.tif
176
     1
290
     0
176
     1
 40
1.0
176
     1
 40
1.0
176
     1
1001
ACAD
1000
AcDbSavedByObjectVersion
1070
     0
  0
VISUALSTYLE
  5
30
102
{ACAD_REACTORS
330
2A
102
}
330
2A
100
AcDbVisualStyle
  2
Wireframe
 70
     5
177
     3
291
     0
 70
    58
 90
        0
176
     1
 90
        2
176
     1
 90
        0
176
     1
 90
        0
176
     1
 40
0.6
176
     1
 40
30.0
176
     1
 62
     7
420
 16777215
176
     1
 90
        1
176
     1
 90
        4
176
     1
 62
     7
176
     1
 62
   257
176
     1
 90
        1
176
     1
 90
        1
176
     1
 40
1.0
176
     1
 90
        0
176
     1
 62
   257
176
     1
 40
1.0
176
     1
 90
        1
176
     1
 90
        6
176
     1
 90
        2
176
     1
 62
     7
176
     1
 90
        3
176
     1
 90
        0
176
     1
 90
        0
176
     1
290
     0
176
     1
 90
        1
176
     1
 40
0.0
176
     1
 90
        0
176
     1
290
     0
176
     1
290
     1
176
     1
290
     1
176
     1
290
     0
176
     1
290
     0
176
     1
290
     0
176
     1
290
     0
176
     1
290
     0
176
     1
290
     0
176
     1
 90
       50
176
     1
 40
0.0
176
     1
 40
1.0
176
     1
 90
        0
176
     1
 62
    18
176
     1
 90
       50
176
     1
 90
        3
176
     1
 62
     5
420
      255
176
     1
290
     0
176
     1
 90
       50
176
     1
 90
       50
176
     1
 90
       50
176
     1
290
     0
176
     1
 90
       50
176
     1
 62
   256
176
     0
 40
1.0
176
     0
 90
        2
176
     1
  1
strokes_ogs.tif
176
     1
290
     0
176
     1
 40
1.0
176
     1
 40
1.0
176
     1
1001
ACAD
1000
AcDbSavedByObjectVersion
1070
     0
  0
VISUALSTYLE
  5
40
102
{ACAD_REACTORS
330
2A
102
}
330
2A
100
AcDbVisualStyle
  2
X-Ray
 70
    25
177
     3
291
     0
 70
    58
 90
        2
176
     1
 90
        2
176
     1
 90
        1
176
     1
 90
        1
176
     1
 40
0.5
176
     1
 40
30.0
176
     1
 62
     7
420
 16777215
176
     1
 90
        1
176
     1
 90
        0
176
     1
 62
     7
176
     1
 62
   257
176
     1
 90
        1
176
     1
 90
        1
176
     1
 40
1.0
176
     1
 90
        8
176
     1
 62
     7
176
     1
 40
1.0
176
     1
 90
        1
176
     1
 90
        6
176
     1
 90
        2
176
     1
 62
     7
176
     1
 90
        3
176
     1
 90
        0
176
     1
 90
        0
176
     1
290
     0
176
     1
 90
       13
176
     1
 40
0.0
176
     1
 90
        0
176
     1
290
     0
176
     1
290
     1
176
     1
290
     1
176
     1
290
     0
176
     1
290
     0
176
     1
290
     0
176
     1
290
     0
176
     1
290
     0
176
     1
290
     0
176
     1
 90
       50
176
     1
 40
0.0
176
     1
 40
1.0
176
     1
 90
        0
176
     1
 62
    18
176
     1
 90
       50
176
     1
 90
        3
176
     1
 62
     5
420
      255
176
     1
290
     0
176
     1
 90
       50
176
     1
 90
       50
176
     1
 90
       50
176
     1
290
     0
176
     1
 90
       50
176
     1
 62
   256
176
     0
 40
1.0
176
     0
 90
        2
176
     1
  1
strokes_ogs.tif
176
     1
290
     0
176
     1
 40
1.0
176
     1
 40
1.0
176
     1
1001
ACAD
1000
AcDbSavedByObjectVersion
1070
     0
  0
DICTIONARYVAR
  5
7C
102
{ACAD_REACTORS
330
7B
102
}
330
7B
100
DictionaryVariables
280
     0
  1
1:1
  0
DICTIONARYVAR
  5
84
102
{ACAD_REACTORS
330
7B
102
}
330
7B
100
DictionaryVariables
280
     0
  1
3.500000
  0
DICTIONARYVAR
  5
85
102
{ACAD_REACTORS
330
7B
102
}
330
7B
100
DictionaryVariables
280
     0
  1
acadiso.lin
  0
DICTIONARYVAR
  5
81
102
{ACAD_REACTORS
330
7B
102
}
330
7B
100
DictionaryVariables
280
     0
  1
STANDARD
  0
DICTIONARYVAR
  5
80
102
{ACAD_REACTORS
330
7B
102
}
330
7B
100
DictionaryVariables
280
     0
  1
STANDARD
  0
DICTIONARYVAR
  5
137
102
{ACAD_REACTORS
330
7B
102
}
330
7B
100
DictionaryVariables
280
     0
  1
Metric50
  0
DICTIONARYVAR
  5
138
102
{ACAD_REACTORS
330
7B
102
}
330
7B
100
DictionaryVariables
280
     0
  1
Metric50
  0
DICTIONARY
  5
628
102
{ACAD_REACTORS
330
626
102
}
330
626
100
AcDbDictionary
281
     1
  0
DICTIONARY
  5
627
102
{ACAD_REACTORS
330
626
102
}
330
626
100
AcDbDictionary
281
     1
  3
1995123962000
350
621
  3
1995123962016
350
622
  3
1995123962032
350
623
  3
1995123962048
350
624
  3
1995123962064
350
625
  0
DICTIONARY
  5
62B
330
8A
100
AcDbDictionary
280
     1
281
     1
  3
ACAD_XREC_ROUNDTRIP
360
62C
  0
DICTIONARY
  5
629
330
89
100
AcDbDictionary
280
     1
281
     1
  3
ACAD_XREC_ROUNDTRIP
360
62A
  0
DICTIONARY
  5
7D
330
5A
100
AcDbDictionary
280
     1
281
     1
  3
ACAD_ROUNDTRIP_2008_TABLESTYLE_CELLSTYLEMAP
360
61F
  0
XRECORD
  5
621
102
{ACAD_REACTORS
330
627
102
}
330
627
100
AcDbXrecord
280
     1
  1
AcDb_Thumbnail_Schema
102
{ATTRRECORD
341
622
  2
AcDbDs::TreatedAsObjectData
280
     1
291
     1
102
ATTRRECORD}
102
{ATTRRECORD
341
623
  2
AcDbDs::Legacy
280
     1
291
     1
102
ATTRRECORD}
  2
AcDbDs::ID
280
    10
 91
        8
102
{ATTRRECORD
341
624
  2
AcDs:Indexable
280
     1
291
     1
102
ATTRRECORD}
102
{ATTRRECORD
341
625
  2
AcDbDs::HandleAttribute
280
     7
282
     1
102
ATTRRECORD}
  2
Thumbnail_Data
280
    15
 91
        0
  0
XRECORD
  5
622
102
{ACAD_REACTORS
330
627
102
}
330
627
100
AcDbXrecord
280
     1
  1
AcDbDs::TreatedAsObjectDataSchema
  2
AcDbDs::TreatedAsObjectData
280
     1
 91
        0
  0
XRECORD
  5
623
102
{ACAD_REACTORS
330
627
102
}
330
627
100
AcDbXrecord
280
     1
  1
AcDbDs::LegacySchema
  2
AcDbDs::Legacy
280
     1
 91
        0
  0
XRECORD
  5
624
102
{ACAD_REACTORS
330
627
102
}
330
627
100
AcDbXrecord
280
     1
  1
AcDbDs::IndexedPropertySchema
  2
AcDs:Indexable
280
     1
 91
        0
  0
XRECORD
  5
625
102
{ACAD_REACTORS
330
627
102
}
330
627
100
AcDbXrecord
280
     1
  1
AcDbDs::HandleAttributeSchema
  2
AcDbDs::HandleAttribute
280
     7
 91
        1
284
     1
  0
XRECORD
  5
62C
102
{ACAD_REACTORS
330
62B
102
}
330
62B
100
AcDbXrecord
280
     1
102
DISPLAYNAME
  1
Metric50
102
FLAGS
 90
        0
  0
XRECORD
  5
62A
102
{ACAD_REACTORS
330
629
102
}
330
629
100
AcDbXrecord
280
     1
102
DISPLAYNAME
  1
Metric50
102
FLAGS
 90
        0
  0
CELLSTYLEMAP
  5
61F
102
{ACAD_REACTORS
330
7D
102
}
330
7D
100
AcDbCellStyleMap
 90
        3
300
CELLSTYLE
  1
TABLEFORMAT_BEGIN
 90
        5
170
     1
 91
        0
 92
    32768
 62
   257
 93
        1
300
CONTENTFORMAT
  1
CONTENTFORMAT_BEGIN
 90
        0
 91
        0
 92
        4
 93
        0
300

 40
0.0
140
1.0
 94
        5
 62
     0
340
11
144
6.0
309
CONTENTFORMAT_END
171
     1
301
MARGIN
  1
CELLMARGIN_BEGIN
 40
1.5
 40
1.5
 40
1.5
 40
1.5
 40
0.18
 40
0.18
309
CELLMARGIN_END
 94
        6
 95
        1
302
GRIDFORMAT
  1
GRIDFORMAT_BEGIN
 90
        0
 91
        1
 62
     0
 92
       -2
340
14
 93
        0
 40
0.045
309
GRIDFORMAT_END
 95
        2
302
GRIDFORMAT
  1
GRIDFORMAT_BEGIN
 90
        0
 91
        1
 62
     0
 92
       -2
340
14
 93
        0
 40
0.045
309
GRIDFORMAT_END
 95
        4
302
GRIDFORMAT
  1
GRIDFORMAT_BEGIN
 90
        0
 91
        1
 62
     0
 92
       -2
340
14
 93
        0
 40
0.045
309
GRIDFORMAT_END
 95
        8
302
GRIDFORMAT
  1
GRIDFORMAT_BEGIN
 90
        0
 91
        1
 62
     0
 92
       -2
340
14
 93
        0
 40
0.045
309
GRIDFORMAT_END
 95
       16
302
GRIDFORMAT
  1
GRIDFORMAT_BEGIN
 90
        0
 91
        1
 62
     0
 92
       -2
340
14
 93
        0
 40
0.045
309
GRIDFORMAT_END
 95
       32
302
GRIDFORMAT
  1
GRIDFORMAT_BEGIN
 90
        0
 91
        1
 62
     0
 92
       -2
340
14
 93
        0
 40
0.045
309
GRIDFORMAT_END
309
TABLEFORMAT_END
  1
CELLSTYLE_BEGIN
 90
        1
 91
        1
300
_TITLE
309
CELLSTYLE_END
300
CELLSTYLE
  1
TABLEFORMAT_BEGIN
 90
        5
170
     1
 91
        0
 92
        0
 62
   257
 93
        1
300
CONTENTFORMAT
  1
CONTENTFORMAT_BEGIN
 90
        0
 91
        0
 92
        4
 93
        0
300

 40
0.0
140
1.0
 94
        5
 62
     0
340
11
144
4.5
309
CONTENTFORMAT_END
171
     1
301
MARGIN
  1
CELLMARGIN_BEGIN
 40
1.5
 40
1.5
 40
1.5
 40
1.5
 40
0.18
 40
0.18
309
CELLMARGIN_END
 94
        6
 95
        1
302
GRIDFORMAT
  1
GRIDFORMAT_BEGIN
 90
        0
 91
        1
 62
     0
 92
       -2
340
14
 93
        0
 40
0.045
309
GRIDFORMAT_END
 95
        2
302
GRIDFORMAT
  1
GRIDFORMAT_BEGIN
 90
        0
 91
        1
 62
     0
 92
       -2
340
14
 93
        0
 40
0.045
309
GRIDFORMAT_END
 95
        4
302
GRIDFORMAT
  1
GRIDFORMAT_BEGIN
 90
        0
 91
        1
 62
     0
 92
       -2
340
14
 93
        0
 40
0.045
309
GRIDFORMAT_END
 95
        8
302
GRIDFORMAT
  1
GRIDFORMAT_BEGIN
 90
        0
 91
        1
 62
     0
 92
       -2
340
14
 93
        0
 40
0.045
309
GRIDFORMAT_END
 95
       16
302
GRIDFORMAT
  1
GRIDFORMAT_BEGIN
 90
        0
 91
        1
 62
     0
 92
       -2
340
14
 93
        0
 40
0.045
309
GRIDFORMAT_END
 95
       32
302
GRIDFORMAT
  1
GRIDFORMAT_BEGIN
 90
        0
 91
        1
 62
     0
 92
       -2
340
14
 93
        0
 40
0.045
309
GRIDFORMAT_END
309
TABLEFORMAT_END
  1
CELLSTYLE_BEGIN
 90
        2
 91
        1
300
_HEADER
309
CELLSTYLE_END
300
CELLSTYLE
  1
TABLEFORMAT_BEGIN
 90
        5
170
     1
 91
        0
 92
        0
 62
   257
 93
        1
300
CONTENTFORMAT
  1
CONTENTFORMAT_BEGIN
 90
        0
 91
        0
 92
        4
 93
        0
300

 40
0.0
140
1.0
 94
        2
 62
     0
340
11
144
4.5
309
CONTENTFORMAT_END
171
     1
301
MARGIN
  1
CELLMARGIN_BEGIN
 40
1.5
 40
1.5
 40
1.5
 40
1.5
 40
0.18
 40
0.18
309
CELLMARGIN_END
 94
        6
 95
        1
302
GRIDFORMAT
  1
GRIDFORMAT_BEGIN
 90
        0
 91
        1
 62
     0
 92
       -2
340
14
 93
        0
 40
0.045
309
GRIDFORMAT_END
 95
        2
302
GRIDFORMAT
  1
GRIDFORMAT_BEGIN
 90
        0
 91
        1
 62
     0
 92
       -2
340
14
 93
        0
 40
0.045
309
GRIDFORMAT_END
 95
        4
302
GRIDFORMAT
  1
GRIDFORMAT_BEGIN
 90
        0
 91
        1
 62
     0
 92
       -2
340
14
 93
        0
 40
0.045
309
GRIDFORMAT_END
 95
        8
302
GRIDFORMAT
  1
GRIDFORMAT_BEGIN
 90
        0
 91
        1
 62
     0
 92
       -2
340
14
 93
        0
 40
0.045
309
GRIDFORMAT_END
 95
       16
302
GRIDFORMAT
  1
GRIDFORMAT_BEGIN
 90
        0
 91
        1
 62
     0
 92
       -2
340
14
 93
        0
 40
0.045
309
GRIDFORMAT_END
 95
       32
302
GRIDFORMAT
  1
GRIDFORMAT_BEGIN
 90
        0
 91
        1
 62
     0
 92
       -2
340
14
 93
        0
 40
0.045
309
GRIDFORMAT_END
309
TABLEFORMAT_END
  1
CELLSTYLE_BEGIN
 90
        3
 91
        2
300
_DATA
309
CELLSTYLE_END
  0
ENDSEC
  0
SECTION
  2
ACDSDATA
 70
     2
 71
     8
  0
ACDSSCHEMA
 90
        0
  1
AcDb_Thumbnail_Schema
  2
AcDbDs::ID
280
    10
 91
        8
  2
Thumbnail_Data
280
    15
 91
        0
101
ACDSRECORD
 95
        0
 90
        1
  2
AcDbDs::TreatedAsObjectData
280
     1
291
     1
101
ACDSRECORD
 95
        0
 90
        2
  2
AcDbDs::Legacy
280
     1
291
     1
101
ACDSRECORD
  1
AcDbDs::ID
 90
        3
  2
AcDs:Indexable
280
     1
291
     1
101
ACDSRECORD
  1
AcDbDs::ID
 90
        4
  2
AcDbDs::HandleAttribute
280
     7
282
     1
  0
ACDSSCHEMA
 90
        1
  1
AcDbDs::TreatedAsObjectDataSchema
  2
AcDbDs::TreatedAsObjectData
280
     1
 91
        0
  0
ACDSSCHEMA
 90
        2
  1
AcDbDs::LegacySchema
  2
AcDbDs::Legacy
280
     1
 91
        0
  0
ACDSSCHEMA
 90
        3
  1
AcDbDs::IndexedPropertySchema
  2
AcDs:Indexable
280
     1
 91
        0
  0
ACDSSCHEMA
 90
        4
  1
AcDbDs::HandleAttributeSchema
  2
AcDbDs::HandleAttribute
280
     7
 91
        1
284
     1
  0
ACDSRECORD
 90
        0
  2
AcDbDs::ID
280
    10
320
22
  2
Thumbnail_Data
280
    15
 94
     1591
310
89504E470D0A1A0A0000000D49484452000001000000008D08030000006FF554E600000300504C5445212830FFFFFF2128300000000000000000000000000000000000000000000000000000330000660000990000CC0000FF0033000033330033660033990033CC0033FF0066000066330066660066990066CC0066FF0099
310
000099330099660099990099CC0099FF00CC0000CC3300CC6600CC9900CCCC00CCFF00FF0000FF3300FF6600FF9900FFCC00FFFF3300003300333300663300993300CC3300FF3333003333333333663333993333CC3333FF3366003366333366663366993366CC3366FF3399003399333399663399993399CC3399FF33CC00
310
33CC3333CC6633CC9933CCCC33CCFF33FF0033FF3333FF6633FF9933FFCC33FFFF6600006600336600666600996600CC6600FF6633006633336633666633996633CC6633FF6666006666336666666666996666CC6666FF6699006699336699666699996699CC6699FF66CC0066CC3366CC6666CC9966CCCC66CCFF66FF0066
310
FF3366FF6666FF9966FFCC66FFFF9900009900339900669900999900CC9900FF9933009933339933669933999933CC9933FF9966009966339966669966999966CC9966FF9999009999339999669999999999CC9999FF99CC0099CC3399CC6699CC9999CCCC99CCFF99FF0099FF3399FF6699FF9999FFCC99FFFFCC0000CC00
310
33CC0066CC0099CC00CCCC00FFCC3300CC3333CC3366CC3399CC33CCCC33FFCC6600CC6633CC6666CC6699CC66CCCC66FFCC9900CC9933CC9966CC9999CC99CCCC99FFCCCC00CCCC33CCCC66CCCC99CCCCCCCCCCFFCCFF00CCFF33CCFF66CCFF99CCFFCCCCFFFFFF0000FF0033FF0066FF0099FF00CCFF00FFFF3300FF3333
310
FF3366FF3399FF33CCFF33FFFF6600FF6633FF6666FF6699FF66CCFF66FFFF9900FF9933FF9966FF9999FF99CCFF99FFFFCC00FFCC33FFCC66FFCC99FFCCCCFFCCFFFFFF00FFFF33FFFF66FFFF99FFFFCCFFFFFF0000000D0D0D1A1A1A2828283535354343435050505D5D5D6B6B6B787878868686939393A1A1A1AEAEAEBB
310
BBBBC9C9C9D6D6D6E4E4E4F1F1F1FFFFFF0000000000000000000000000000000000000000000000000000000000002E4550F1000002F24944415478DAEDDB8D72AB201086612E3697FA5DD8E9B4C70464775D7F6074F2EE4CD35284C0831A15520A41100441100441100441100441B8F17A7C9C0578FC0802000000000000
310
00000000000000000000000017953FFFA0E1F28E3A2D1A02F0FB5EB722F05B3402E075BBC32368D10080D7ED4E10518B00B81CE075BBCF88B0450000C0390000AE03B812E45E80BB410000B8B0BCA426A12F03D0FF9FBFEE2F2F6F0DB95099376C374B520783300040DDEBFB974ACD5143FDFE25BBC575A22BE35157A5D639
310
83019A4E2E89FA9F32A0161BA3C56DA22F638137A5DA41980350FFFCBCBC05EA91EEA14A2E21ABFF6DDDFDEBD284F1007A1F9B6D6BB4E6582175345E42C5AAD7A75EE5CC02E88EEAA236AB875A1AB99158CA985906759B33EB1C609DD7DAAC56436EA278899DD4DE7960D8A780D5AE262B0525AB63DB757BA56603044D59B7
310
EB48E218F5A40BA1CF8E9E1C992B7781B8D48C4BE1C4382909E5EF367E0D2AF98360CCCD50E2C2AD1CD83914E33A1BF6DBCD0448B62BBA2A8ECA64B3660344DD9465231D00F05391BBE63C0F9035161B63B69D90EFD9BF935CDD1B0124B6D3E9EA8CC3633680752FF34D00E69D9DD5621D00C81E6C7A0040700BBC59666716
310
0000000000000000000000F36F86028D33004175259A20BA1580BFDD794F95A701241300000000000000000000003C0640DF07D04C6CA56FD876CE0BDC0CC09C96EB97FF5D3833A4D251D700AB9CC1003267A68D899CE24E15A71395E76AA2B4B6F126C6862F9109973014E52687E5261A4FF995FBFD9F0870787947D4FFA0
310
3AABFFB301C21542E5FC32B170EF2AA91D602880DCA3FCD0EA88B2B1ECC35F3831790FC83CA50CE6B2730B64FCB501F2ABD3D485929F85BD9FAF356C5F03F94B87A43D0F3DCD1AF65CC89C0190FBBD9026CBFF0A8099286E2F1B6A6314DA419874259888566395A83FE1BDCD0CEA56BD91BFBE0397940F74CE5731A3037C6D
310
0E0000000000000000000000000000000000000000000000000000000000000000000000000000000000001E07F00F01A22608466488A50000000049454E44AE426082
  0
ENDSEC
  0
EOF
